<mxfile host="app.diagrams.net" agent="Mozilla/5.0 (Windows NT 10.0; Win64; x64) AppleWebKit/537.36 (KHTML, like Gecko) Chrome/138.0.0.0 Safari/537.36" version="28.0.7">
  <diagram name="Page-1" id="LdcTWISz_wTZ8QFPx2ms">
    <mxGraphModel dx="1209" dy="725" grid="1" gridSize="8" guides="1" tooltips="1" connect="1" arrows="1" fold="1" page="1" pageScale="1" pageWidth="827" pageHeight="1169" math="0" shadow="0">
      <root>
        <mxCell id="0" />
        <mxCell id="1" parent="0" />
        <mxCell id="fqA9Xs131egoBfww3Tdx-35" value="" style="rounded=0;whiteSpace=wrap;html=1;fillColor=#D4E1F5;" vertex="1" parent="1">
          <mxGeometry x="318" y="96" width="192" height="232" as="geometry" />
        </mxCell>
        <mxCell id="fqA9Xs131egoBfww3Tdx-34" value="" style="rounded=0;whiteSpace=wrap;html=1;fillColor=#D4E1F5;" vertex="1" parent="1">
          <mxGeometry x="34" y="104" width="192" height="232" as="geometry" />
        </mxCell>
        <mxCell id="fqA9Xs131egoBfww3Tdx-116" value="" style="edgeStyle=orthogonalEdgeStyle;rounded=0;orthogonalLoop=1;jettySize=auto;html=1;entryX=0.304;entryY=0;entryDx=0;entryDy=0;entryPerimeter=0;" edge="1" parent="1" source="fqA9Xs131egoBfww3Tdx-1" target="fqA9Xs131egoBfww3Tdx-54">
          <mxGeometry relative="1" as="geometry">
            <mxPoint x="56" y="640" as="targetPoint" />
            <Array as="points">
              <mxPoint x="126" y="480" />
              <mxPoint x="24" y="480" />
              <mxPoint x="24" y="568" />
              <mxPoint x="87" y="568" />
            </Array>
          </mxGeometry>
        </mxCell>
        <mxCell id="fqA9Xs131egoBfww3Tdx-1" value="" style="verticalLabelPosition=bottom;verticalAlign=top;html=1;shadow=0;dashed=0;strokeWidth=1;shape=mxgraph.android.phone2;strokeColor=#c0c0c0;" vertex="1" parent="1">
          <mxGeometry x="26" y="72" width="200" height="390" as="geometry" />
        </mxCell>
        <mxCell id="fqA9Xs131egoBfww3Tdx-2" value="" style="verticalLabelPosition=bottom;verticalAlign=top;html=1;shadow=0;dashed=0;strokeWidth=1;shape=mxgraph.android.keyboard;sketch=0;" vertex="1" parent="1">
          <mxGeometry x="34" y="322" width="185" height="100" as="geometry" />
        </mxCell>
        <mxCell id="fqA9Xs131egoBfww3Tdx-110" value="" style="edgeStyle=orthogonalEdgeStyle;rounded=0;orthogonalLoop=1;jettySize=auto;html=1;entryX=-0.009;entryY=0.49;entryDx=0;entryDy=0;entryPerimeter=0;" edge="1" parent="1" source="fqA9Xs131egoBfww3Tdx-3" target="fqA9Xs131egoBfww3Tdx-4">
          <mxGeometry relative="1" as="geometry">
            <Array as="points">
              <mxPoint x="232" y="310" />
              <mxPoint x="232" y="263" />
            </Array>
          </mxGeometry>
        </mxCell>
        <mxCell id="fqA9Xs131egoBfww3Tdx-3" value="&lt;font style=&quot;color: rgb(255, 255, 255); font-size: 15px;&quot;&gt;&lt;b style=&quot;&quot;&gt;Старт&lt;/b&gt;&lt;/font&gt;" style="rounded=1;html=1;shadow=0;dashed=0;whiteSpace=wrap;fontSize=10;fillColor=#1ba1e2;align=center;strokeColor=#006EAF;strokeWidth=2;fontColor=#ffffff;" vertex="1" parent="1">
          <mxGeometry x="36" y="302" width="183" height="16.88" as="geometry" />
        </mxCell>
        <mxCell id="fqA9Xs131egoBfww3Tdx-113" value="" style="edgeStyle=orthogonalEdgeStyle;rounded=0;orthogonalLoop=1;jettySize=auto;html=1;exitX=1;exitY=0.75;exitDx=0;exitDy=0;" edge="1" parent="1">
          <mxGeometry relative="1" as="geometry">
            <mxPoint x="498" y="292" as="sourcePoint" />
            <mxPoint x="414" y="644" as="targetPoint" />
            <Array as="points">
              <mxPoint x="528" y="292" />
              <mxPoint x="528" y="540" />
              <mxPoint x="415" y="540" />
              <mxPoint x="415" y="644" />
            </Array>
          </mxGeometry>
        </mxCell>
        <mxCell id="fqA9Xs131egoBfww3Tdx-4" value="" style="verticalLabelPosition=bottom;verticalAlign=top;html=1;shadow=0;dashed=0;strokeWidth=1;shape=mxgraph.android.phone2;strokeColor=#c0c0c0;" vertex="1" parent="1">
          <mxGeometry x="314" y="72" width="200" height="390" as="geometry" />
        </mxCell>
        <mxCell id="fqA9Xs131egoBfww3Tdx-114" value="" style="edgeStyle=orthogonalEdgeStyle;rounded=0;orthogonalLoop=1;jettySize=auto;html=1;entryX=0.236;entryY=-0.005;entryDx=0;entryDy=0;entryPerimeter=0;exitX=1;exitY=0.75;exitDx=0;exitDy=0;" edge="1" parent="1">
          <mxGeometry relative="1" as="geometry">
            <mxPoint x="497.77" y="289.95" as="sourcePoint" />
            <mxPoint x="648.97" y="648" as="targetPoint" />
            <Array as="points">
              <mxPoint x="497.77" y="282.95" />
              <mxPoint x="551.77" y="282.95" />
              <mxPoint x="551.77" y="537.95" />
              <mxPoint x="648.77" y="537.95" />
            </Array>
          </mxGeometry>
        </mxCell>
        <mxCell id="fqA9Xs131egoBfww3Tdx-5" value="" style="verticalLabelPosition=bottom;verticalAlign=top;html=1;shadow=0;dashed=0;strokeWidth=1;shape=mxgraph.android.keyboard;sketch=0;" vertex="1" parent="1">
          <mxGeometry x="322" y="322" width="185" height="100" as="geometry" />
        </mxCell>
        <mxCell id="fqA9Xs131egoBfww3Tdx-6" value="&lt;font style=&quot;color: rgb(204, 204, 204); font-size: 12px;&quot;&gt;Сообщение&lt;/font&gt;" style="rounded=1;html=1;shadow=0;dashed=0;whiteSpace=wrap;fontSize=10;align=left;strokeWidth=2;" vertex="1" parent="1">
          <mxGeometry x="324" y="302" width="183" height="16.88" as="geometry" />
        </mxCell>
        <mxCell id="fqA9Xs131egoBfww3Tdx-8" value="" style="shape=image;verticalLabelPosition=bottom;labelBackgroundColor=default;verticalAlign=top;aspect=fixed;imageAspect=0;image=data:image/png,iVBORw0KGgoAAAANSUhEUgAAAgAAAAIACAYAAAD0eNT6AAAAAXNSR0IArs4c6QAAIABJREFUeAHt3Q2QI2d95/HJQnzG5TKUC+zC8XrVj2Z3vbPzupr3HZPLGxXiSqAo7rhQJJdLkYKiihQ57pKQgrq9kEpySSAug/FI3Zo3jeZFsyFHCqgQAusLsFl7pO7WjKTRaA2YFxuwwfZiY7zr3emrnrVmZ8fzImla/fZ8XeWa3R1J3c+nHz2///N0q9XSwn8IIIAAAggggAACCCCAAAIIIIAAAggggAACCCCAAAIIIIAAAggggAACCCCAAAIIIIAAAggggAACCCCAAAIIIIAAAggggAACCCCAAAIIIIAAAggggAACCCCAAAIIIIAAAggggAACCCCAAAIIIIAAAggggAACCCCAAAIIIIAAAggggAACCCCAAAIIIIAAAggggAACCCCAAAIIIIAAAggggAACCCCAAAIIIIAAAggggAACCCCAAAIIIIAAAggggAACCCCAAAIIIIAAAggggAACCCCAAAIIIIAAAggggAACCCCAAAIIIIAAAggggAACCCCAAAIIIIAAAggggAACCCCAAAIIIIAAAggggAACCCCAAAIIIIAAAggggAACCCCAAAIIIIAAAggggAACCCCAAAIIIIAAAggggAACCCCAAAIIIIAAAggggAACCCCAAAIIIIAAAggggAACCCCAAAIIIIAAAggggAACCCCAAAIIIIAAAggggAACCCCAAAIIIIAAAggggAACCCCAAAIIIIBA7QJtU0u/15kqfPXETOn7fXPlFwczlbXhTMUaWahY95w+b42crlgnFyrWUOb82uB85XLvTOknPdPFSsdUId2dNg7XviUeiQACCCCAAAKeCbQ9cObmjtTydO9M+cJwZnU95O2gb+j/hfPWwPzq5Z508Vttk8vv9qxRbBgBBBBAAAEEthdoGzc/cGJm5cmTmasz+4YCf49CYWBu9XLXVOHMwPS5W7bfC/4VAQQQQAABBJoucCSefX1HqvDFgbnyS80I/J1e0z5d0DNdzPWM6W9oeiPZAAIIIIAAAghcFTiezP/uiXTpcfvc/U4h7ca/Dy1U1rqmlsY5LggggAACCCDQJIFYPPvarlThnwZmy5fcCPd6thGbKT1/bCx/oklN52URQAABBBCQT6B9wnxz13SpvO8L+vY4v19P4G/3WHv/jk8t/R/5jhAtRgABBBBAwCGBOzNnX9M5uTzXN1u+uF3Y+vXfRhbOW11ThUccYuBlEEAAAQQQkEOgbaz4y/Zs377Izq8hX8t+2dcntFjWATmOGq1EAAEEEECgEYFT1g2dqWWtb7b8s3sWGvy8fpOX92sJ/a2P6U6v/JAioJEOwXMQQAABBEIt0DG+1NGVKp4bzKwGera/Nfjtv9ufTjg2UbCEqn8t1AeRxiGAAAIIIFCrQOdk8b7emZXn7fPl24Vn0P/Nvs3w3RPLVjSZv/q/aszXasPjEEAAAQQQCJXAtdl+OXSz/c0Fy/BCxTq6OfyTeUsk89ahRPb9oTqgNAYBBBBAAIEdBSzrVccnCx+PpYvP2F+4szkow/hne+Z/dHzp2sy/ugKwXgSYl0XCPLKjFb9AAAEEEEAg6AJtE/lf6U4VKsOZSqhn+5uLGPseAEd2CP9NpwK+F/Rjy/4jgAACCCBwvcAp64b2yWW1b3blhc3BKMOfh+ZrCP+XVwMi8dyp6+H4GwIIIIAAAgEUOJZavrdruvCNoSZ+A5+fi4jBTMU6vNfMf9OpgKhmXoqMG68L4KFmlxFAAAEEZBew79K3MdsP6ZX8tRQdQ/ay/9j25/w3lv03h391FUDN/YPsfYj2I4AAAggESKB9wp7t+/+e/LWE934fMzi/ah0ee/ljftuE/G4FgEial1vvP3dLgA49u4oAAgggIJtAW6Z4a1dq+XP9syuXZLiSv5bCYD/hXy0MlIQ+JVtfor0IIIAAAgEQaJss/r59P/uTkp7b36kQGJgvW60Nzvyr4W//FJr5fAC6AbuIAAIIICCDQPeDRqR7qvDQwPzqSzsFoMz/3j+3arU2cM5/c/Bv/rOIG/fK0K9oIwIIIICATwWOTyx97MRM6emTEl/Qt1dh0z9btlqT9V/wtznwt/5ZJPSv+7RLsFsIIIAAAmEVaEsY3etfxDNfubJX+Mn++7718G/sgr+tob/570IzfxrW/kW7EEAAAQT8JCDxzXoaLWLs8N8c2k7/mdsD++kNwr4ggAACIRM4Nl74L92p4mND8+G/H3+jQb/d83pnV6yoAxf87VY0KPHFvwlZd6M5CCCAAAJeCrTPfPP2rqni5wZmy5e2Czf+bfevIo7NrDR15l8tCpSE/m9e9hO2jQACCCAQEoGO8aWPxtKlp04uMNtvtMg54VL420WAUM3vhKTr0QwEEEAAAbcFOsaXOuwL+gbmV7mg7/TuM/u9ioJY2p2Zf3UFQKjGC273F7aHAAIIIBBkgZcv6OudKT3HHfr2F/rVoqDH5fBfXwFI5q8EuRuy7wgggAACLgkcT+Z/t2e6+B37++erwcXP/RcA3emSK+f8qzP/jZ9a3nKp67AZBBBAAIGgCRydLd/BBX37D/mdCqXuaY/C/+UvEWrLFG4OWp9kfxFAAAEEmiVgWQeOj5sf750pXRjhDn1NW+3oTBW9mflv/gbBBx452KxuxOsigAACCARE4NpX7lbWdpqx8u/OrAZ0ejzzr54GiMWzNwWke7KbCCCAAAJOCvCZfWcCvZ7CqMMPM3/7Y4BJrgFw8r3EayGAAAL+F7CsA8fGl/66d6b0LEv87hUA9icm/BL+658C0Ew+BeD/dyt7iAACCOxfoG1y6S1d06XyUIYl/npm7I48duG81TFV8P6c/6bz/0Iznt9/r+IVEEAAAQR8KXAslX1j52Thn/vnyhfv4YK+pl3Qt1eRcHzKBxf8bQr/9RUAVf+uLzstO4UAAggg0LgAt+V1b2l/t/C3T7Ec99nMv3oBoJLQv9R4D+OZCCCAAAK+EbCv4u+ZLlYGWeL3bKa/uRgYOX3eapv017J/Nfztn4qa+zPfdF52BAEEEECgPoH2seWDHVPL/9I/u3KJJX5/zPrtIsDv4W8XAIc++bBSX2/j0QgggAAC3gqcsm44Pln4eCxdfIar+P0T+tXZv/1tiMcmln11wd/mmb/9Z6EZF7ztxGwdAQQQQKBmgeNj+ff0TBcf4yp+/4V+kMLfLgAiau6fa+54PBABBBBAwH2Btkmzp3OqcG5gbvVyNWT46c8CwJ753z2x5OuZf3Ul4JC6+Bvu92a2iAACCCCwq8CdmbOvaZ9cVte/bneh4osL2ig6di86hjN2+Pt72b8a/kIzfrprB+SXCCCAAALuCrSNmx84kS49bocJgbt74PrJxz5eR8eDEf7r5//V3D+527PZGgIIIIDAKwTaJ8w3d6cK+YH51St+CjX2pbYCxA7/I+PBWPbfWAF4wOh7RUfkHxBAAAEEmi9Q/QKevrnyi3x0r7ag9WNBMhTE8NfMp5vfw9kCAggggMA1gc0f3TvNEr8fA72efbLD//BYsGb+9gqAktCnrnVK/oQAAggg0DSB9qnl961/dG/h/Fo9AcNj/bsyMDQfvGX/9eV/LW+JUeNw0zo7L4wAAgjILtA9XujrShX56N5p/4Z4owXW4PxqIGf+Vy/+078v+3uT9iOAAAKOC1x3Xj+EwddoYIbpeVfDPx+Iz/lXL/jb/FNoufsc7/i8IAIIICClwObz+nzVbqg/ujgwV7Zak8E7518tAIRmWtEH87dJ+T6l0QgggIBTAscnC++/ektezuuHaYa/U1sG5lat1rHgzvztIkDRjG841f95HQQQQEAqgY3P63NL3lDP9LcWAf0Bn/lXVwAUVf+oVG9YGosAAgjsR+DobPmOrqni5/i8fvgu5tsa9Nv9vW89/IM987cLAKHlr8Ti2Zv2817guQgggEDoBez78HdNFcZjsyvPneRiPqlm+5uLgN7ZcmAv9qvO+qs/Fc1YDv0blwYigAACjQps3Id/YVXa0NscgDL/uXd2JTThbxcBkUT2fY2+L3geAgggEEqB9inz7V3TpfJQZpWb9LDasV74xWbKVjTgF/xVZ/5Xf5ovtVjWgVC+gWkUAgggUI8AN+mR83x+LSsasZlwzfztAkCJ62freX/wWAQQQCBUAtddzMdMl1Mc2/SBEyEMf7sAODSae3uo3sw0BgEEENhLwL6Yr31yWe2dKT03wk16CP1tQr+6KtCTLoXqnH/1FIDQzBf3ep/wewQQQCA0Ah3jSx+NpUtPnczwjXvVgOPnzqc9etLhW/avFgCKqv9LaN7YNAQBBBDYTqB6Z77hTIWL+XaZ6VIIXF8IdId05r9RAIzqb9ru/cK/IYAAAoEWaJ9Yvrc7VcgPcGc+lvcbKHq6psO57F8Nf6EaPwn0G5ydRwABBDYLdIwvdXSlCmfsO/ONnGaJnxn99TP6Wj26pouhPOdfDX/7p6Iamc3vHf6MAAIIBE7A/prdzsnlub7ZlRdqHeB5XGPBKINbZyr84S+SeSuqLbYH7s3ODiOAAAItm79ml5k+S/wNLPFvLWbsFaOOVCH0M3979i9U4ylGEQQQQCBQAhu34+UKfkLfgdCvFgF2+LdLMPOvngJQVCMeqDc+O4sAAnIKdEyW33r1drxcwV8NLH46ewqjfUqOmf/VAsC0og88clDO0YRWI4CA7wXunsjFulLFc1zB72zQUTi80vP4pEzhby//m9/x/QDADiKAgFwC3I73leFEYDfPZGShYrVJFv72CkAkrv+VXCMLrUUAAV8KcDve5gUcxcPOtiOnz0sZ/tFkfq31/nO3+HIwYKcQQEACAct61fHJwsd7Z1Z+fHKBz+oT1DsHdTNs7Av+jkk487dn/4qqr0owwtBEBBDwm4B9BX/PdPExbsfrbuA1I0SD+pp2wXn35LIUH/WrXvG/+aei6h/y27jA/iCAQEgF2qbz77Cv4B/kHvx8bM/Bj+01UoDY4X9sQq4L/jaHf1TLX2nJZG4I6VBDsxBAwA8C3IOfGX4jAd3M56zP/MflnfnbhYBQjawfxgf2AQEEQiZw9WN7hTMDs+VLzRzIeW2Ki3r7wPBCxTo6IXf42wWAopm/E7Jhh+YggIBXAtHZ5YNdU8XP2V+8U++gzOMJcjf6wHCmYh0dX5L2nP/GKQDNuOTVOMF2EUAgJALVL97pnSk9d9Ljc7puBAjbCG6hMpxZtY4Q/uvFj5LQHwrJEEQzEEDATQH7s/r2x/Zi6eIzfMVucANRpmJmaJ7w35j92zf/Gc39uptjBttCAIEgC2x8217pKXsZVabwoK3BLnIGMxXrMDP/jdMeQjOeD/JQxL4jgIBLAtXP6g/xsT2KngCe4hnKrFqHxzjnv3n2ryRyn3Vp+GAzCCAQNIH2seV38m17wZ71smpx3hqct8M/vzHz3RyCUv9ZzcWCNiaxvwgg0ESBton8b3WnCnm+bY/gD0PxQPhvX/gIzXy6icMIL40AAkER4LP6hH0Ywn5rG/rnV61WZv7brnwoCX0qKOMT+4kAAg4L9IwV2rpShTN8Vp/w3xqcYfj7AOG/bfCvn/LQ8pYYNQ47PKTwcggg4GeBzZ/Vt7/zPAwDPW2ggNnaB/pny1Zrkgv+drq+Qaj69/08TrFvCCDgkID9Wf32yWXVvkHPyAJhsTUs+Hu4+kTfevhvf957p0CU7d+FlrvPoeGFl0EAAd8JbPqs/kk+q89KRwA/ttdIYWaHv2xhXm97hWZa0Qfzt/luzGKHEEBgfwLHJ5f+/ES6+ENCP1yz2kbCULbn9M6usOyf3HvlQ1GNb+5vlOHZCCDgGwFu0EPYyxb2W9sbm1lh5l9D+NurBYqqf9Q3gxc7ggAC9Qu0Teff8fJn9a9sHQz5OwWBTH3gBOFfc/EjtPyVWDx7U/0jDs9AAAFPBdonlu/lBj2Eu0zhvldbY2lm/vVcA6Co+pKngxgbRwCB2gW6xwt99mf1B2bLl/YaDPk9xYFMfaCH8K955l8tEiKJ7PtqH314JAIIuC7QMb7UsXGDHj62xxX8klzBX0/xQvjvfbFfNfSv/TRfarGsA64PaGwQAQR2Fzg6W76jc3J5rm925YV6BkIey6xftj7QPV2qe+Z7LQQbCc5wPEeJ62d3H4X4LQIIuCZw/V35CDLZgoz21t/nO1NFwr/Gq/23Fj2HRnNvd21wY0MIIPBKAfuufMcnCx+PpYvPjJzmVryEYP0hKKtZJzP/hosfoeVffOVoxL8ggEDzBbgrH+fxOY+/rz7Qwcy/4fC3VwKUeO6LzR/o2AICCGwIdIwvfTSWLj01zK149zX4yzrjpd3nLXuVjPDf/zUIyqj+po2BiT8ggEBzBDbuyrdQWWMAZ3mbPrCPPrBw3uqYKuxr5rv1PLiMfxdJ80JzRjteFQEEWtqnlt/XM118bDBD6BN4+wg8ThNct1J0fIoL/hwpWFRjnmEaAQQcFOiYLL+Vu/IRdhQ8zvcB+yurjzPzd2TlQ9ifGNAW2x0c+ngpBOQUaJtceguh7/yAT4hiWu0DIwsVq21y2ZHwc2T23OBH7vyybaEZT8o5WtNqBBwQuHsiF+OufARUNaD42by+MHL6vNU2yTl/J4sHkciNOjAM8hIIyCPQM1Zo654qPNQ/W754D7five68LAHYvACU2fbkQsW6m5m/sysfWt46lsq+UZ6Rm5Yi0KDA9Xfl4wY9MocRbXe3yLHD/9gEy/5Ozvzt1xKq+Z0Gh0OehkD4BXrG9DfY99/vnSk9Z194xMCPAX3A3T6wPvOfWHJ25hvw8/ZOFQKRuP5X4R/FaSECdQhcuxVv6Sl78GHAd3fAxxvvah+wb5B1NzP/ZhU/a633n7uljqGRhyIQUoFNt+IdXlgl9Pm8OX3A4z5gh//RcZb9nZrtb30dRTXKIR3NaRYCtQls3JWPG/QQeB4HXnXWy8/z1nBm1ToyzrL/1tB28u+Kqn+otlGSRyEQIoFrob/KrXgJPQofn/UBe+ZP+O//3v67Fgta/kpLJnNDiIZ1moLAzgLtU+bbX75BzxVmWJxjpg/4sw8MZSrW4TFm/ruGtwMXMArVyO48WvIbBEIg0D6xfC935fPnQE8Ac1y29oGheWb+zQ7+6usrmvk7IRjiaQIC1wtU78o3MFu+tHWA4e+EDn3An31gcH6Vmb8DM/tqwO/6UzMuXT9q8jcEAizQMb7UsXErXp+dzyRw/Bk4HBf/HJer4d/kc95uhWsAtqMk9IcCPNyz6wi0tBydLd9h36Cnb3blBQZz/wzmHAuORT19YGCubLUmOee/64zd4aIiMpr7dTIEgcAJcFc+wqWecOGx/u4vA3OrVusYM383w19oxvOBG/jZYXkFrt2Vr/gMd+Xz94BO4HJ8au0D/cz8m3V3v11fV0nkPitvmtDyYAhsvitfhlvx1jqo8jgCOAh9oG89/Jn5uznz39iWmosFIwTYS+kE7Bv0nEiXHrdvBBKEgYx9JHDpA/X1gf7ZMsv+Dp/T3wj3PV5XqMbT0oUKDfa3wLW78lW4Kx+fYKDwC3Ef6J1d2XV5utYg43GNrZ4oanbS32nA3kkh0Da19Hs904VvDs5zK15mkPXNIPEKpldshqv9PS1ctLx16JMPK1IEDI30n0Db5NJbuCtfMAdvQpfjtp8+EJth5u9p+CfzllD1J/yXCuxRqAXaEkb3xg16FhhE9zOI8lz6TxD7wAnC3xenPYS6+PehDhsa5w8BbtBDUAUxqNhn5/ttT7rki/Dzevbt9fZFMr92Rzz7en8kBHsROgFu0OP84EkgYRrkPtCTZtnf6+Cvbl+o+qOhCx0a5LHAps/qc4MewirIYcW+O9t/u5n5+2rlQxnNfsTjtGDzYRHgs/rODpaED55h6gNd0yz7V2fefvgptPyVyKkzN4Ylf2iHBwLHJwvv75kuPjaU4bP6YRqsaQvFh5N9oGu66KuZrx8C2Ot9UFR9yYPIYJNBF2ibyP8WH9sjIJwMCF4rvP2pM0X4ex32220/ksi+L+hZxP67JNA9XujrShXPDcytXmawDu9gzbHl2DrVB0ZOV6yOVIGZ/x634d0unJv/b+ZLLZZ1wKX4YDNBFOgZK7RtfFY/xLchdWrA43UIT/rA1T5gh387M3/fFj9KXD8bxExin5ss0D7zzds7J5fnemdKz40s8MU7DOiEOn2g/j7QPsXMv/mz+Mbu+2/v16HR3NubHCW8fFAE7sycfc3xycLHY+niM3blzoBX/4CHGWb0gat94Pgk4e/n8Bda/sWgZBP72SyBTZ/V5yt2CS/Ciz6w3z5grxi2Ef6+XfavFiVKPPfFZsUKr+tzAb5il4F+vwM9z6cPbe0DI6fPE/6+vNjvlacJlFH9TT6PKXbPSYG26fw7uqZL5UE+q8/pDS7mpA843AdGFs5bx5j5+37mb68AiKR5wcls4bV8KsBX7DJL2zpL4+/0Caf7gH2r77snlwMRftUlcKl/qsa8TyOL3dqvgH0Ff0dq+YsDs+VLTr/ReT3Cgz5AH9jcB9bDf4LwD0pBIZJ5q3VMb9tvzvB8nwl0P2hE7DvzcTEfA/TmAZo/0x+a1QfWw3+c8A9K+Nv7KTTjSZ9FF7uzL4FT1g32jXoIfgb6Zg30vC59a2sfGF6oWEeZ+QfutIdI5Eb3lTc82T8C9pfwDM6Vr2x9c/J3Bmz6AH2gWX3AnmwcGV8KXPgFaabelH3V8taxVPaN/kkw9qRhge500bA/dtOsNzmviy19gD6wtQ9cDX+W/ZsS0E3+CKFQze80HDg80R8C9kV+vTOln2x9Y/J3Bmv6AH2gmX1gaH6VmX+TQ7qZhUUkof+lP1KMvWhIwP42voH5VZb8Wflg5Yc+4GofWA//MZb9mxnQzX1tc631/nO3NBQ8PMl7gbax4i8Pzq+uNbPC57WZQdIH6ANb+8DgfMU6TPgH+poHRTXK3qcYe9CQgP2VvIPzFWb+zPpcnfVtDQL+Ll9xMDi/ah0ee+WtZJs7W2V7TvuKeO6PGgofnuStQM+Y/oaB+dWXGHzlG3w55hxzL/vAwHr4s+zvdBi7/XoiaV5uOWW92tskY+sNCcRmSs94OQiwbUKIPiBfH+ifX7VamfkHetm/WmgoqrHYUPjwJG8F7Bv8MPjKN/hyzDnmXvaB/jk7/Jn5VwM06D8Vzfwdb5OMrdctYH+Rj32rTS8HArZNENEH5OoD/XNlqzVJ+Ac99Df2XzMu1R0+PMF7gf7Z8kUGX7kGX443x9vLPtA3Ww7FkvdG+AX4M/tOtUFJ6A95n2bsQV0CnanigpcDAdsmiOgDcvWB3tkVwj+EBcPBuPnmusKHB3sr0PbAmZsHMxU+789H/jj9Qx9wpQ/Y4c+yf/g+eig046fephlbr1uga6rwFWZfcs2+ON4cb6/6QGyGmb9Ty+1+ex0lkfts3QHEE7wV4IY/hIFXYcB25ep7Jwj/cJ/2UHMxb9OMrdcl0DlZvI9BWK5BmOPN8faiDxD+4Vvy37wCITTz6brChwd7L9A7W37Wi8GAbRJC9AF5+kBPmmX/zWEZxj8ranbS+0RjD2oWsG/5O3Kaz/0TRPIEEcfa/WPdnS6Fe9k7hFfy112gaHnr0CcfVmoOHx7ovUD75LLKgOj+gIg55rL0ge5pwr/uMA1gQSFU/QnvE409qEugZ7r4A1kGItpJ6NIH3O0DXdNFZv4BDPNGChah5e6rK3x4sPcCg/OVywyK7g6KeOMtQx/oZOYvTfEjkvm1O+LZ13ufaOxBzQL2zX84/08YyRBGtNHdft6RYubfyCw6qM8Rqv5ozcHDA/0hcHyy8H4GRncHRrzxDnUfWDhvdUwVpJn5BjWwnd5vRdU/6o9UYy9qFuiYKqRDPRhxS1dXbulKH6KoWe8DhL+UhY/Q8lcip87cWHPw8EB/CHSmCosM3gze9AH6wH77wMjCees4M38pCwBF1Zf8kWjsRV0CJ6YL39jvG5/nEx70Abn7AOEf7rv77XW6IBLPvbeu4OHB/hDoSRe/y+At9+DN8ef476cPjCxUrLbJZSlnvnsFoxS/18yXWizrgD8Sjb2oS4B7ADD472fw57ly9x975t82QfhLEfQ73MtAietn6wodHuwfAVYA5B7ACXCOf6N94ORCxTpG+Eu/8hHRjLf5J9HYk7oEulPFRxsdAHge4UEfkLMPEP5yn/PfWPHQzJ/VFTg82F8CfApAzgGc4Oa4N9oH7PC/m5m/9DN/uwhQ4rkv+ivR2Ju6BLgPAEHQaBDwPPn6znCG8N+Y/e5wTlym39+VzI7UFTg82F8CbePmBxjI5RvIOeYc83r7gB3+R8e54E+mgN+trSJpXvBXmrE3dQvE4tnX8l0AhEG9YcDj5eozw5lV68j4EsvezPo3+oASz83VHTg8wX8Cg/OrfBsgtwzmlsH0gW37gD3zJ/y56G/zaoBI5q3WMb3Nf2nGHtUtEEuXfsCMTq4ZHceb411LHxiar1iHmflvzHo3h6DMfxaq8VTdQcMT/CnQPrms1jIY8BhCgz4gTx+ww5+ZPzP/7QodkciN+jPN2Ku6BdoyxVu5DkCegZ0Q51jv1QcG51etw2OE33bhJ/2/aXnrWCr7xrqDhif4V6B3ZuXCXoMCvyc46APh7wOEP4XPbkWOUI1v+zfJ2LOGBDoni/cxuId/cOcYc4x36wMDc2WrNcnV/rsFoOy/iyT0v2woZHiSjwUs61WDmfLaboMDvyM86APh7QP96+HP7Ff2gN+9/eZa6/3nbvFxkrFrjQp0The/xAAf3gGeY8ux3akPXA1/Zv67hx/FkaLqK43mC8/zuUDbA2duHsqssgrA58G3/Tz4TuHBvwe7sOifLVutXPDHR/1quMmRouof8nmMsXv7EeicXJ5jQA/2gM7x4/jV2gcIf2b1ta56iKR5uSWTuWE/+cJzAyDQP1u+WOsAwuMIG/pAMPtA72zZijLzZ+Zfw8zfLhKEamQDEF/s4n4F2iaX3mJ/5ScDezAHdo4bx22vPhCbIfxrnfnyuKsbQQreAAAgAElEQVSrJMpo7t37zRaeHxCB7qnCQ3sNIvyeoKEPBK8PnJhZYdZb46yX8K+eIjEvBiS62E2nBGLp4jMM8MEb4DlmHLOd+gDhXw00ftZT3CiqfsapXOF1AiLQM6a/YWCObwrcaTDl3wnaIPWBnjQz/3pCj8deK5IOxs03ByS22E0nBXrGCm0D86tXgjTQsa8EM33g+j5A+F8LM4K9Pguhmc87mSm8VsAEjk3qvzo4z/0BCJXrQwWPYHh0TZc45885/4b7gJLIfTZgkcXuOi3QljC6B+Y5HUDoBSP0OE5XjxPhX99sl9WBbbzUXMzpPOH1AijQMbYkemdXfsrgSgjSB/zfBzqniw3P+gjCbYJQwlUEoRpPBzCq2OWmCVjWq3qmi0UCwP8BwDGS9xh1pAh/ipj9FzGKmp1sWpbwwsEVaE8X/3BwrszFgXxvADeM8lEfGDldsTpSBWb+Es7WHS94tLx1MJ6NBjel2POmCsTi2dd2p4sGdw2Ud6bJKoOPjv3Ceat9ipm/40EoaTEhVP2JpgYILx4OAfsCwZ7p0rdPLvhoMPTRrIyQpF+40QeOE/6sfDhYrAh18e/DkVC0whUB+yLB7lRJH5jjvgFuDPhsg8LC7gMjp89bx6dY9mfmv/9z/lVDkcyv3amdvdWV4GAj4RM4PlX4o76Z8k8IKUKKPtC8PjCyULHaJgn/anDx05kiQNGMb4QvlWiR6wInppff3TdbvkAINC8EsJXT1p75E/7OBB6Fw/WOymj2I66HBRsMr0DXRPG/UQjIGVQUKM4fd/vC22MTy5zzdvCcN0XA1SJAaPkrkVNnbgxvGtEyzwQ608v/o3+OmwkRis6HoiymdvjfTfhT/DSp+FFUPe9ZQLBhOQS6pgt/2j+38qIsgzbtJPCd6ANXZ/6c82e2fv2SvZMekXjuvXKkEK30XKBjovSR/vkyhQAfW+SGQnv0gfWZ/zjL/k6GHa+1pZDQzJdaLOuA58HADsgl0JUqfHxgrnzJiVkSr8FsO2x9YHihYh1l2Z9l/yYt+1cLIZHQvy5X8tBaXwl0Ti7fN8i3DjIb3mM2HLaA3609w5mKdXR8ifBrcvhVQ1DmnxHNeJuvAoGdkVDAsn6uc3r5waH5yuXdBkZ+x0w/7H1gKFOxjhD+FD9uFD+a+TMJ04Ym+1bglHWga2p5eihT4UuHmBFLtyoyNL9K+LsRfGxjvcCKqLl/9m0WsGMSC2wUAqtrYZ/x0T5WNew+MJipWIeZ+TPzd7E4uSuZHZE4ZWi63wVav3D+P3RPFj47nKEQoFAIb6EwlFm1Do9xzl/mc/Fut11oxgW/j//sHwLrAnd+4ruv6Z4ufenkQoUVAU4NhOrUwOC8Hf5bPprl4izQ7eBhe/441ko8N0e8IBAogTviT9xkFwL2VdLMiMM7I5bl2BL+/ghD2YoSkcxbrWN6W6AGf3YWgapAbGb19T0zpa8PZ1YpBFgRCGQf6J9ftVqZ+XPO34PVHqHqT1bHUn4iEFiBe8b0N/Skiw/bd0yTZdZIO4O/8jFA+BP8HgR/daVDqNkHAzvos+MIbBUY+Ow3b+9OF3UKgeCHY9gLnP65stWa5IK/ahjx0/3TIIq6fPvWMZS/IxB4gR5NP3QivZKnEKAQ8GMh0bce/u4P+IQs5tU+IFT924Ef6GkAArsJ9KbKR2MzpdURTg1wasQn10j0zq6w7O3hsnc1AGX/qai5v9ht7OR3CIRGoGe60BZLr3xj5DTXCPhxRizLPvXOlq0oF/xRAHleAJlrrfefuyU0AzwNQaAWgVhmqeNqIcDSuCyh65d2xpj5E/yeB//VUyCKqpdqGS95DAKhFOgYW/rF2MzK90YWKAT8EpBh3o8TMyz7y77k7qf2i/jiB0M5sNMoBOoRaE+t/MdYuvjDeygEuEagSdcIxNKEv5/CT/Z9EUnzcksmc0M94ySPRSDUAh2TS79qFwJcI8CKiJMrET2EP8v+Pln2rxY+imoshnowp3EINCrQNVH8z30zpaedDAFeS86igvDnI3fV0PXTT2U09+5Gx0eeh4AUArHplXf1zZYvEN5yhvd+j3v3dImZr89mvn4KYc/2RTMuSTGA00gEnBDonC78VwoBioB6CoKu6SLhT/j7sg8oqn7GiXGR10BAKoGO1NJ/759b+Wk9QcBj5SscOpn5+zL4PJtx+6wQOhg33yzVwE1jEXBSoHu69Mf9cysvEu7yhftux9y+eLQjxcyfoPXvdQ9CM593cizktRCQVqBzauXD/fNlCoEmfXRut7D12+/s8G+fIvwJf/+Gv31sFNX4v9IO2DQcgWYIdKVLfz4wX77ot1Bif9xboTg+VWDZ22dL3RQj2xQjai7WjDGQ10RAeoGuVOETg/Orlwhe94LXD9bHmflT/ASg+BGa+WPpB2kAEGiqgGX9XGdq+dND86uX/RBO7EPzihH7FtLM/LeZZQYgDGVcHVDi+kRTxz5eHAEEXhY4ZR3oShW0ofnKFUK4eSHsla391dJtk8vMfAn7YPQBLW8djGejjM8IIOCmgF0ITC1PD2UoBLwKa6e3O3L6vNU2yTl/GWfRQW2zohqPuznssS0EENgkEItnf75rujQ3lKmsOR1IvJ57KwwnFyrWsQlm/kENQln3W8SNT2wajvgjAgh4IRA5860bu1PFzw8vUAgErXAh/DnfH8QCQiTza3dqZ2/1YrxjmwggsI3AHfEnbuqeLn1peOE8KwIBuI+AHf53M/MPxvlurku47jgJVX90myGIf0IAAa8FWqd/fEtsunRmOLNqBW1GLMv+DmcI/yDOfNnnqys2ipr7M6/HObaPAAK7CNwzpr+hJ1182J5pyhKsQWinHf5HxznnT5gG8/SH0PJXIqfO3LjL0MOvEEDALwLDn3n0tu50UacQcO/Cvp0KEXtV5sj40nXLqQRhMINQ1uOmaIbpl7GN/UAAgRoF+maXD55Ir+Tte8zvFFD8e/OKBHvmT/gT9kEvHJSE8Qc1Djk8DAEE/CbQNblyJDZTWrVvPEPgNy/wN9sOZSrW4TFm/kEPP+n3XzNfarGsA34b09gfBBCoU+DEVOVYLL3yDVYEmlsEDM0z85c+OEPyKQKh6l+rc5jh4Qgg4GeBvnSlO5Zeecy+G93mWSt/3r/H4PwqM/+QhB9FTN6KaMbb/DyWsW8IINCgQP9subd3pvSdexb2H3wUD+etq+HPOW+CMxx9QKjGCw0OLTwNAQSCItCdWv6PvenSExQCjRdCA3NlqzXJOX/CPxzhbx/HSML4QlDGMPYTAQT2KdA5VfzlWLr4Q64RqK8QGJhbtVrHwjPwE+IcS7sP3JXMjuxzSOHpCCAQNIETM4Xf7J1ZeYpl/b0LgX5m/tzjIITXPAjNuBC0cYv9RQABBwW6p5be1TdXfoZCYPtCoG89/JktsmIQvj6gxHNzDg4lvBQCCARVoCdV+N2+2fIFCoFrhUD/bJll/xDOfClm8pZI5q3WMb0tqOMV+40AAk0Q6Jpefl//XPk52QuB3tkVK8o5f5b+Q1oACVV/sgnDBy+JAAJhEOhOlf7nwFz5BRkLgdhMmfAPafAx+796KkOo2QfDME7RBgQQaKJA12ThT/vnyy/KUgjEZlaY9RL+oe8Dirp8exOHDV4aAQTCJNCZWj41OF++GOZC4AThH/rgYwUgbwlV/3aYxibaggACLgl0TS3/3eD86qWwFQI96RLhx8xfij6gqLm/cGm4YDMIIBA6Acv6ua508ZND85XLYSgEetIs+zMzDt/H/LY/puZa6/3nbgndmESDEEDAZYFT1oGuVEEbzgS3EOhm5i/FrHf7MJQl9K+1U1H1ksujBJtDAIFQC7xcCAxlKleCtCLQNc2yP8F4LRxlsBDxxQ+GeiyicQgg4I1ALJ79+a7p0txQZnXN74VA13SRmS/n/KXqAyJpXm7JZG7wZnRgqwggIIVAW6ZwQ0+69A/DCxVfFgKdKcJfhtkubbx+dUNRjUekGIBoJAIIeC8QOfOtG7tTxc8PL5z3RSFgfwNiR6og1ayPELw+BGX2EPHsu7wfFdgDBBCQSiAW/8ZrY9OlM16uCNjh3z7FzF/mAJS67Zp5UapBh8YigIC/BLrHv/W6E6niV08uVCy3rxFon2LmL3UASn69g0jkvuKv0YC9QQABKQWGP/PobT3p4sNuFQLHJwl/wl/uUwEH4+abpRxsaDQCCPhToG92+eCJ9Ep+pEkrAvbrthH+XPMg++xfM5735wjAXiGAgPQCw+nSod6ZlYKThcDI6fOEv+TBx6rH1VWPSCL3j9IPMgAggIC/BTpT5aOxmdLqfgsB+9TCsYllZr4UAPQBuw+ouZi/3/nsHQIIIPCyQF+60h1Lrzw2snC+7osF7fC/m/An+Ch+1vuAUI0fM7AggAACgRPony339s6UvnNPjYXA1Zk/F/yx9C33BX+bj39EzY0F7o3PDiOAAAJVgY4p/Rd706UndisEhjMV6+5xlv03D/78WfJCQMtbB+PZaPV9xE8EEEAgsAInUsVf751Zecq+qc/m+wgML1Ssoyz7s+zPsv91fUBRjccD+2ZnxxFAAIHtBLpTpXv7Z8s/sosAe+Z/dHzpuoGPma/kM18Kgavn/+PGJ7Z7//BvCCCAQOAFemcL7zicNPVo0qQAIPToA5v6gEjm1+7Uzt4a+Dc5DUAAAQR2E2hV84NKQjcpBJj5s/pztQ8IVX90t/cMv0MAAQRCJXAomf0le+AjBCgEZO8Dymj2I6F6c9MYBBBAoBYBkdArsgcA7Ze3CBJa/krk1Jkba3mv8BgEEEAgVALrKwGbzocShvKGoYzHXtEMM1RvaBqDAAII1COgqMY3ZRz8aTPFjpIw/qCe9wqPRQABBEIlcEhd/A3CkDCUrg9o5kstlnUgVG9mGoMAAgjUKyBU49vSBQCnPqT+OKBQ9a/V+z7h8QgggEDoBBQt95sUAKwCyNQHIprxttC9kWkQAggg0IiAfTtUmQKAtspb8AjVeKGR9wjPQQABBEIpEFVz7yQU5Q1FmY59JGF8IZRvYhqFAAIINCogVPMHMgUBbZWz4LkrmR1p9D3C8xBAAIFQCiijuXcTinKGoizHXajGs6F889IoBBBAYL8CQjWekiUMaKd8xU4kkZvd73uE5yOAAAKhFLBvjkIwyheMMhxzkcxbrWN6WyjfuDQKAQQQcEJAaObTMgQCbZSr0BGq8UMn3h+8BgIIIBBaARHP/RHhKFc4ynC8I6r+6dC+aWkYAggg4JSAfbGUDKFAG+UpdBR1+Xan3h+8DgIIIBBaAZHIfphwlCccw36shao/Fto3Kw1DAAEEnBYQSfNC2IOB9slR5Cij2Y85/f7g9RBAAIHQCkTiuVMEpBwBGe7jbK61ZQo3h/aNSsMQQACBZggIzXw+3OFAwIf9+CqqXmrGe4PXRAABBEItEInrfxX2gKB94S6CRHzxg6F+k9I4BBBAoCkClnUgqpk/IyTDHZJhPb4iaV5uyWRuaMp7gxdFAAEEwi4g1MW/D2tA0K5wFzaKajwS9vcn7UMAAQSaJ3DKerVgFcCiWAhesSDi2Xc1743BKyOAAAISCNh3USMAgxeAUh8zzbwowVuTJiKAAAJNFshkbohq5kWpAyVJARCk4y8Sua80+V3ByyOAAAJyCCgJXQtSALCvchcsB+Pmm+V4Z9JKBBBAoNkC66sAxiWCVe5gDcLxF5rxfLPfDrw+AgggIJWAohqpIAQA+yh3kRJJ5P5RqjcmjUUAAQSaLRCLZ2+KauZLBKzcAev746/mYs1+L/D6CCCAgHQCUdWY930AcMGetB9bFKrxY+nelDQYAQQQcEOg9f5ztwjNvEwRwCqAH/tARM2NufE+YBsIIICAlAL2OVY/Dv7sk+xFiWkpn9IPSfmmpNEIIICAGwKRceN1US1/hcCVPXD91X5FMx53o/+zDQQQQEBqAZEwPkcB4K8AlP54qPrfSf2mpPEIIICAGwLRB/O3CVYBpL3YzofFxtqd2tlb3ej7bAMBBBCQXkBJ6F/yYRAQyhJ+CkKo+nnp35AAIIAAAm4JHJk8+wvRpLlGEcCpAK/7gEhkP+xWv2c7CCCAAAItLS1KQn/I68Gf7ctdgNinoiKnztzIGxIBBBBAwEWB6AOPHIwm86wCSLjs7pfCS0nopotdnk0hgAACCFQFREL/ul/CgP2QbzVAiWffU+2L/EQAAQQQcFFAjBqHBasAXHzowSqI0MxLLZZ1wMXuzqYQQAABBDYLKKrxMLNv+WbfXh9zoepf29wP+TMCCCCAgMsCUW2x3eswYPvyFSARzXiby12dzSGAAAIIbBVQVN0ghOULYa+OuVCNF7b2Qf6OAAIIIOCBQCTxSHdUIwC9CkTZthtJGF/woJuzSQQQQACB7QQUzViWLYhorzdF313J7Mh2fZB/QwABBBDwQCASzw6wCuBNIMpUiAjVeNaD7s0mEUAAAQR2E1BUfUWmMKKt7hc8kURudrc+yO8QQAABBDwQiCYeGSYU3Q9FWcxFMm+1jultHnRtNokAAgggsJeA/e1ssgQS7XS32BGq8cO9+h+/RwABBBDwSOBQMvtL9kyNcMTA6T4QUfVPe9St2SwCCCCAQC0CQjO+5fTgz+tRUCjq8u219D8egwACCCDgkYCIG/cS2AS2k31AqPpjHnVnNosAAgggUI+AUPXvOhkAvJbcBYUymv1YPf2PxyKAAAIIeCQQGV18K6Etd2g7d/zNtbZM4WaPujKbRQABBBCoV0Co+hPOhQBhKqul0IxivX2PxyOAAAIIeCggRhd/W9bQot3OFWwRVf9DD7sxm0YAAQQQaERAqPqThKFzYSibpUial1tOWa9upO/xHAQQQAABDwVEQv992UKL9jpX8Ciq8bCH3ZdNI4AAAgjsRyCqGT8iFJ0LRZks7dNI++l7PBcBBBBAwEOBSDz3XplCi7Y6VOxo5kUPuy2bRgABBBBwQkBo5jMEo0PBKMmtloWa+7ITfY/XQAABBBDwUEBR9Q9RAFAA1NMH7lIXf83DLsumEUAAAQScEhCq8Ww9AcBj5S0YhGY871S/43UQQAABBDwWUNTcnxHq8oZ6Pcc+ksj9o8fdlc0jgAACCDgpYM/s6gkCHitpwaDmYk72O14LAQQQQMBjAftLXQh1SUO9xosXhWr82ONuyuYRQAABBJohwCoABcBuRWBEzY01o9/xmggggAACHgso8cW/2S0A+J3MBYJpKZ/SD3ncRdk8AggggEBTBCzrQFQzf0bQyxz027dd0YzHm9LneFEEEEAAAX8ICC13HwXA9iEotYuq/50/eih7gQACCCDQHIFT1quFZr4oddjVeFGcREZrd2pnb21Oh+NVEUAAAQR8IyASuVGJws2irbuveAhVP++bzsmOIIAAAgg0USCTuSGaNC8SjLsHoyw+IpH9cBN7Gy+NAAIIIOAnAfsjX7IEHO3cudARWv5K5NSZG/3UN9kXBBBAAIEmCsTi2ZuEZr5EOO4cjjLYKAndbGI346URQAABBPwooCRy0zKEHG3cuchR4tn3+LFvsk8IIIAAAk0UsFcBoqwCSHuRoNDMSy2WdaCJXYyXRgABBBDwq4CiGhlmyDvPkMNsoyRyX/Vrv2S/EEAAAQSaLBAZN14nkublMAcdbdu+wImMLr61yd2Ll0cAAQQQ8LOAksh9lpDcPiTD6iJU4wU/90n2DQEEEEDABYE74tnX2x8HC2vY0a5XFjdCNT7vQtdiEwgggAACfheIJIwvEJSvDMqwmtyVzI74vU+yfwgggAACLghEH8zfxiqAHAWA0IxnXehSbAIBBBBAICgCIq7/a1hnvLTrWnETSegzQemT7CcCCCCAgAsCRybP/kI0aa4RltfCMowWImEecaE7sQkEEEAAgSAJKKr+/8IYerTpalEjVOOHQeqP7CsCCCCAgEsCyqf0Q9FknlWAZDhXASKq/mmXuhKbQQABBBAImkA0of87M+ZwFgCKunx70Poj+4sAAggg4JKAGDUOizFWAcJWBAlVf8ylLsRmEEAAAQSCKqCoxmLYAlD29iij2Y8FtT+y3wgggAACLglEtcV22QMzXO0319oyhZtd6j5sBgEEEEAgyAJKQjfDFYLhPK9fyzESmlEMcl9k3xFAAAEEXBSIJB7pjiZNq5aA4TH+Li4iqv6HLnYdNoUAAgggEHQBkTAKhLu/w32v42N/3XPLKevVQe+L7D8CCCCAgIsCkXh2IKoFOwD3Csiw/15RjYdd7DJsCgEEEEAgLAKKqq+GPSTD3D4xuvjbYemLtAMBBBBAwEWBSEL/RRHSO+OFOfjX26aZF13sKmwKAQQQQCBsAkLVHw19WIawyBFq7sth64u0BwEEEEDARYG7RvVfoQAI3rUQd6mLv+ZiN2FTCCCAAAJhFLBvJUsREJwiQKjmc2Hsh7QJAQQQQMBlARE37qUACE4BEEnkPuNyF2FzCCCAAAJhFYiqxvcoAoJRBLQ+uNgT1n5IuxBAAAEEXBZQNOM/UQAEoADQjB+53DXYHAIIIIBA2AUUzfw+RYC/i4BIIpcMez+kfQgggAACLguIePZdFAB+LgBMS/mUfsjlbsHmEEAAAQRkEBCa8SRFgE+LANX4ngx9kDYigAACCHggoMSz76EA8GcBoCRyf+tBl2CTCCCAAAKyCAjV+DFFgO+KgLU7tbO3ytIHaScCCCCAgAcCkXjuvRQA/ioAREKveNAV2CQCCCCAgGwCQjOepQjwTxEQSeh/IlsfpL0IIIAAAh4IROK5P6YA8EcBILT8lcipMzd60A3YJAIIIICAjAJCMy5QBHhfBCgJ3ZSx/9FmBBBAAAGPBBRV/ygFgA8KgHj2PR51ATaLAAIIICCrgNDM5ykCvCsChGZearGsA7L2P9qNAAIIIOCRgKLm/oICwLsCQEnkvurRoWezCCCAAAJSC1jWAaEZP6UI8KYIiIwuvlXq/kfjEUAAAQS8E4iq+t9RALhfAAjVeMG7o86WEUAAAQQQWF8FMH9GEeBuESBU4/N0PgQQQAABBDwVUBL6JykA3C0A7kpmRzw96GwcAQQQQACBlkzmhqhmXqQIcKcIsO/ESK9DAAEEEEDAFwKKasQpANwpACIJfcYXB52dQAABBBBA4OVVgEsUAc0vAkTCPEKPQwABBBBAwDcCSlyfoABobgEgVPMHvjng7AgCCCCAAAK2QCyevSmqmi9RBDSvCFDixqfobQgggAACCPhOIJLIzVIANLEAUJdv991BZ4cQQAABBBBovf/cLSJpXqYIcL4IEJrxLXoYAggggAACvhWIqLl/oABwvgCIaPr/9u1BZ8cQQAABBBCIjBuvYxXA6QLAXGvLFG6mdyGAAAIIIOBrAaHm/olVAOeKAJHQi74+4OwcAggggAACtkD0wfxtQstfoQhwpghQRvUP0LMQQAABBBAIhIASz32RAmD/BYDQjMstp6xXB+Kgs5MIIIAAAggo6vLtIskqwH6LICVhnKM3IYAAAgggECgBkch9Zb8BKP3z1dw7A3XQ2VkEEEAAAQSiDzxyMJrMr0kf4skGTwVo5kV6EQIIIIAAAoEUUBK5r1IANFYACDX35UAedHYaAQQQQACBg/FsVLAKYDVSBN2lLv4aPQgBBBBAAIHACiiq/u+NBKDMzxGq+VxgDzg7jgACCCCAgC1gf4e9GONagHoKmkgi9xl6DwIIIIAAAoEXEKqRrScAZX9s64OLPYE/6DQAAQQQQAABRc11RrXGLoaTrhjQjB/RYxBAAAEEEAiNgKLqeenCvIGPAEYSuWRoDjoNQQABBBBAQDxg9EWTZkNXxMtTOJiW8in9EL0FAQQQQACBUAkIzSjKE+YNnPJQje+F6oDTGAQQQAABBGyBVjU/yLUAOxcGSiL3t/QUBBBAAAEEQikgVGOVVYBti4C1O7Wzt4byoNMoBBBAAAEEDiWzvyQauDgu7EWDSOgVegcCCCCAAAKhFlBU45thD/R62xdJ6H8S6oNO4xBAAAEEELDvc19vQIb58ULLX4mcOnMjPQMBBBBAAIHQCwjV+HaYQ72etimqboT+gNNABBBAAAEEbAFFy/1mPSEZ5seKhP779AoEEEAAAQSkEVA04/EwB3tNbdPMSy2WdUCag05DEUAAAQQQiKq5d9YUkiH+1ICS0P+NnoAAAggggIB0Aopm/EDmIiAyuvhW6Q46DUYAAQQQQEDEs++StQAQqvECPQABBBBAAAFpBYRqPCVjESASxuekPeg0HAEEEEAAgUg8914ZCwD7uxE4+ggggAACCEgtIFTjaamKAM34kdQHnMYjgAACCCBgC4j44gdlKgBE3PgERx4BBBBAAAEE7CJAM56VoQgQmnG5LVO4mYOOAAIIIIAAAhKtAijx3BwHHAEEEEAAAQQ2CQjNeDLMqwBCM1+KjBuv29Rk/ogAAggggAACIm7cG9XyVliLACW++DccZQQQQAABBBDYRsC+PW4YCwCh6k9u01z+CQEEEEAAAQRsgVg8e5PQjAshKwLWxANGH0cYAQQQQAABBHYRiKq5mNDyV8JSBAhN/+tdmsuvEEAAAQQQQKAqYN8bQITgmwCVhP5QtU38RAABBBBAAIEaBBRVXwjyKoBQ9cdaLOtADU3lIQgggAACCCCwWSCS0GeCWATYX3VsX8+wuS38GQEEEEAAAQTqEIgkcrOBKgJU43ut95+7pY4m8lAEEEAAAQQQ2E4goubGglAEKJqx3JLJ3LBdG/g3BBBAAAEEEGhA4FAi+/6oZvr00wGmpajZyQaaxVMQQAABBBBAYC+B1jG9Taj69321GqCZPxOji7+9177zewQQQAABBBDYp4ASNz4lkuZlrwsBkch9hYv99nkweToCCCCAAAL1CBxLZd/48q2D19wsBOz7EwhVP8/d/eo5WjwWAQQQQAABhwUOxrNRoea+3OwVAZHMrymaYSqj+pscbgIvhwACCCCAAAKNCkROnblRGc1+TCT0b2xANagAAAEpSURBVEWTeYdWBUxLqMZTIpEbjT6Yv63RfeN5CCCAAAIIIOCCgH1ePpLIvk/E9X9VVONxoZmXajlNYK8i2IGvJHJfjai5/3VHPPt6F3aXTSCAAAIIIIBAswTWi4J4dkAZzb3b/q6BSDz3x4qqf8j++12j+q9w855myfO6CCCAAAIIIIAAAggggAACCCCAAAIIIIAAAggggAACCCCAAAIIIIAAAggggAACCCCAAAIIIIAAAggggAACCCCAAAIIIIAAAggggAACCCCAAAIIIIAAAggggAACCCCAAAIIIIAAAggggAACCCCAAAIIIIAAAggggAACCCCAAAIIIIAAAggggAACCCCAAAIIIIAAAggggAACCCCAAAIIIIAAAggggAACCCCAAAJ7Cvx/0T5YGVgsWD4AAAAASUVORK5CYII=;" vertex="1" parent="1">
          <mxGeometry x="491" y="302.88" width="15" height="15" as="geometry" />
        </mxCell>
        <mxCell id="fqA9Xs131egoBfww3Tdx-10" value="Экран 1" style="text;html=1;align=center;verticalAlign=middle;whiteSpace=wrap;rounded=0;" vertex="1" parent="1">
          <mxGeometry x="98" y="82" width="60" height="30" as="geometry" />
        </mxCell>
        <mxCell id="fqA9Xs131egoBfww3Tdx-11" value="Экран 2" style="text;html=1;align=center;verticalAlign=middle;whiteSpace=wrap;rounded=0;" vertex="1" parent="1">
          <mxGeometry x="386" y="82" width="60" height="30" as="geometry" />
        </mxCell>
        <mxCell id="fqA9Xs131egoBfww3Tdx-13" value="Пользователь&lt;div&gt;нажимает&lt;/div&gt;&lt;div&gt;Старт&lt;/div&gt;" style="text;html=1;align=center;verticalAlign=middle;whiteSpace=wrap;rounded=0;" vertex="1" parent="1">
          <mxGeometry x="231" y="206" width="80" height="30" as="geometry" />
        </mxCell>
        <mxCell id="fqA9Xs131egoBfww3Tdx-14" value="" style="rounded=1;whiteSpace=wrap;html=1;fillColor=#d5e8d4;strokeColor=#82b366;" vertex="1" parent="1">
          <mxGeometry x="330" y="114" width="120" height="144" as="geometry" />
        </mxCell>
        <mxCell id="fqA9Xs131egoBfww3Tdx-15" value="Приветственное сообщение системы.&lt;br&gt;Предложение ввести данные для планирования и шаблон для них." style="text;html=1;align=center;verticalAlign=middle;whiteSpace=wrap;rounded=0;" vertex="1" parent="1">
          <mxGeometry x="338" y="130" width="104" height="112" as="geometry" />
        </mxCell>
        <mxCell id="fqA9Xs131egoBfww3Tdx-17" value="Пользователь&lt;div&gt;отправляет сообщение с данными по шаблону или в свободной форме&lt;/div&gt;" style="text;html=1;align=center;verticalAlign=middle;whiteSpace=wrap;rounded=0;" vertex="1" parent="1">
          <mxGeometry x="517" y="142" width="80" height="100" as="geometry" />
        </mxCell>
        <mxCell id="fqA9Xs131egoBfww3Tdx-111" value="" style="edgeStyle=orthogonalEdgeStyle;rounded=0;orthogonalLoop=1;jettySize=auto;html=1;entryX=-0.012;entryY=0.473;entryDx=0;entryDy=0;entryPerimeter=0;" edge="1" parent="1" source="fqA9Xs131egoBfww3Tdx-25" target="fqA9Xs131egoBfww3Tdx-37">
          <mxGeometry relative="1" as="geometry">
            <Array as="points">
              <mxPoint x="550" y="272" />
              <mxPoint x="550" y="257" />
            </Array>
          </mxGeometry>
        </mxCell>
        <mxCell id="fqA9Xs131egoBfww3Tdx-25" value="" style="rounded=1;whiteSpace=wrap;html=1;fillColor=#d5e8d4;gradientColor=#97d077;strokeColor=#82b366;" vertex="1" parent="1">
          <mxGeometry x="378" y="267" width="120" height="28" as="geometry" />
        </mxCell>
        <mxCell id="fqA9Xs131egoBfww3Tdx-26" value="Ответ пользователя" style="text;html=1;align=center;verticalAlign=middle;whiteSpace=wrap;rounded=0;" vertex="1" parent="1">
          <mxGeometry x="410" y="266" width="60" height="30" as="geometry" />
        </mxCell>
        <mxCell id="fqA9Xs131egoBfww3Tdx-36" value="" style="rounded=0;whiteSpace=wrap;html=1;fillColor=#D4E1F5;" vertex="1" parent="1">
          <mxGeometry x="605" y="96" width="192" height="232" as="geometry" />
        </mxCell>
        <mxCell id="fqA9Xs131egoBfww3Tdx-37" value="" style="verticalLabelPosition=bottom;verticalAlign=top;html=1;shadow=0;dashed=0;strokeWidth=1;shape=mxgraph.android.phone2;strokeColor=#c0c0c0;" vertex="1" parent="1">
          <mxGeometry x="601" y="72" width="200" height="390" as="geometry" />
        </mxCell>
        <mxCell id="fqA9Xs131egoBfww3Tdx-38" value="" style="verticalLabelPosition=bottom;verticalAlign=top;html=1;shadow=0;dashed=0;strokeWidth=1;shape=mxgraph.android.keyboard;sketch=0;" vertex="1" parent="1">
          <mxGeometry x="609" y="322" width="185" height="100" as="geometry" />
        </mxCell>
        <mxCell id="fqA9Xs131egoBfww3Tdx-39" value="&lt;font style=&quot;color: rgb(204, 204, 204); font-size: 12px;&quot;&gt;&amp;nbsp; &amp;nbsp; &amp;nbsp; Сообщение&lt;/font&gt;" style="rounded=1;html=1;shadow=0;dashed=0;whiteSpace=wrap;fontSize=10;align=left;strokeWidth=2;" vertex="1" parent="1">
          <mxGeometry x="611" y="302" width="183" height="16.88" as="geometry" />
        </mxCell>
        <mxCell id="fqA9Xs131egoBfww3Tdx-40" value="" style="shape=image;verticalLabelPosition=bottom;labelBackgroundColor=default;verticalAlign=top;aspect=fixed;imageAspect=0;image=data:image/png,iVBORw0KGgoAAAANSUhEUgAAAgAAAAIACAYAAAD0eNT6AAAAAXNSR0IArs4c6QAAIABJREFUeAHt3Q2QI2d95/HJQnzG5TKUC+zC8XrVj2Z3vbPzupr3HZPLGxXiSqAo7rhQJJdLkYKiihQ57pKQgrq9kEpySSAug/FI3Zo3jeZFsyFHCqgQAusLsFl7pO7WjKTRaA2YFxuwwfZiY7zr3emrnrVmZ8fzImla/fZ8XeWa3R1J3c+nHz2///N0q9XSwn8IIIAAAggggAACCCCAAAIIIIAAAggggAACCCCAAAIIIIAAAggggAACCCCAAAIIIIAAAggggAACCCCAAAIIIIAAAggggAACCCCAAAIIIIAAAggggAACCCCAAAIIIIAAAggggAACCCCAAAIIIIAAAggggAACCCCAAAIIIIAAAggggAACCCCAAAIIIIAAAggggAACCCCAAAIIIIAAAggggAACCCCAAAIIIIAAAggggAACCCCAAAIIIIAAAggggAACCCCAAAIIIIAAAggggAACCCCAAAIIIIAAAggggAACCCCAAAIIIIAAAggggAACCCCAAAIIIIAAAggggAACCCCAAAIIIIAAAggggAACCCCAAAIIIIAAAggggAACCCCAAAIIIIAAAggggAACCCCAAAIIIIAAAggggAACCCCAAAIIIIAAAggggAACCCCAAAIIIIAAAggggAACCCCAAAIIIIAAAggggAACCCCAAAIIIIAAAggggAACCCCAAAIIIIAAAggggAACCCCAAAIIIIBA7QJtU0u/15kqfPXETOn7fXPlFwczlbXhTMUaWahY95w+b42crlgnFyrWUOb82uB85XLvTOknPdPFSsdUId2dNg7XviUeiQACCCCAAAKeCbQ9cObmjtTydO9M+cJwZnU95O2gb+j/hfPWwPzq5Z508Vttk8vv9qxRbBgBBBBAAAEEthdoGzc/cGJm5cmTmasz+4YCf49CYWBu9XLXVOHMwPS5W7bfC/4VAQQQQAABBJoucCSefX1HqvDFgbnyS80I/J1e0z5d0DNdzPWM6W9oeiPZAAIIIIAAAghcFTiezP/uiXTpcfvc/U4h7ca/Dy1U1rqmlsY5LggggAACCCDQJIFYPPvarlThnwZmy5fcCPd6thGbKT1/bCx/oklN52URQAABBBCQT6B9wnxz13SpvO8L+vY4v19P4G/3WHv/jk8t/R/5jhAtRgABBBBAwCGBOzNnX9M5uTzXN1u+uF3Y+vXfRhbOW11ThUccYuBlEEAAAQQQkEOgbaz4y/Zs377Izq8hX8t+2dcntFjWATmOGq1EAAEEEECgEYFT1g2dqWWtb7b8s3sWGvy8fpOX92sJ/a2P6U6v/JAioJEOwXMQQAABBEIt0DG+1NGVKp4bzKwGera/Nfjtv9ufTjg2UbCEqn8t1AeRxiGAAAIIIFCrQOdk8b7emZXn7fPl24Vn0P/Nvs3w3RPLVjSZv/q/aszXasPjEEAAAQQQCJXAtdl+OXSz/c0Fy/BCxTq6OfyTeUsk89ahRPb9oTqgNAYBBBBAAIEdBSzrVccnCx+PpYvP2F+4szkow/hne+Z/dHzp2sy/ugKwXgSYl0XCPLKjFb9AAAEEEEAg6AJtE/lf6U4VKsOZSqhn+5uLGPseAEd2CP9NpwK+F/Rjy/4jgAACCCBwvcAp64b2yWW1b3blhc3BKMOfh+ZrCP+XVwMi8dyp6+H4GwIIIIAAAgEUOJZavrdruvCNoSZ+A5+fi4jBTMU6vNfMf9OpgKhmXoqMG68L4KFmlxFAAAEEZBew79K3MdsP6ZX8tRQdQ/ay/9j25/w3lv03h391FUDN/YPsfYj2I4AAAggESKB9wp7t+/+e/LWE934fMzi/ah0ee/ljftuE/G4FgEial1vvP3dLgA49u4oAAgggIJtAW6Z4a1dq+XP9syuXZLiSv5bCYD/hXy0MlIQ+JVtfor0IIIAAAgEQaJss/r59P/uTkp7b36kQGJgvW60Nzvyr4W//FJr5fAC6AbuIAAIIICCDQPeDRqR7qvDQwPzqSzsFoMz/3j+3arU2cM5/c/Bv/rOIG/fK0K9oIwIIIICATwWOTyx97MRM6emTEl/Qt1dh0z9btlqT9V/wtznwt/5ZJPSv+7RLsFsIIIAAAmEVaEsY3etfxDNfubJX+Mn++7718G/sgr+tob/570IzfxrW/kW7EEAAAQT8JCDxzXoaLWLs8N8c2k7/mdsD++kNwr4ggAACIRM4Nl74L92p4mND8+G/H3+jQb/d83pnV6yoAxf87VY0KPHFvwlZd6M5CCCAAAJeCrTPfPP2rqni5wZmy5e2Czf+bfevIo7NrDR15l8tCpSE/m9e9hO2jQACCCAQEoGO8aWPxtKlp04uMNtvtMg54VL420WAUM3vhKTr0QwEEEAAAbcFOsaXOuwL+gbmV7mg7/TuM/u9ioJY2p2Zf3UFQKjGC273F7aHAAIIIBBkgZcv6OudKT3HHfr2F/rVoqDH5fBfXwFI5q8EuRuy7wgggAACLgkcT+Z/t2e6+B37++erwcXP/RcA3emSK+f8qzP/jZ9a3nKp67AZBBBAAIGgCRydLd/BBX37D/mdCqXuaY/C/+UvEWrLFG4OWp9kfxFAAAEEmiVgWQeOj5sf750pXRjhDn1NW+3oTBW9mflv/gbBBx452KxuxOsigAACCARE4NpX7lbWdpqx8u/OrAZ0ejzzr54GiMWzNwWke7KbCCCAAAJOCvCZfWcCvZ7CqMMPM3/7Y4BJrgFw8r3EayGAAAL+F7CsA8fGl/66d6b0LEv87hUA9icm/BL+658C0Ew+BeD/dyt7iAACCOxfoG1y6S1d06XyUIYl/npm7I48duG81TFV8P6c/6bz/0Iznt9/r+IVEEAAAQR8KXAslX1j52Thn/vnyhfv4YK+pl3Qt1eRcHzKBxf8bQr/9RUAVf+uLzstO4UAAggg0LgAt+V1b2l/t/C3T7Ec99nMv3oBoJLQv9R4D+OZCCCAAAK+EbCv4u+ZLlYGWeL3bKa/uRgYOX3eapv017J/Nfztn4qa+zPfdF52BAEEEECgPoH2seWDHVPL/9I/u3KJJX5/zPrtIsDv4W8XAIc++bBSX2/j0QgggAAC3gqcsm44Pln4eCxdfIar+P0T+tXZv/1tiMcmln11wd/mmb/9Z6EZF7ztxGwdAQQQQKBmgeNj+ff0TBcf4yp+/4V+kMLfLgAiau6fa+54PBABBBBAwH2Btkmzp3OqcG5gbvVyNWT46c8CwJ753z2x5OuZf3Ul4JC6+Bvu92a2iAACCCCwq8CdmbOvaZ9cVte/bneh4osL2ig6di86hjN2+Pt72b8a/kIzfrprB+SXCCCAAALuCrSNmx84kS49bocJgbt74PrJxz5eR8eDEf7r5//V3D+527PZGgIIIIDAKwTaJ8w3d6cK+YH51St+CjX2pbYCxA7/I+PBWPbfWAF4wOh7RUfkHxBAAAEEmi9Q/QKevrnyi3x0r7ag9WNBMhTE8NfMp5vfw9kCAggggMA1gc0f3TvNEr8fA72efbLD//BYsGb+9gqAktCnrnVK/oQAAggg0DSB9qnl961/dG/h/Fo9AcNj/bsyMDQfvGX/9eV/LW+JUeNw0zo7L4wAAgjILtA9XujrShX56N5p/4Z4owXW4PxqIGf+Vy/+078v+3uT9iOAAAKOC1x3Xj+EwddoYIbpeVfDPx+Iz/lXL/jb/FNoufsc7/i8IAIIICClwObz+nzVbqg/ujgwV7Zak8E7518tAIRmWtEH87dJ+T6l0QgggIBTAscnC++/ektezuuHaYa/U1sG5lat1rHgzvztIkDRjG841f95HQQQQEAqgY3P63NL3lDP9LcWAf0Bn/lXVwAUVf+oVG9YGosAAgjsR+DobPmOrqni5/i8fvgu5tsa9Nv9vW89/IM987cLAKHlr8Ti2Zv2817guQgggEDoBez78HdNFcZjsyvPneRiPqlm+5uLgN7ZcmAv9qvO+qs/Fc1YDv0blwYigAACjQps3Id/YVXa0NscgDL/uXd2JTThbxcBkUT2fY2+L3geAgggEEqB9inz7V3TpfJQZpWb9LDasV74xWbKVjTgF/xVZ/5Xf5ovtVjWgVC+gWkUAgggUI8AN+mR83x+LSsasZlwzfztAkCJ62freX/wWAQQQCBUAtddzMdMl1Mc2/SBEyEMf7sAODSae3uo3sw0BgEEENhLwL6Yr31yWe2dKT03wk16CP1tQr+6KtCTLoXqnH/1FIDQzBf3ep/wewQQQCA0Ah3jSx+NpUtPnczwjXvVgOPnzqc9etLhW/avFgCKqv9LaN7YNAQBBBDYTqB6Z77hTIWL+XaZ6VIIXF8IdId05r9RAIzqb9ru/cK/IYAAAoEWaJ9Yvrc7VcgPcGc+lvcbKHq6psO57F8Nf6EaPwn0G5ydRwABBDYLdIwvdXSlCmfsO/ONnGaJnxn99TP6Wj26pouhPOdfDX/7p6Iamc3vHf6MAAIIBE7A/prdzsnlub7ZlRdqHeB5XGPBKINbZyr84S+SeSuqLbYH7s3ODiOAAAItm79ml5k+S/wNLPFvLWbsFaOOVCH0M3979i9U4ylGEQQQQCBQAhu34+UKfkLfgdCvFgF2+LdLMPOvngJQVCMeqDc+O4sAAnIKdEyW33r1drxcwV8NLH46ewqjfUqOmf/VAsC0og88clDO0YRWI4CA7wXunsjFulLFc1zB72zQUTi80vP4pEzhby//m9/x/QDADiKAgFwC3I73leFEYDfPZGShYrVJFv72CkAkrv+VXCMLrUUAAV8KcDve5gUcxcPOtiOnz0sZ/tFkfq31/nO3+HIwYKcQQEACAct61fHJwsd7Z1Z+fHKBz+oT1DsHdTNs7Av+jkk487dn/4qqr0owwtBEBBDwm4B9BX/PdPExbsfrbuA1I0SD+pp2wXn35LIUH/WrXvG/+aei6h/y27jA/iCAQEgF2qbz77Cv4B/kHvx8bM/Bj+01UoDY4X9sQq4L/jaHf1TLX2nJZG4I6VBDsxBAwA8C3IOfGX4jAd3M56zP/MflnfnbhYBQjawfxgf2AQEEQiZw9WN7hTMDs+VLzRzIeW2Ki3r7wPBCxTo6IXf42wWAopm/E7Jhh+YggIBXAtHZ5YNdU8XP2V+8U++gzOMJcjf6wHCmYh0dX5L2nP/GKQDNuOTVOMF2EUAgJALVL97pnSk9d9Ljc7puBAjbCG6hMpxZtY4Q/uvFj5LQHwrJEEQzEEDATQH7s/r2x/Zi6eIzfMVucANRpmJmaJ7w35j92zf/Gc39uptjBttCAIEgC2x8217pKXsZVabwoK3BLnIGMxXrMDP/jdMeQjOeD/JQxL4jgIBLAtXP6g/xsT2KngCe4hnKrFqHxzjnv3n2ryRyn3Vp+GAzCCAQNIH2seV38m17wZ71smpx3hqct8M/vzHz3RyCUv9ZzcWCNiaxvwgg0ESBton8b3WnCnm+bY/gD0PxQPhvX/gIzXy6icMIL40AAkER4LP6hH0Ywn5rG/rnV61WZv7brnwoCX0qKOMT+4kAAg4L9IwV2rpShTN8Vp/w3xqcYfj7AOG/bfCvn/LQ8pYYNQ47PKTwcggg4GeBzZ/Vt7/zPAwDPW2ggNnaB/pny1Zrkgv+drq+Qaj69/08TrFvCCDgkID9Wf32yWXVvkHPyAJhsTUs+Hu4+kTfevhvf957p0CU7d+FlrvPoeGFl0EAAd8JbPqs/kk+q89KRwA/ttdIYWaHv2xhXm97hWZa0Qfzt/luzGKHEEBgfwLHJ5f+/ES6+ENCP1yz2kbCULbn9M6usOyf3HvlQ1GNb+5vlOHZCCDgGwFu0EPYyxb2W9sbm1lh5l9D+NurBYqqf9Q3gxc7ggAC9Qu0Teff8fJn9a9sHQz5OwWBTH3gBOFfc/EjtPyVWDx7U/0jDs9AAAFPBdonlu/lBj2Eu0zhvldbY2lm/vVcA6Co+pKngxgbRwCB2gW6xwt99mf1B2bLl/YaDPk9xYFMfaCH8K955l8tEiKJ7PtqH314JAIIuC7QMb7UsXGDHj62xxX8klzBX0/xQvjvfbFfNfSv/TRfarGsA64PaGwQAQR2Fzg6W76jc3J5rm925YV6BkIey6xftj7QPV2qe+Z7LQQbCc5wPEeJ62d3H4X4LQIIuCZw/V35CDLZgoz21t/nO1NFwr/Gq/23Fj2HRnNvd21wY0MIIPBKAfuufMcnCx+PpYvPjJzmVryEYP0hKKtZJzP/hosfoeVffOVoxL8ggEDzBbgrH+fxOY+/rz7Qwcy/4fC3VwKUeO6LzR/o2AICCGwIdIwvfTSWLj01zK149zX4yzrjpd3nLXuVjPDf/zUIyqj+po2BiT8ggEBzBDbuyrdQWWMAZ3mbPrCPPrBw3uqYKuxr5rv1PLiMfxdJ80JzRjteFQEEWtqnlt/XM118bDBD6BN4+wg8ThNct1J0fIoL/hwpWFRjnmEaAQQcFOiYLL+Vu/IRdhQ8zvcB+yurjzPzd2TlQ9ifGNAW2x0c+ngpBOQUaJtceguh7/yAT4hiWu0DIwsVq21y2ZHwc2T23OBH7vyybaEZT8o5WtNqBBwQuHsiF+OufARUNaD42by+MHL6vNU2yTl/J4sHkciNOjAM8hIIyCPQM1Zo654qPNQ/W754D7five68LAHYvACU2fbkQsW6m5m/sysfWt46lsq+UZ6Rm5Yi0KDA9Xfl4wY9MocRbXe3yLHD/9gEy/5Ozvzt1xKq+Z0Gh0OehkD4BXrG9DfY99/vnSk9Z194xMCPAX3A3T6wPvOfWHJ25hvw8/ZOFQKRuP5X4R/FaSECdQhcuxVv6Sl78GHAd3fAxxvvah+wb5B1NzP/ZhU/a633n7uljqGRhyIQUoFNt+IdXlgl9Pm8OX3A4z5gh//RcZb9nZrtb30dRTXKIR3NaRYCtQls3JWPG/QQeB4HXnXWy8/z1nBm1ToyzrL/1tB28u+Kqn+otlGSRyEQIoFrob/KrXgJPQofn/UBe+ZP+O//3v67Fgta/kpLJnNDiIZ1moLAzgLtU+bbX75BzxVmWJxjpg/4sw8MZSrW4TFm/ruGtwMXMArVyO48WvIbBEIg0D6xfC935fPnQE8Ac1y29oGheWb+zQ7+6usrmvk7IRjiaQIC1wtU78o3MFu+tHWA4e+EDn3An31gcH6Vmb8DM/tqwO/6UzMuXT9q8jcEAizQMb7UsXErXp+dzyRw/Bk4HBf/HJer4d/kc95uhWsAtqMk9IcCPNyz6wi0tBydLd9h36Cnb3blBQZz/wzmHAuORT19YGCubLUmOee/64zd4aIiMpr7dTIEgcAJcFc+wqWecOGx/u4vA3OrVusYM383w19oxvOBG/jZYXkFrt2Vr/gMd+Xz94BO4HJ8au0D/cz8m3V3v11fV0nkPitvmtDyYAhsvitfhlvx1jqo8jgCOAh9oG89/Jn5uznz39iWmosFIwTYS+kE7Bv0nEiXHrdvBBKEgYx9JHDpA/X1gf7ZMsv+Dp/T3wj3PV5XqMbT0oUKDfa3wLW78lW4Kx+fYKDwC3Ef6J1d2XV5utYg43GNrZ4oanbS32nA3kkh0Da19Hs904VvDs5zK15mkPXNIPEKpldshqv9PS1ctLx16JMPK1IEDI30n0Db5NJbuCtfMAdvQpfjtp8+EJth5u9p+CfzllD1J/yXCuxRqAXaEkb3xg16FhhE9zOI8lz6TxD7wAnC3xenPYS6+PehDhsa5w8BbtBDUAUxqNhn5/ttT7rki/Dzevbt9fZFMr92Rzz7en8kBHsROgFu0OP84EkgYRrkPtCTZtnf6+Cvbl+o+qOhCx0a5LHAps/qc4MewirIYcW+O9t/u5n5+2rlQxnNfsTjtGDzYRHgs/rODpaED55h6gNd0yz7V2fefvgptPyVyKkzN4Ylf2iHBwLHJwvv75kuPjaU4bP6YRqsaQvFh5N9oGu66KuZrx8C2Ot9UFR9yYPIYJNBF2ibyP8WH9sjIJwMCF4rvP2pM0X4ex32220/ksi+L+hZxP67JNA9XujrShXPDcytXmawDu9gzbHl2DrVB0ZOV6yOVIGZ/x634d0unJv/b+ZLLZZ1wKX4YDNBFOgZK7RtfFY/xLchdWrA43UIT/rA1T5gh387M3/fFj9KXD8bxExin5ss0D7zzds7J5fnemdKz40s8MU7DOiEOn2g/j7QPsXMv/mz+Mbu+2/v16HR3NubHCW8fFAE7sycfc3xycLHY+niM3blzoBX/4CHGWb0gat94Pgk4e/n8Bda/sWgZBP72SyBTZ/V5yt2CS/Ciz6w3z5grxi2Ef6+XfavFiVKPPfFZsUKr+tzAb5il4F+vwM9z6cPbe0DI6fPE/6+vNjvlacJlFH9TT6PKXbPSYG26fw7uqZL5UE+q8/pDS7mpA843AdGFs5bx5j5+37mb68AiKR5wcls4bV8KsBX7DJL2zpL4+/0Caf7gH2r77snlwMRftUlcKl/qsa8TyOL3dqvgH0Ff0dq+YsDs+VLTr/ReT3Cgz5AH9jcB9bDf4LwD0pBIZJ5q3VMb9tvzvB8nwl0P2hE7DvzcTEfA/TmAZo/0x+a1QfWw3+c8A9K+Nv7KTTjSZ9FF7uzL4FT1g32jXoIfgb6Zg30vC59a2sfGF6oWEeZ+QfutIdI5Eb3lTc82T8C9pfwDM6Vr2x9c/J3Bmz6AH2gWX3AnmwcGV8KXPgFaabelH3V8taxVPaN/kkw9qRhge500bA/dtOsNzmviy19gD6wtQ9cDX+W/ZsS0E3+CKFQze80HDg80R8C9kV+vTOln2x9Y/J3Bmv6AH2gmX1gaH6VmX+TQ7qZhUUkof+lP1KMvWhIwP42voH5VZb8Wflg5Yc+4GofWA//MZb9mxnQzX1tc631/nO3NBQ8PMl7gbax4i8Pzq+uNbPC57WZQdIH6ANb+8DgfMU6TPgH+poHRTXK3qcYe9CQgP2VvIPzFWb+zPpcnfVtDQL+Ll9xMDi/ah0ee+WtZJs7W2V7TvuKeO6PGgofnuStQM+Y/oaB+dWXGHzlG3w55hxzL/vAwHr4s+zvdBi7/XoiaV5uOWW92tskY+sNCcRmSs94OQiwbUKIPiBfH+ifX7VamfkHetm/WmgoqrHYUPjwJG8F7Bv8MPjKN/hyzDnmXvaB/jk7/Jn5VwM06D8Vzfwdb5OMrdctYH+Rj32rTS8HArZNENEH5OoD/XNlqzVJ+Ac99Df2XzMu1R0+PMF7gf7Z8kUGX7kGX443x9vLPtA3Ww7FkvdG+AX4M/tOtUFJ6A95n2bsQV0CnanigpcDAdsmiOgDcvWB3tkVwj+EBcPBuPnmusKHB3sr0PbAmZsHMxU+789H/jj9Qx9wpQ/Y4c+yf/g+eig046fephlbr1uga6rwFWZfcs2+ON4cb6/6QGyGmb9Ty+1+ex0lkfts3QHEE7wV4IY/hIFXYcB25ep7Jwj/cJ/2UHMxb9OMrdcl0DlZvI9BWK5BmOPN8faiDxD+4Vvy37wCITTz6brChwd7L9A7W37Wi8GAbRJC9AF5+kBPmmX/zWEZxj8ranbS+0RjD2oWsG/5O3Kaz/0TRPIEEcfa/WPdnS6Fe9k7hFfy112gaHnr0CcfVmoOHx7ovUD75LLKgOj+gIg55rL0ge5pwr/uMA1gQSFU/QnvE409qEugZ7r4A1kGItpJ6NIH3O0DXdNFZv4BDPNGChah5e6rK3x4sPcCg/OVywyK7g6KeOMtQx/oZOYvTfEjkvm1O+LZ13ufaOxBzQL2zX84/08YyRBGtNHdft6RYubfyCw6qM8Rqv5ozcHDA/0hcHyy8H4GRncHRrzxDnUfWDhvdUwVpJn5BjWwnd5vRdU/6o9UYy9qFuiYKqRDPRhxS1dXbulKH6KoWe8DhL+UhY/Q8lcip87cWHPw8EB/CHSmCosM3gze9AH6wH77wMjCees4M38pCwBF1Zf8kWjsRV0CJ6YL39jvG5/nEx70Abn7AOEf7rv77XW6IBLPvbeu4OHB/hDoSRe/y+At9+DN8ef476cPjCxUrLbJZSlnvnsFoxS/18yXWizrgD8Sjb2oS4B7ADD472fw57ly9x975t82QfhLEfQ73MtAietn6wodHuwfAVYA5B7ACXCOf6N94ORCxTpG+Eu/8hHRjLf5J9HYk7oEulPFRxsdAHge4UEfkLMPEP5yn/PfWPHQzJ/VFTg82F8CfApAzgGc4Oa4N9oH7PC/m5m/9DN/uwhQ4rkv+ivR2Ju6BLgPAEHQaBDwPPn6znCG8N+Y/e5wTlym39+VzI7UFTg82F8CbePmBxjI5RvIOeYc83r7gB3+R8e54E+mgN+trSJpXvBXmrE3dQvE4tnX8l0AhEG9YcDj5eozw5lV68j4EsvezPo3+oASz83VHTg8wX8Cg/OrfBsgtwzmlsH0gW37gD3zJ/y56G/zaoBI5q3WMb3Nf2nGHtUtEEuXfsCMTq4ZHceb411LHxiar1iHmflvzHo3h6DMfxaq8VTdQcMT/CnQPrms1jIY8BhCgz4gTx+ww5+ZPzP/7QodkciN+jPN2Ku6BdoyxVu5DkCegZ0Q51jv1QcG51etw2OE33bhJ/2/aXnrWCr7xrqDhif4V6B3ZuXCXoMCvyc46APh7wOEP4XPbkWOUI1v+zfJ2LOGBDoni/cxuId/cOcYc4x36wMDc2WrNcnV/rsFoOy/iyT0v2woZHiSjwUs61WDmfLaboMDvyM86APh7QP96+HP7Ff2gN+9/eZa6/3nbvFxkrFrjQp0The/xAAf3gGeY8ux3akPXA1/Zv67hx/FkaLqK43mC8/zuUDbA2duHsqssgrA58G3/Tz4TuHBvwe7sOifLVutXPDHR/1quMmRouof8nmMsXv7EeicXJ5jQA/2gM7x4/jV2gcIf2b1ta56iKR5uSWTuWE/+cJzAyDQP1u+WOsAwuMIG/pAMPtA72zZijLzZ+Zfw8zfLhKEamQDEF/s4n4F2iaX3mJ/5ScDezAHdo4bx22vPhCbIfxrnfnyuKsbQQreAAAgAElEQVSrJMpo7t37zRaeHxCB7qnCQ3sNIvyeoKEPBK8PnJhZYdZb46yX8K+eIjEvBiS62E2nBGLp4jMM8MEb4DlmHLOd+gDhXw00ftZT3CiqfsapXOF1AiLQM6a/YWCObwrcaTDl3wnaIPWBnjQz/3pCj8deK5IOxs03ByS22E0nBXrGCm0D86tXgjTQsa8EM33g+j5A+F8LM4K9Pguhmc87mSm8VsAEjk3qvzo4z/0BCJXrQwWPYHh0TZc45885/4b7gJLIfTZgkcXuOi3QljC6B+Y5HUDoBSP0OE5XjxPhX99sl9WBbbzUXMzpPOH1AijQMbYkemdXfsrgSgjSB/zfBzqniw3P+gjCbYJQwlUEoRpPBzCq2OWmCVjWq3qmi0UCwP8BwDGS9xh1pAh/ipj9FzGKmp1sWpbwwsEVaE8X/3BwrszFgXxvADeM8lEfGDldsTpSBWb+Es7WHS94tLx1MJ6NBjel2POmCsTi2dd2p4sGdw2Ud6bJKoOPjv3Ceat9ipm/40EoaTEhVP2JpgYILx4OAfsCwZ7p0rdPLvhoMPTRrIyQpF+40QeOE/6sfDhYrAh18e/DkVC0whUB+yLB7lRJH5jjvgFuDPhsg8LC7gMjp89bx6dY9mfmv/9z/lVDkcyv3amdvdWV4GAj4RM4PlX4o76Z8k8IKUKKPtC8PjCyULHaJgn/anDx05kiQNGMb4QvlWiR6wInppff3TdbvkAINC8EsJXT1p75E/7OBB6Fw/WOymj2I66HBRsMr0DXRPG/UQjIGVQUKM4fd/vC22MTy5zzdvCcN0XA1SJAaPkrkVNnbgxvGtEyzwQ608v/o3+OmwkRis6HoiymdvjfTfhT/DSp+FFUPe9ZQLBhOQS6pgt/2j+38qIsgzbtJPCd6ANXZ/6c82e2fv2SvZMekXjuvXKkEK30XKBjovSR/vkyhQAfW+SGQnv0gfWZ/zjL/k6GHa+1pZDQzJdaLOuA58HADsgl0JUqfHxgrnzJiVkSr8FsO2x9YHihYh1l2Z9l/yYt+1cLIZHQvy5X8tBaXwl0Ti7fN8i3DjIb3mM2HLaA3609w5mKdXR8ifBrcvhVQ1DmnxHNeJuvAoGdkVDAsn6uc3r5waH5yuXdBkZ+x0w/7H1gKFOxjhD+FD9uFD+a+TMJ04Ym+1bglHWga2p5eihT4UuHmBFLtyoyNL9K+LsRfGxjvcCKqLl/9m0WsGMSC2wUAqtrYZ/x0T5WNew+MJipWIeZ+TPzd7E4uSuZHZE4ZWi63wVav3D+P3RPFj47nKEQoFAIb6EwlFm1Do9xzl/mc/Fut11oxgW/j//sHwLrAnd+4ruv6Z4ufenkQoUVAU4NhOrUwOC8Hf5bPprl4izQ7eBhe/441ko8N0e8IBAogTviT9xkFwL2VdLMiMM7I5bl2BL+/ghD2YoSkcxbrWN6W6AGf3YWgapAbGb19T0zpa8PZ1YpBFgRCGQf6J9ftVqZ+XPO34PVHqHqT1bHUn4iEFiBe8b0N/Skiw/bd0yTZdZIO4O/8jFA+BP8HgR/daVDqNkHAzvos+MIbBUY+Ow3b+9OF3UKgeCHY9gLnP65stWa5IK/ahjx0/3TIIq6fPvWMZS/IxB4gR5NP3QivZKnEKAQ8GMh0bce/u4P+IQs5tU+IFT924Ef6GkAArsJ9KbKR2MzpdURTg1wasQn10j0zq6w7O3hsnc1AGX/qai5v9ht7OR3CIRGoGe60BZLr3xj5DTXCPhxRizLPvXOlq0oF/xRAHleAJlrrfefuyU0AzwNQaAWgVhmqeNqIcDSuCyh65d2xpj5E/yeB//VUyCKqpdqGS95DAKhFOgYW/rF2MzK90YWKAT8EpBh3o8TMyz7y77k7qf2i/jiB0M5sNMoBOoRaE+t/MdYuvjDeygEuEagSdcIxNKEv5/CT/Z9EUnzcksmc0M94ySPRSDUAh2TS79qFwJcI8CKiJMrET2EP8v+Pln2rxY+imoshnowp3EINCrQNVH8z30zpaedDAFeS86igvDnI3fV0PXTT2U09+5Gx0eeh4AUArHplXf1zZYvEN5yhvd+j3v3dImZr89mvn4KYc/2RTMuSTGA00gEnBDonC78VwoBioB6CoKu6SLhT/j7sg8oqn7GiXGR10BAKoGO1NJ/759b+Wk9QcBj5SscOpn5+zL4PJtx+6wQOhg33yzVwE1jEXBSoHu69Mf9cysvEu7yhftux9y+eLQjxcyfoPXvdQ9CM593cizktRCQVqBzauXD/fNlCoEmfXRut7D12+/s8G+fIvwJf/+Gv31sFNX4v9IO2DQcgWYIdKVLfz4wX77ot1Bif9xboTg+VWDZ22dL3RQj2xQjai7WjDGQ10RAeoGuVOETg/Orlwhe94LXD9bHmflT/ASg+BGa+WPpB2kAEGiqgGX9XGdq+dND86uX/RBO7EPzihH7FtLM/LeZZQYgDGVcHVDi+kRTxz5eHAEEXhY4ZR3oShW0ofnKFUK4eSHsla391dJtk8vMfAn7YPQBLW8djGejjM8IIOCmgF0ITC1PD2UoBLwKa6e3O3L6vNU2yTl/GWfRQW2zohqPuznssS0EENgkEItnf75rujQ3lKmsOR1IvJ57KwwnFyrWsQlm/kENQln3W8SNT2wajvgjAgh4IRA5860bu1PFzw8vUAgErXAh/DnfH8QCQiTza3dqZ2/1YrxjmwggsI3AHfEnbuqeLn1peOE8KwIBuI+AHf53M/MPxvlurku47jgJVX90myGIf0IAAa8FWqd/fEtsunRmOLNqBW1GLMv+DmcI/yDOfNnnqys2ipr7M6/HObaPAAK7CNwzpr+hJ1182J5pyhKsQWinHf5HxznnT5gG8/SH0PJXIqfO3LjL0MOvEEDALwLDn3n0tu50UacQcO/Cvp0KEXtV5sj40nXLqQRhMINQ1uOmaIbpl7GN/UAAgRoF+maXD55Ir+Tte8zvFFD8e/OKBHvmT/gT9kEvHJSE8Qc1Djk8DAEE/CbQNblyJDZTWrVvPEPgNy/wN9sOZSrW4TFm/kEPP+n3XzNfarGsA34b09gfBBCoU+DEVOVYLL3yDVYEmlsEDM0z85c+OEPyKQKh6l+rc5jh4Qgg4GeBvnSlO5Zeecy+G93mWSt/3r/H4PwqM/+QhB9FTN6KaMbb/DyWsW8IINCgQP9subd3pvSdexb2H3wUD+etq+HPOW+CMxx9QKjGCw0OLTwNAQSCItCdWv6PvenSExQCjRdCA3NlqzXJOX/CPxzhbx/HSML4QlDGMPYTAQT2KdA5VfzlWLr4Q64RqK8QGJhbtVrHwjPwE+IcS7sP3JXMjuxzSOHpCCAQNIETM4Xf7J1ZeYpl/b0LgX5m/tzjIITXPAjNuBC0cYv9RQABBwW6p5be1TdXfoZCYPtCoG89/JktsmIQvj6gxHNzDg4lvBQCCARVoCdV+N2+2fIFCoFrhUD/bJll/xDOfClm8pZI5q3WMb0tqOMV+40AAk0Q6Jpefl//XPk52QuB3tkVK8o5f5b+Q1oACVV/sgnDBy+JAAJhEOhOlf7nwFz5BRkLgdhMmfAPafAx+796KkOo2QfDME7RBgQQaKJA12ThT/vnyy/KUgjEZlaY9RL+oe8Dirp8exOHDV4aAQTCJNCZWj41OF++GOZC4AThH/rgYwUgbwlV/3aYxibaggACLgl0TS3/3eD86qWwFQI96RLhx8xfij6gqLm/cGm4YDMIIBA6Acv6ua508ZND85XLYSgEetIs+zMzDt/H/LY/puZa6/3nbgndmESDEEDAZYFT1oGuVEEbzgS3EOhm5i/FrHf7MJQl9K+1U1H1ksujBJtDAIFQC7xcCAxlKleCtCLQNc2yP8F4LRxlsBDxxQ+GeiyicQgg4I1ALJ79+a7p0txQZnXN74VA13SRmS/n/KXqAyJpXm7JZG7wZnRgqwggIIVAW6ZwQ0+69A/DCxVfFgKdKcJfhtkubbx+dUNRjUekGIBoJAIIeC8QOfOtG7tTxc8PL5z3RSFgfwNiR6og1ayPELw+BGX2EPHsu7wfFdgDBBCQSiAW/8ZrY9OlM16uCNjh3z7FzF/mAJS67Zp5UapBh8YigIC/BLrHv/W6E6niV08uVCy3rxFon2LmL3UASn69g0jkvuKv0YC9QQABKQWGP/PobT3p4sNuFQLHJwl/wl/uUwEH4+abpRxsaDQCCPhToG92+eCJ9Ep+pEkrAvbrthH+XPMg++xfM5735wjAXiGAgPQCw+nSod6ZlYKThcDI6fOEv+TBx6rH1VWPSCL3j9IPMgAggIC/BTpT5aOxmdLqfgsB+9TCsYllZr4UAPQBuw+ouZi/3/nsHQIIIPCyQF+60h1Lrzw2snC+7osF7fC/m/An+Ch+1vuAUI0fM7AggAACgRPony339s6UvnNPjYXA1Zk/F/yx9C33BX+bj39EzY0F7o3PDiOAAAJVgY4p/Rd706UndisEhjMV6+5xlv03D/78WfJCQMtbB+PZaPV9xE8EEEAgsAInUsVf751Zecq+qc/m+wgML1Ssoyz7s+zPsv91fUBRjccD+2ZnxxFAAIHtBLpTpXv7Z8s/sosAe+Z/dHzpuoGPma/kM18Kgavn/+PGJ7Z7//BvCCCAQOAFemcL7zicNPVo0qQAIPToA5v6gEjm1+7Uzt4a+Dc5DUAAAQR2E2hV84NKQjcpBJj5s/pztQ8IVX90t/cMv0MAAQRCJXAomf0le+AjBCgEZO8Dymj2I6F6c9MYBBBAoBYBkdArsgcA7Ze3CBJa/krk1Jkba3mv8BgEEEAgVALrKwGbzocShvKGoYzHXtEMM1RvaBqDAAII1COgqMY3ZRz8aTPFjpIw/qCe9wqPRQABBEIlcEhd/A3CkDCUrg9o5kstlnUgVG9mGoMAAgjUKyBU49vSBQCnPqT+OKBQ9a/V+z7h8QgggEDoBBQt95sUAKwCyNQHIprxttC9kWkQAggg0IiAfTtUmQKAtspb8AjVeKGR9wjPQQABBEIpEFVz7yQU5Q1FmY59JGF8IZRvYhqFAAIINCogVPMHMgUBbZWz4LkrmR1p9D3C8xBAAIFQCiijuXcTinKGoizHXajGs6F889IoBBBAYL8CQjWekiUMaKd8xU4kkZvd73uE5yOAAAKhFLBvjkIwyheMMhxzkcxbrWN6WyjfuDQKAQQQcEJAaObTMgQCbZSr0BGq8UMn3h+8BgIIIBBaARHP/RHhKFc4ynC8I6r+6dC+aWkYAggg4JSAfbGUDKFAG+UpdBR1+Xan3h+8DgIIIBBaAZHIfphwlCccw36shao/Fto3Kw1DAAEEnBYQSfNC2IOB9slR5Cij2Y85/f7g9RBAAIHQCkTiuVMEpBwBGe7jbK61ZQo3h/aNSsMQQACBZggIzXw+3OFAwIf9+CqqXmrGe4PXRAABBEItEInrfxX2gKB94S6CRHzxg6F+k9I4BBBAoCkClnUgqpk/IyTDHZJhPb4iaV5uyWRuaMp7gxdFAAEEwi4g1MW/D2tA0K5wFzaKajwS9vcn7UMAAQSaJ3DKerVgFcCiWAhesSDi2Xc1743BKyOAAAISCNh3USMAgxeAUh8zzbwowVuTJiKAAAJNFshkbohq5kWpAyVJARCk4y8Sua80+V3ByyOAAAJyCCgJXQtSALCvchcsB+Pmm+V4Z9JKBBBAoNkC66sAxiWCVe5gDcLxF5rxfLPfDrw+AgggIJWAohqpIAQA+yh3kRJJ5P5RqjcmjUUAAQSaLRCLZ2+KauZLBKzcAev746/mYs1+L/D6CCCAgHQCUdWY930AcMGetB9bFKrxY+nelDQYAQQQcEOg9f5ztwjNvEwRwCqAH/tARM2NufE+YBsIIICAlAL2OVY/Dv7sk+xFiWkpn9IPSfmmpNEIIICAGwKRceN1US1/hcCVPXD91X5FMx53o/+zDQQQQEBqAZEwPkcB4K8AlP54qPrfSf2mpPEIIICAGwLRB/O3CVYBpL3YzofFxtqd2tlb3ej7bAMBBBCQXkBJ6F/yYRAQyhJ+CkKo+nnp35AAIIAAAm4JHJk8+wvRpLlGEcCpAK/7gEhkP+xWv2c7CCCAAAItLS1KQn/I68Gf7ctdgNinoiKnztzIGxIBBBBAwEWB6AOPHIwm86wCSLjs7pfCS0nopotdnk0hgAACCFQFREL/ul/CgP2QbzVAiWffU+2L/EQAAQQQcFFAjBqHBasAXHzowSqI0MxLLZZ1wMXuzqYQQAABBDYLKKrxMLNv+WbfXh9zoepf29wP+TMCCCCAgMsCUW2x3eswYPvyFSARzXiby12dzSGAAAIIbBVQVN0ghOULYa+OuVCNF7b2Qf6OAAIIIOCBQCTxSHdUIwC9CkTZthtJGF/woJuzSQQQQACB7QQUzViWLYhorzdF313J7Mh2fZB/QwABBBDwQCASzw6wCuBNIMpUiAjVeNaD7s0mEUAAAQR2E1BUfUWmMKKt7hc8kURudrc+yO8QQAABBDwQiCYeGSYU3Q9FWcxFMm+1jultHnRtNokAAgggsJeA/e1ssgQS7XS32BGq8cO9+h+/RwABBBDwSOBQMvtL9kyNcMTA6T4QUfVPe9St2SwCCCCAQC0CQjO+5fTgz+tRUCjq8u219D8egwACCCDgkYCIG/cS2AS2k31AqPpjHnVnNosAAgggUI+AUPXvOhkAvJbcBYUymv1YPf2PxyKAAAIIeCQQGV18K6Etd2g7d/zNtbZM4WaPujKbRQABBBCoV0Co+hPOhQBhKqul0IxivX2PxyOAAAIIeCggRhd/W9bQot3OFWwRVf9DD7sxm0YAAQQQaERAqPqThKFzYSibpUial1tOWa9upO/xHAQQQAABDwVEQv992UKL9jpX8Ciq8bCH3ZdNI4AAAgjsRyCqGT8iFJ0LRZks7dNI++l7PBcBBBBAwEOBSDz3XplCi7Y6VOxo5kUPuy2bRgABBBBwQkBo5jMEo0PBKMmtloWa+7ITfY/XQAABBBDwUEBR9Q9RAFAA1NMH7lIXf83DLsumEUAAAQScEhCq8Ww9AcBj5S0YhGY871S/43UQQAABBDwWUNTcnxHq8oZ6Pcc+ksj9o8fdlc0jgAACCDgpYM/s6gkCHitpwaDmYk72O14LAQQQQMBjAftLXQh1SUO9xosXhWr82ONuyuYRQAABBJohwCoABcBuRWBEzY01o9/xmggggAACHgso8cW/2S0A+J3MBYJpKZ/SD3ncRdk8AggggEBTBCzrQFQzf0bQyxz027dd0YzHm9LneFEEEEAAAX8ICC13HwXA9iEotYuq/50/eih7gQACCCDQHIFT1quFZr4oddjVeFGcREZrd2pnb21Oh+NVEUAAAQR8IyASuVGJws2irbuveAhVP++bzsmOIIAAAgg0USCTuSGaNC8SjLsHoyw+IpH9cBN7Gy+NAAIIIOAnAfsjX7IEHO3cudARWv5K5NSZG/3UN9kXBBBAAIEmCsTi2ZuEZr5EOO4cjjLYKAndbGI346URQAABBPwooCRy0zKEHG3cuchR4tn3+LFvsk8IIIAAAk0UsFcBoqwCSHuRoNDMSy2WdaCJXYyXRgABBBDwq4CiGhlmyDvPkMNsoyRyX/Vrv2S/EEAAAQSaLBAZN14nkublMAcdbdu+wImMLr61yd2Ll0cAAQQQ8LOAksh9lpDcPiTD6iJU4wU/90n2DQEEEEDABYE74tnX2x8HC2vY0a5XFjdCNT7vQtdiEwgggAACfheIJIwvEJSvDMqwmtyVzI74vU+yfwgggAACLghEH8zfxiqAHAWA0IxnXehSbAIBBBBAICgCIq7/a1hnvLTrWnETSegzQemT7CcCCCCAgAsCRybP/kI0aa4RltfCMowWImEecaE7sQkEEEAAgSAJKKr+/8IYerTpalEjVOOHQeqP7CsCCCCAgEsCyqf0Q9FknlWAZDhXASKq/mmXuhKbQQABBBAImkA0of87M+ZwFgCKunx70Poj+4sAAggg4JKAGDUOizFWAcJWBAlVf8ylLsRmEEAAAQSCKqCoxmLYAlD29iij2Y8FtT+y3wgggAACLglEtcV22QMzXO0319oyhZtd6j5sBgEEEEAgyAJKQjfDFYLhPK9fyzESmlEMcl9k3xFAAAEEXBSIJB7pjiZNq5aA4TH+Li4iqv6HLnYdNoUAAgggEHQBkTAKhLu/w32v42N/3XPLKevVQe+L7D8CCCCAgIsCkXh2IKoFOwD3Csiw/15RjYdd7DJsCgEEEEAgLAKKqq+GPSTD3D4xuvjbYemLtAMBBBBAwEWBSEL/RRHSO+OFOfjX26aZF13sKmwKAQQQQCBsAkLVHw19WIawyBFq7sth64u0BwEEEEDARYG7RvVfoQAI3rUQd6mLv+ZiN2FTCCCAAAJhFLBvJUsREJwiQKjmc2Hsh7QJAQQQQMBlARE37qUACE4BEEnkPuNyF2FzCCCAAAJhFYiqxvcoAoJRBLQ+uNgT1n5IuxBAAAEEXBZQNOM/UQAEoADQjB+53DXYHAIIIIBA2AUUzfw+RYC/i4BIIpcMez+kfQgggAACLguIePZdFAB+LgBMS/mUfsjlbsHmEEAAAQRkEBCa8SRFgE+LANX4ngx9kDYigAACCHggoMSz76EA8GcBoCRyf+tBl2CTCCCAAAKyCAjV+DFFgO+KgLU7tbO3ytIHaScCCCCAgAcCkXjuvRQA/ioAREKveNAV2CQCCCCAgGwCQjOepQjwTxEQSeh/IlsfpL0IIIAAAh4IROK5P6YA8EcBILT8lcipMzd60A3YJAIIIICAjAJCMy5QBHhfBCgJ3ZSx/9FmBBBAAAGPBBRV/ygFgA8KgHj2PR51ATaLAAIIICCrgNDM5ykCvCsChGZearGsA7L2P9qNAAIIIOCRgKLm/oICwLsCQEnkvurRoWezCCCAAAJSC1jWAaEZP6UI8KYIiIwuvlXq/kfjEUAAAQS8E4iq+t9RALhfAAjVeMG7o86WEUAAAQQQWF8FMH9GEeBuESBU4/N0PgQQQAABBDwVUBL6JykA3C0A7kpmRzw96GwcAQQQQACBlkzmhqhmXqQIcKcIsO/ESK9DAAEEEEDAFwKKasQpANwpACIJfcYXB52dQAABBBBA4OVVgEsUAc0vAkTCPEKPQwABBBBAwDcCSlyfoABobgEgVPMHvjng7AgCCCCAAAK2QCyevSmqmi9RBDSvCFDixqfobQgggAACCPhOIJLIzVIANLEAUJdv991BZ4cQQAABBBBovf/cLSJpXqYIcL4IEJrxLXoYAggggAACvhWIqLl/oABwvgCIaPr/9u1BZ8cQQAABBBCIjBuvYxXA6QLAXGvLFG6mdyGAAAIIIOBrAaHm/olVAOeKAJHQi74+4OwcAggggAACtkD0wfxtQstfoQhwpghQRvUP0LMQQAABBBAIhIASz32RAmD/BYDQjMstp6xXB+Kgs5MIIIAAAggo6vLtIskqwH6LICVhnKM3IYAAAgggECgBkch9Zb8BKP3z1dw7A3XQ2VkEEEAAAQSiDzxyMJrMr0kf4skGTwVo5kV6EQIIIIAAAoEUUBK5r1IANFYACDX35UAedHYaAQQQQACBg/FsVLAKYDVSBN2lLv4aPQgBBBBAAIHACiiq/u+NBKDMzxGq+VxgDzg7jgACCCCAgC1gf4e9GONagHoKmkgi9xl6DwIIIIAAAoEXEKqRrScAZX9s64OLPYE/6DQAAQQQQAABRc11RrXGLoaTrhjQjB/RYxBAAAEEEAiNgKLqeenCvIGPAEYSuWRoDjoNQQABBBBAQDxg9EWTZkNXxMtTOJiW8in9EL0FAQQQQACBUAkIzSjKE+YNnPJQje+F6oDTGAQQQAABBGyBVjU/yLUAOxcGSiL3t/QUBBBAAAEEQikgVGOVVYBti4C1O7Wzt4byoNMoBBBAAAEEDiWzvyQauDgu7EWDSOgVegcCCCCAAAKhFlBU45thD/R62xdJ6H8S6oNO4xBAAAEEELDvc19vQIb58ULLX4mcOnMjPQMBBBBAAIHQCwjV+HaYQ72etimqboT+gNNABBBAAAEEbAFFy/1mPSEZ5seKhP779AoEEEAAAQSkEVA04/EwB3tNbdPMSy2WdUCag05DEUAAAQQQiKq5d9YUkiH+1ICS0P+NnoAAAggggIB0Aopm/EDmIiAyuvhW6Q46DUYAAQQQQEDEs++StQAQqvECPQABBBBAAAFpBYRqPCVjESASxuekPeg0HAEEEEAAgUg8914ZCwD7uxE4+ggggAACCEgtIFTjaamKAM34kdQHnMYjgAACCCBgC4j44gdlKgBE3PgERx4BBBBAAAEE7CJAM56VoQgQmnG5LVO4mYOOAAIIIIAAAhKtAijx3BwHHAEEEEAAAQQ2CQjNeDLMqwBCM1+KjBuv29Rk/ogAAggggAACIm7cG9XyVliLACW++DccZQQQQAABBBDYRsC+PW4YCwCh6k9u01z+CQEEEEAAAQRsgVg8e5PQjAshKwLWxANGH0cYAQQQQAABBHYRiKq5mNDyV8JSBAhN/+tdmsuvEEAAAQQQQKAqYN8bQITgmwCVhP5QtU38RAABBBBAAIEaBBRVXwjyKoBQ9cdaLOtADU3lIQgggAACCCCwWSCS0GeCWATYX3VsX8+wuS38GQEEEEAAAQTqEIgkcrOBKgJU43ut95+7pY4m8lAEEEAAAQQQ2E4goubGglAEKJqx3JLJ3LBdG/g3BBBAAAEEEGhA4FAi+/6oZvr00wGmpajZyQaaxVMQQAABBBBAYC+B1jG9Taj69321GqCZPxOji7+9177zewQQQAABBBDYp4ASNz4lkuZlrwsBkch9hYv99nkweToCCCCAAAL1CBxLZd/48q2D19wsBOz7EwhVP8/d/eo5WjwWAQQQQAABhwUOxrNRoea+3OwVAZHMrymaYSqj+pscbgIvhwACCCCAAAKNCkROnblRGc1+TCT0b2xANagAAAEpSURBVEWTeYdWBUxLqMZTIpEbjT6Yv63RfeN5CCCAAAIIIOCCgH1ePpLIvk/E9X9VVONxoZmXajlNYK8i2IGvJHJfjai5/3VHPPt6F3aXTSCAAAIIIIBAswTWi4J4dkAZzb3b/q6BSDz3x4qqf8j++12j+q9w855myfO6CCCAAAIIIIAAAggggAACCCCAAAIIIIAAAggggAACCCCAAAIIIIAAAggggAACCCCAAAIIIIAAAggggAACCCCAAAIIIIAAAggggAACCCCAAAIIIIAAAggggAACCCCAAAIIIIAAAggggAACCCCAAAIIIIAAAggggAACCCCAAAIIIIAAAggggAACCCCAAAIIIIAAAggggAACCCCAAAIIIIAAAggggAACCCCAAAJ7Cvx/0T5YGVgsWD4AAAAASUVORK5CYII=;" vertex="1" parent="1">
          <mxGeometry x="778" y="302.88" width="15" height="15" as="geometry" />
        </mxCell>
        <mxCell id="fqA9Xs131egoBfww3Tdx-41" value="Экран 3" style="text;html=1;align=center;verticalAlign=middle;whiteSpace=wrap;rounded=0;" vertex="1" parent="1">
          <mxGeometry x="673" y="82" width="60" height="30" as="geometry" />
        </mxCell>
        <mxCell id="fqA9Xs131egoBfww3Tdx-42" value="" style="rounded=1;whiteSpace=wrap;html=1;fillColor=#d5e8d4;strokeColor=#82b366;" vertex="1" parent="1">
          <mxGeometry x="617" y="150" width="120" height="144" as="geometry" />
        </mxCell>
        <mxCell id="fqA9Xs131egoBfww3Tdx-43" value="Сообщение с расписанием и рекомендациями." style="text;html=1;align=center;verticalAlign=middle;whiteSpace=wrap;rounded=0;" vertex="1" parent="1">
          <mxGeometry x="625" y="166" width="104" height="112" as="geometry" />
        </mxCell>
        <mxCell id="fqA9Xs131egoBfww3Tdx-47" value="" style="rounded=1;whiteSpace=wrap;html=1;fillColor=#d5e8d4;gradientColor=#97d077;strokeColor=#82b366;" vertex="1" parent="1">
          <mxGeometry x="665" y="113" width="120" height="28" as="geometry" />
        </mxCell>
        <mxCell id="fqA9Xs131egoBfww3Tdx-48" value="Ответ пользователя" style="text;html=1;align=center;verticalAlign=middle;whiteSpace=wrap;rounded=0;" vertex="1" parent="1">
          <mxGeometry x="697" y="112" width="60" height="30" as="geometry" />
        </mxCell>
        <mxCell id="fqA9Xs131egoBfww3Tdx-50" value="&lt;font style=&quot;color: rgb(0, 0, 204);&quot;&gt;Основной сценарий&lt;/font&gt;" style="text;html=1;align=left;verticalAlign=middle;whiteSpace=wrap;rounded=0;fontSize=27;" vertex="1" parent="1">
          <mxGeometry x="33" y="24" width="264" height="30" as="geometry" />
        </mxCell>
        <mxCell id="fqA9Xs131egoBfww3Tdx-51" value="&lt;font style=&quot;color: rgb(153, 0, 0);&quot;&gt;Альтернативные сценарии&lt;/font&gt;" style="text;html=1;align=left;verticalAlign=middle;whiteSpace=wrap;rounded=0;fontSize=27;" vertex="1" parent="1">
          <mxGeometry x="33" y="513" width="366" height="30" as="geometry" />
        </mxCell>
        <mxCell id="fqA9Xs131egoBfww3Tdx-53" value="" style="rounded=0;whiteSpace=wrap;html=1;fillColor=#D4E1F5;" vertex="1" parent="1">
          <mxGeometry x="30.5" y="672" width="192" height="232" as="geometry" />
        </mxCell>
        <mxCell id="fqA9Xs131egoBfww3Tdx-54" value="" style="verticalLabelPosition=bottom;verticalAlign=top;html=1;shadow=0;dashed=0;strokeWidth=1;shape=mxgraph.android.phone2;strokeColor=#c0c0c0;" vertex="1" parent="1">
          <mxGeometry x="26.5" y="648" width="200" height="390" as="geometry" />
        </mxCell>
        <mxCell id="fqA9Xs131egoBfww3Tdx-55" value="" style="verticalLabelPosition=bottom;verticalAlign=top;html=1;shadow=0;dashed=0;strokeWidth=1;shape=mxgraph.android.keyboard;sketch=0;" vertex="1" parent="1">
          <mxGeometry x="34.5" y="898" width="185" height="100" as="geometry" />
        </mxCell>
        <mxCell id="fqA9Xs131egoBfww3Tdx-58" value="Экран ошибки" style="text;html=1;align=center;verticalAlign=middle;whiteSpace=wrap;rounded=0;" vertex="1" parent="1">
          <mxGeometry x="82.5" y="658" width="93.5" height="30" as="geometry" />
        </mxCell>
        <mxCell id="fqA9Xs131egoBfww3Tdx-59" value="" style="rounded=1;whiteSpace=wrap;html=1;fillColor=#d5e8d4;strokeColor=#82b366;" vertex="1" parent="1">
          <mxGeometry x="42.5" y="724" width="120" height="144" as="geometry" />
        </mxCell>
        <mxCell id="fqA9Xs131egoBfww3Tdx-60" value="Уведомление о временной недоступности возможности планирования." style="text;html=1;align=center;verticalAlign=middle;whiteSpace=wrap;rounded=0;" vertex="1" parent="1">
          <mxGeometry x="50.5" y="740" width="104" height="112" as="geometry" />
        </mxCell>
        <mxCell id="fqA9Xs131egoBfww3Tdx-66" value="&lt;font color=&quot;#cc0000&quot;&gt;Недоступность&lt;/font&gt;&lt;div&gt;&lt;font color=&quot;#cc0000&quot;&gt;ИИ-агента&lt;/font&gt;&lt;/div&gt;" style="text;html=1;align=center;verticalAlign=middle;whiteSpace=wrap;rounded=0;" vertex="1" parent="1">
          <mxGeometry x="98" y="555" width="81.5" height="88" as="geometry" />
        </mxCell>
        <mxCell id="fqA9Xs131egoBfww3Tdx-67" value="&lt;font style=&quot;color: rgb(204, 0, 0);&quot;&gt;Пользователь&lt;/font&gt;&lt;div&gt;&lt;font style=&quot;color: rgb(204, 0, 0);&quot;&gt;ввел&lt;/font&gt;&lt;/div&gt;&lt;div&gt;&lt;font style=&quot;color: rgb(204, 0, 0);&quot;&gt;не все&lt;/font&gt;&lt;/div&gt;&lt;div&gt;&lt;font style=&quot;color: rgb(204, 0, 0);&quot;&gt;данные&lt;/font&gt;&lt;/div&gt;" style="text;html=1;align=center;verticalAlign=middle;whiteSpace=wrap;rounded=0;" vertex="1" parent="1">
          <mxGeometry x="423.5" y="555" width="81.5" height="88" as="geometry" />
        </mxCell>
        <mxCell id="fqA9Xs131egoBfww3Tdx-108" value="" style="edgeStyle=orthogonalEdgeStyle;rounded=0;orthogonalLoop=1;jettySize=auto;html=1;" edge="1" parent="1" source="fqA9Xs131egoBfww3Tdx-68">
          <mxGeometry relative="1" as="geometry">
            <mxPoint x="312" y="305" as="targetPoint" />
            <Array as="points">
              <mxPoint x="248" y="888" />
              <mxPoint x="248" y="305" />
              <mxPoint x="313" y="305" />
            </Array>
          </mxGeometry>
        </mxCell>
        <mxCell id="fqA9Xs131egoBfww3Tdx-68" value="&lt;font style=&quot;color: rgb(255, 255, 255); font-size: 15px;&quot;&gt;&lt;b style=&quot;&quot;&gt;Старт&lt;/b&gt;&lt;/font&gt;" style="rounded=1;html=1;shadow=0;dashed=0;whiteSpace=wrap;fontSize=10;fillColor=#1ba1e2;align=center;strokeColor=#006EAF;strokeWidth=2;fontColor=#ffffff;" vertex="1" parent="1">
          <mxGeometry x="36" y="880" width="183" height="16.88" as="geometry" />
        </mxCell>
        <mxCell id="fqA9Xs131egoBfww3Tdx-70" value="" style="rounded=0;whiteSpace=wrap;html=1;fillColor=#D4E1F5;" vertex="1" parent="1">
          <mxGeometry x="316" y="672" width="192" height="232" as="geometry" />
        </mxCell>
        <mxCell id="fqA9Xs131egoBfww3Tdx-71" value="" style="verticalLabelPosition=bottom;verticalAlign=top;html=1;shadow=0;dashed=0;strokeWidth=1;shape=mxgraph.android.phone2;strokeColor=#c0c0c0;" vertex="1" parent="1">
          <mxGeometry x="312" y="648" width="200" height="390" as="geometry" />
        </mxCell>
        <mxCell id="fqA9Xs131egoBfww3Tdx-72" value="" style="verticalLabelPosition=bottom;verticalAlign=top;html=1;shadow=0;dashed=0;strokeWidth=1;shape=mxgraph.android.keyboard;sketch=0;" vertex="1" parent="1">
          <mxGeometry x="320" y="898" width="185" height="100" as="geometry" />
        </mxCell>
        <mxCell id="fqA9Xs131egoBfww3Tdx-73" value="&lt;font style=&quot;color: rgb(204, 204, 204); font-size: 12px;&quot;&gt;Сообщение&lt;/font&gt;" style="rounded=1;html=1;shadow=0;dashed=0;whiteSpace=wrap;fontSize=10;align=left;strokeWidth=2;" vertex="1" parent="1">
          <mxGeometry x="322" y="878" width="183" height="16.88" as="geometry" />
        </mxCell>
        <mxCell id="fqA9Xs131egoBfww3Tdx-74" value="" style="shape=image;verticalLabelPosition=bottom;labelBackgroundColor=default;verticalAlign=top;aspect=fixed;imageAspect=0;image=data:image/png,iVBORw0KGgoAAAANSUhEUgAAAgAAAAIACAYAAAD0eNT6AAAAAXNSR0IArs4c6QAAIABJREFUeAHt3Q2QI2d95/HJQnzG5TKUC+zC8XrVj2Z3vbPzupr3HZPLGxXiSqAo7rhQJJdLkYKiihQ57pKQgrq9kEpySSAug/FI3Zo3jeZFsyFHCqgQAusLsFl7pO7WjKTRaA2YFxuwwfZiY7zr3emrnrVmZ8fzImla/fZ8XeWa3R1J3c+nHz2///N0q9XSwn8IIIAAAggggAACCCCAAAIIIIAAAggggAACCCCAAAIIIIAAAggggAACCCCAAAIIIIAAAggggAACCCCAAAIIIIAAAggggAACCCCAAAIIIIAAAggggAACCCCAAAIIIIAAAggggAACCCCAAAIIIIAAAggggAACCCCAAAIIIIAAAggggAACCCCAAAIIIIAAAggggAACCCCAAAIIIIAAAggggAACCCCAAAIIIIAAAggggAACCCCAAAIIIIAAAggggAACCCCAAAIIIIAAAggggAACCCCAAAIIIIAAAggggAACCCCAAAIIIIAAAggggAACCCCAAAIIIIAAAggggAACCCCAAAIIIIAAAggggAACCCCAAAIIIIAAAggggAACCCCAAAIIIIAAAggggAACCCCAAAIIIIAAAggggAACCCCAAAIIIIAAAggggAACCCCAAAIIIIAAAggggAACCCCAAAIIIIAAAggggAACCCCAAAIIIIAAAggggAACCCCAAAIIIIAAAggggAACCCCAAAIIIIBA7QJtU0u/15kqfPXETOn7fXPlFwczlbXhTMUaWahY95w+b42crlgnFyrWUOb82uB85XLvTOknPdPFSsdUId2dNg7XviUeiQACCCCAAAKeCbQ9cObmjtTydO9M+cJwZnU95O2gb+j/hfPWwPzq5Z508Vttk8vv9qxRbBgBBBBAAAEEthdoGzc/cGJm5cmTmasz+4YCf49CYWBu9XLXVOHMwPS5W7bfC/4VAQQQQAABBJoucCSefX1HqvDFgbnyS80I/J1e0z5d0DNdzPWM6W9oeiPZAAIIIIAAAghcFTiezP/uiXTpcfvc/U4h7ca/Dy1U1rqmlsY5LggggAACCCDQJIFYPPvarlThnwZmy5fcCPd6thGbKT1/bCx/oklN52URQAABBBCQT6B9wnxz13SpvO8L+vY4v19P4G/3WHv/jk8t/R/5jhAtRgABBBBAwCGBOzNnX9M5uTzXN1u+uF3Y+vXfRhbOW11ThUccYuBlEEAAAQQQkEOgbaz4y/Zs377Izq8hX8t+2dcntFjWATmOGq1EAAEEEECgEYFT1g2dqWWtb7b8s3sWGvy8fpOX92sJ/a2P6U6v/JAioJEOwXMQQAABBEIt0DG+1NGVKp4bzKwGera/Nfjtv9ufTjg2UbCEqn8t1AeRxiGAAAIIIFCrQOdk8b7emZXn7fPl24Vn0P/Nvs3w3RPLVjSZv/q/aszXasPjEEAAAQQQCJXAtdl+OXSz/c0Fy/BCxTq6OfyTeUsk89ahRPb9oTqgNAYBBBBAAIEdBSzrVccnCx+PpYvP2F+4szkow/hne+Z/dHzp2sy/ugKwXgSYl0XCPLKjFb9AAAEEEEAg6AJtE/lf6U4VKsOZSqhn+5uLGPseAEd2CP9NpwK+F/Rjy/4jgAACCCBwvcAp64b2yWW1b3blhc3BKMOfh+ZrCP+XVwMi8dyp6+H4GwIIIIAAAgEUOJZavrdruvCNoSZ+A5+fi4jBTMU6vNfMf9OpgKhmXoqMG68L4KFmlxFAAAEEZBew79K3MdsP6ZX8tRQdQ/ay/9j25/w3lv03h391FUDN/YPsfYj2I4AAAggESKB9wp7t+/+e/LWE934fMzi/ah0ee/ljftuE/G4FgEial1vvP3dLgA49u4oAAgggIJtAW6Z4a1dq+XP9syuXZLiSv5bCYD/hXy0MlIQ+JVtfor0IIIAAAgEQaJss/r59P/uTkp7b36kQGJgvW60Nzvyr4W//FJr5fAC6AbuIAAIIICCDQPeDRqR7qvDQwPzqSzsFoMz/3j+3arU2cM5/c/Bv/rOIG/fK0K9oIwIIIICATwWOTyx97MRM6emTEl/Qt1dh0z9btlqT9V/wtznwt/5ZJPSv+7RLsFsIIIAAAmEVaEsY3etfxDNfubJX+Mn++7718G/sgr+tob/570IzfxrW/kW7EEAAAQT8JCDxzXoaLWLs8N8c2k7/mdsD++kNwr4ggAACIRM4Nl74L92p4mND8+G/H3+jQb/d83pnV6yoAxf87VY0KPHFvwlZd6M5CCCAAAJeCrTPfPP2rqni5wZmy5e2Czf+bfevIo7NrDR15l8tCpSE/m9e9hO2jQACCCAQEoGO8aWPxtKlp04uMNtvtMg54VL420WAUM3vhKTr0QwEEEAAAbcFOsaXOuwL+gbmV7mg7/TuM/u9ioJY2p2Zf3UFQKjGC273F7aHAAIIIBBkgZcv6OudKT3HHfr2F/rVoqDH5fBfXwFI5q8EuRuy7wgggAACLgkcT+Z/t2e6+B37++erwcXP/RcA3emSK+f8qzP/jZ9a3nKp67AZBBBAAIGgCRydLd/BBX37D/mdCqXuaY/C/+UvEWrLFG4OWp9kfxFAAAEEmiVgWQeOj5sf750pXRjhDn1NW+3oTBW9mflv/gbBBx452KxuxOsigAACCARE4NpX7lbWdpqx8u/OrAZ0ejzzr54GiMWzNwWke7KbCCCAAAJOCvCZfWcCvZ7CqMMPM3/7Y4BJrgFw8r3EayGAAAL+F7CsA8fGl/66d6b0LEv87hUA9icm/BL+658C0Ew+BeD/dyt7iAACCOxfoG1y6S1d06XyUIYl/npm7I48duG81TFV8P6c/6bz/0Iznt9/r+IVEEAAAQR8KXAslX1j52Thn/vnyhfv4YK+pl3Qt1eRcHzKBxf8bQr/9RUAVf+uLzstO4UAAggg0LgAt+V1b2l/t/C3T7Ec99nMv3oBoJLQv9R4D+OZCCCAAAK+EbCv4u+ZLlYGWeL3bKa/uRgYOX3eapv017J/Nfztn4qa+zPfdF52BAEEEECgPoH2seWDHVPL/9I/u3KJJX5/zPrtIsDv4W8XAIc++bBSX2/j0QgggAAC3gqcsm44Pln4eCxdfIar+P0T+tXZv/1tiMcmln11wd/mmb/9Z6EZF7ztxGwdAQQQQKBmgeNj+ff0TBcf4yp+/4V+kMLfLgAiau6fa+54PBABBBBAwH2Btkmzp3OqcG5gbvVyNWT46c8CwJ753z2x5OuZf3Ul4JC6+Bvu92a2iAACCCCwq8CdmbOvaZ9cVte/bneh4osL2ig6di86hjN2+Pt72b8a/kIzfrprB+SXCCCAAALuCrSNmx84kS49bocJgbt74PrJxz5eR8eDEf7r5//V3D+527PZGgIIIIDAKwTaJ8w3d6cK+YH51St+CjX2pbYCxA7/I+PBWPbfWAF4wOh7RUfkHxBAAAEEmi9Q/QKevrnyi3x0r7ag9WNBMhTE8NfMp5vfw9kCAggggMA1gc0f3TvNEr8fA72efbLD//BYsGb+9gqAktCnrnVK/oQAAggg0DSB9qnl961/dG/h/Fo9AcNj/bsyMDQfvGX/9eV/LW+JUeNw0zo7L4wAAgjILtA9XujrShX56N5p/4Z4owXW4PxqIGf+Vy/+078v+3uT9iOAAAKOC1x3Xj+EwddoYIbpeVfDPx+Iz/lXL/jb/FNoufsc7/i8IAIIICClwObz+nzVbqg/ujgwV7Zak8E7518tAIRmWtEH87dJ+T6l0QgggIBTAscnC++/ektezuuHaYa/U1sG5lat1rHgzvztIkDRjG841f95HQQQQEAqgY3P63NL3lDP9LcWAf0Bn/lXVwAUVf+oVG9YGosAAgjsR+DobPmOrqni5/i8fvgu5tsa9Nv9vW89/IM987cLAKHlr8Ti2Zv2817guQgggEDoBez78HdNFcZjsyvPneRiPqlm+5uLgN7ZcmAv9qvO+qs/Fc1YDv0blwYigAACjQps3Id/YVXa0NscgDL/uXd2JTThbxcBkUT2fY2+L3geAgggEEqB9inz7V3TpfJQZpWb9LDasV74xWbKVjTgF/xVZ/5Xf5ovtVjWgVC+gWkUAgggUI8AN+mR83x+LSsasZlwzfztAkCJ62freX/wWAQQQCBUAtddzMdMl1Mc2/SBEyEMf7sAODSae3uo3sw0BgEEENhLwL6Yr31yWe2dKT03wk16CP1tQr+6KtCTLoXqnH/1FIDQzBf3ep/wewQQQCA0Ah3jSx+NpUtPnczwjXvVgOPnzqc9etLhW/avFgCKqv9LaN7YNAQBBBDYTqB6Z77hTIWL+XaZ6VIIXF8IdId05r9RAIzqb9ru/cK/IYAAAoEWaJ9Yvrc7VcgPcGc+lvcbKHq6psO57F8Nf6EaPwn0G5ydRwABBDYLdIwvdXSlCmfsO/ONnGaJnxn99TP6Wj26pouhPOdfDX/7p6Iamc3vHf6MAAIIBE7A/prdzsnlub7ZlRdqHeB5XGPBKINbZyr84S+SeSuqLbYH7s3ODiOAAAItm79ml5k+S/wNLPFvLWbsFaOOVCH0M3979i9U4ylGEQQQQCBQAhu34+UKfkLfgdCvFgF2+LdLMPOvngJQVCMeqDc+O4sAAnIKdEyW33r1drxcwV8NLH46ewqjfUqOmf/VAsC0og88clDO0YRWI4CA7wXunsjFulLFc1zB72zQUTi80vP4pEzhby//m9/x/QDADiKAgFwC3I73leFEYDfPZGShYrVJFv72CkAkrv+VXCMLrUUAAV8KcDve5gUcxcPOtiOnz0sZ/tFkfq31/nO3+HIwYKcQQEACAct61fHJwsd7Z1Z+fHKBz+oT1DsHdTNs7Av+jkk487dn/4qqr0owwtBEBBDwm4B9BX/PdPExbsfrbuA1I0SD+pp2wXn35LIUH/WrXvG/+aei6h/y27jA/iCAQEgF2qbz77Cv4B/kHvx8bM/Bj+01UoDY4X9sQq4L/jaHf1TLX2nJZG4I6VBDsxBAwA8C3IOfGX4jAd3M56zP/MflnfnbhYBQjawfxgf2AQEEQiZw9WN7hTMDs+VLzRzIeW2Ki3r7wPBCxTo6IXf42wWAopm/E7Jhh+YggIBXAtHZ5YNdU8XP2V+8U++gzOMJcjf6wHCmYh0dX5L2nP/GKQDNuOTVOMF2EUAgJALVL97pnSk9d9Ljc7puBAjbCG6hMpxZtY4Q/uvFj5LQHwrJEEQzEEDATQH7s/r2x/Zi6eIzfMVucANRpmJmaJ7w35j92zf/Gc39uptjBttCAIEgC2x8217pKXsZVabwoK3BLnIGMxXrMDP/jdMeQjOeD/JQxL4jgIBLAtXP6g/xsT2KngCe4hnKrFqHxzjnv3n2ryRyn3Vp+GAzCCAQNIH2seV38m17wZ71smpx3hqct8M/vzHz3RyCUv9ZzcWCNiaxvwgg0ESBton8b3WnCnm+bY/gD0PxQPhvX/gIzXy6icMIL40AAkER4LP6hH0Ywn5rG/rnV61WZv7brnwoCX0qKOMT+4kAAg4L9IwV2rpShTN8Vp/w3xqcYfj7AOG/bfCvn/LQ8pYYNQ47PKTwcggg4GeBzZ/Vt7/zPAwDPW2ggNnaB/pny1Zrkgv+drq+Qaj69/08TrFvCCDgkID9Wf32yWXVvkHPyAJhsTUs+Hu4+kTfevhvf957p0CU7d+FlrvPoeGFl0EAAd8JbPqs/kk+q89KRwA/ttdIYWaHv2xhXm97hWZa0Qfzt/luzGKHEEBgfwLHJ5f+/ES6+ENCP1yz2kbCULbn9M6usOyf3HvlQ1GNb+5vlOHZCCDgGwFu0EPYyxb2W9sbm1lh5l9D+NurBYqqf9Q3gxc7ggAC9Qu0Teff8fJn9a9sHQz5OwWBTH3gBOFfc/EjtPyVWDx7U/0jDs9AAAFPBdonlu/lBj2Eu0zhvldbY2lm/vVcA6Co+pKngxgbRwCB2gW6xwt99mf1B2bLl/YaDPk9xYFMfaCH8K955l8tEiKJ7PtqH314JAIIuC7QMb7UsXGDHj62xxX8klzBX0/xQvjvfbFfNfSv/TRfarGsA64PaGwQAQR2Fzg6W76jc3J5rm925YV6BkIey6xftj7QPV2qe+Z7LQQbCc5wPEeJ62d3H4X4LQIIuCZw/V35CDLZgoz21t/nO1NFwr/Gq/23Fj2HRnNvd21wY0MIIPBKAfuufMcnCx+PpYvPjJzmVryEYP0hKKtZJzP/hosfoeVffOVoxL8ggEDzBbgrH+fxOY+/rz7Qwcy/4fC3VwKUeO6LzR/o2AICCGwIdIwvfTSWLj01zK149zX4yzrjpd3nLXuVjPDf/zUIyqj+po2BiT8ggEBzBDbuyrdQWWMAZ3mbPrCPPrBw3uqYKuxr5rv1PLiMfxdJ80JzRjteFQEEWtqnlt/XM118bDBD6BN4+wg8ThNct1J0fIoL/hwpWFRjnmEaAQQcFOiYLL+Vu/IRdhQ8zvcB+yurjzPzd2TlQ9ifGNAW2x0c+ngpBOQUaJtceguh7/yAT4hiWu0DIwsVq21y2ZHwc2T23OBH7vyybaEZT8o5WtNqBBwQuHsiF+OufARUNaD42by+MHL6vNU2yTl/J4sHkciNOjAM8hIIyCPQM1Zo654qPNQ/W754D7five68LAHYvACU2fbkQsW6m5m/sysfWt46lsq+UZ6Rm5Yi0KDA9Xfl4wY9MocRbXe3yLHD/9gEy/5Ozvzt1xKq+Z0Gh0OehkD4BXrG9DfY99/vnSk9Z194xMCPAX3A3T6wPvOfWHJ25hvw8/ZOFQKRuP5X4R/FaSECdQhcuxVv6Sl78GHAd3fAxxvvah+wb5B1NzP/ZhU/a633n7uljqGRhyIQUoFNt+IdXlgl9Pm8OX3A4z5gh//RcZb9nZrtb30dRTXKIR3NaRYCtQls3JWPG/QQeB4HXnXWy8/z1nBm1ToyzrL/1tB28u+Kqn+otlGSRyEQIoFrob/KrXgJPQofn/UBe+ZP+O//3v67Fgta/kpLJnNDiIZ1moLAzgLtU+bbX75BzxVmWJxjpg/4sw8MZSrW4TFm/ruGtwMXMArVyO48WvIbBEIg0D6xfC935fPnQE8Ac1y29oGheWb+zQ7+6usrmvk7IRjiaQIC1wtU78o3MFu+tHWA4e+EDn3An31gcH6Vmb8DM/tqwO/6UzMuXT9q8jcEAizQMb7UsXErXp+dzyRw/Bk4HBf/HJer4d/kc95uhWsAtqMk9IcCPNyz6wi0tBydLd9h36Cnb3blBQZz/wzmHAuORT19YGCubLUmOee/64zd4aIiMpr7dTIEgcAJcFc+wqWecOGx/u4vA3OrVusYM383w19oxvOBG/jZYXkFrt2Vr/gMd+Xz94BO4HJ8au0D/cz8m3V3v11fV0nkPitvmtDyYAhsvitfhlvx1jqo8jgCOAh9oG89/Jn5uznz39iWmosFIwTYS+kE7Bv0nEiXHrdvBBKEgYx9JHDpA/X1gf7ZMsv+Dp/T3wj3PV5XqMbT0oUKDfa3wLW78lW4Kx+fYKDwC3Ef6J1d2XV5utYg43GNrZ4oanbS32nA3kkh0Da19Hs904VvDs5zK15mkPXNIPEKpldshqv9PS1ctLx16JMPK1IEDI30n0Db5NJbuCtfMAdvQpfjtp8+EJth5u9p+CfzllD1J/yXCuxRqAXaEkb3xg16FhhE9zOI8lz6TxD7wAnC3xenPYS6+PehDhsa5w8BbtBDUAUxqNhn5/ttT7rki/Dzevbt9fZFMr92Rzz7en8kBHsROgFu0OP84EkgYRrkPtCTZtnf6+Cvbl+o+qOhCx0a5LHAps/qc4MewirIYcW+O9t/u5n5+2rlQxnNfsTjtGDzYRHgs/rODpaED55h6gNd0yz7V2fefvgptPyVyKkzN4Ylf2iHBwLHJwvv75kuPjaU4bP6YRqsaQvFh5N9oGu66KuZrx8C2Ot9UFR9yYPIYJNBF2ibyP8WH9sjIJwMCF4rvP2pM0X4ex32220/ksi+L+hZxP67JNA9XujrShXPDcytXmawDu9gzbHl2DrVB0ZOV6yOVIGZ/x634d0unJv/b+ZLLZZ1wKX4YDNBFOgZK7RtfFY/xLchdWrA43UIT/rA1T5gh387M3/fFj9KXD8bxExin5ss0D7zzds7J5fnemdKz40s8MU7DOiEOn2g/j7QPsXMv/mz+Mbu+2/v16HR3NubHCW8fFAE7sycfc3xycLHY+niM3blzoBX/4CHGWb0gat94Pgk4e/n8Bda/sWgZBP72SyBTZ/V5yt2CS/Ciz6w3z5grxi2Ef6+XfavFiVKPPfFZsUKr+tzAb5il4F+vwM9z6cPbe0DI6fPE/6+vNjvlacJlFH9TT6PKXbPSYG26fw7uqZL5UE+q8/pDS7mpA843AdGFs5bx5j5+37mb68AiKR5wcls4bV8KsBX7DJL2zpL4+/0Caf7gH2r77snlwMRftUlcKl/qsa8TyOL3dqvgH0Ff0dq+YsDs+VLTr/ReT3Cgz5AH9jcB9bDf4LwD0pBIZJ5q3VMb9tvzvB8nwl0P2hE7DvzcTEfA/TmAZo/0x+a1QfWw3+c8A9K+Nv7KTTjSZ9FF7uzL4FT1g32jXoIfgb6Zg30vC59a2sfGF6oWEeZ+QfutIdI5Eb3lTc82T8C9pfwDM6Vr2x9c/J3Bmz6AH2gWX3AnmwcGV8KXPgFaabelH3V8taxVPaN/kkw9qRhge500bA/dtOsNzmviy19gD6wtQ9cDX+W/ZsS0E3+CKFQze80HDg80R8C9kV+vTOln2x9Y/J3Bmv6AH2gmX1gaH6VmX+TQ7qZhUUkof+lP1KMvWhIwP42voH5VZb8Wflg5Yc+4GofWA//MZb9mxnQzX1tc631/nO3NBQ8PMl7gbax4i8Pzq+uNbPC57WZQdIH6ANb+8DgfMU6TPgH+poHRTXK3qcYe9CQgP2VvIPzFWb+zPpcnfVtDQL+Ll9xMDi/ah0ee+WtZJs7W2V7TvuKeO6PGgofnuStQM+Y/oaB+dWXGHzlG3w55hxzL/vAwHr4s+zvdBi7/XoiaV5uOWW92tskY+sNCcRmSs94OQiwbUKIPiBfH+ifX7VamfkHetm/WmgoqrHYUPjwJG8F7Bv8MPjKN/hyzDnmXvaB/jk7/Jn5VwM06D8Vzfwdb5OMrdctYH+Rj32rTS8HArZNENEH5OoD/XNlqzVJ+Ac99Df2XzMu1R0+PMF7gf7Z8kUGX7kGX443x9vLPtA3Ww7FkvdG+AX4M/tOtUFJ6A95n2bsQV0CnanigpcDAdsmiOgDcvWB3tkVwj+EBcPBuPnmusKHB3sr0PbAmZsHMxU+789H/jj9Qx9wpQ/Y4c+yf/g+eig046fephlbr1uga6rwFWZfcs2+ON4cb6/6QGyGmb9Ty+1+ex0lkfts3QHEE7wV4IY/hIFXYcB25ep7Jwj/cJ/2UHMxb9OMrdcl0DlZvI9BWK5BmOPN8faiDxD+4Vvy37wCITTz6brChwd7L9A7W37Wi8GAbRJC9AF5+kBPmmX/zWEZxj8ranbS+0RjD2oWsG/5O3Kaz/0TRPIEEcfa/WPdnS6Fe9k7hFfy112gaHnr0CcfVmoOHx7ovUD75LLKgOj+gIg55rL0ge5pwr/uMA1gQSFU/QnvE409qEugZ7r4A1kGItpJ6NIH3O0DXdNFZv4BDPNGChah5e6rK3x4sPcCg/OVywyK7g6KeOMtQx/oZOYvTfEjkvm1O+LZ13ufaOxBzQL2zX84/08YyRBGtNHdft6RYubfyCw6qM8Rqv5ozcHDA/0hcHyy8H4GRncHRrzxDnUfWDhvdUwVpJn5BjWwnd5vRdU/6o9UYy9qFuiYKqRDPRhxS1dXbulKH6KoWe8DhL+UhY/Q8lcip87cWHPw8EB/CHSmCosM3gze9AH6wH77wMjCees4M38pCwBF1Zf8kWjsRV0CJ6YL39jvG5/nEx70Abn7AOEf7rv77XW6IBLPvbeu4OHB/hDoSRe/y+At9+DN8ef476cPjCxUrLbJZSlnvnsFoxS/18yXWizrgD8Sjb2oS4B7ADD472fw57ly9x975t82QfhLEfQ73MtAietn6wodHuwfAVYA5B7ACXCOf6N94ORCxTpG+Eu/8hHRjLf5J9HYk7oEulPFRxsdAHge4UEfkLMPEP5yn/PfWPHQzJ/VFTg82F8CfApAzgGc4Oa4N9oH7PC/m5m/9DN/uwhQ4rkv+ivR2Ju6BLgPAEHQaBDwPPn6znCG8N+Y/e5wTlym39+VzI7UFTg82F8CbePmBxjI5RvIOeYc83r7gB3+R8e54E+mgN+trSJpXvBXmrE3dQvE4tnX8l0AhEG9YcDj5eozw5lV68j4EsvezPo3+oASz83VHTg8wX8Cg/OrfBsgtwzmlsH0gW37gD3zJ/y56G/zaoBI5q3WMb3Nf2nGHtUtEEuXfsCMTq4ZHceb411LHxiar1iHmflvzHo3h6DMfxaq8VTdQcMT/CnQPrms1jIY8BhCgz4gTx+ww5+ZPzP/7QodkciN+jPN2Ku6BdoyxVu5DkCegZ0Q51jv1QcG51etw2OE33bhJ/2/aXnrWCr7xrqDhif4V6B3ZuXCXoMCvyc46APh7wOEP4XPbkWOUI1v+zfJ2LOGBDoni/cxuId/cOcYc4x36wMDc2WrNcnV/rsFoOy/iyT0v2woZHiSjwUs61WDmfLaboMDvyM86APh7QP96+HP7Ff2gN+9/eZa6/3nbvFxkrFrjQp0The/xAAf3gGeY8ux3akPXA1/Zv67hx/FkaLqK43mC8/zuUDbA2duHsqssgrA58G3/Tz4TuHBvwe7sOifLVutXPDHR/1quMmRouof8nmMsXv7EeicXJ5jQA/2gM7x4/jV2gcIf2b1ta56iKR5uSWTuWE/+cJzAyDQP1u+WOsAwuMIG/pAMPtA72zZijLzZ+Zfw8zfLhKEamQDEF/s4n4F2iaX3mJ/5ScDezAHdo4bx22vPhCbIfxrnfnyuKsbQQreAAAgAElEQVSrJMpo7t37zRaeHxCB7qnCQ3sNIvyeoKEPBK8PnJhZYdZb46yX8K+eIjEvBiS62E2nBGLp4jMM8MEb4DlmHLOd+gDhXw00ftZT3CiqfsapXOF1AiLQM6a/YWCObwrcaTDl3wnaIPWBnjQz/3pCj8deK5IOxs03ByS22E0nBXrGCm0D86tXgjTQsa8EM33g+j5A+F8LM4K9Pguhmc87mSm8VsAEjk3qvzo4z/0BCJXrQwWPYHh0TZc45885/4b7gJLIfTZgkcXuOi3QljC6B+Y5HUDoBSP0OE5XjxPhX99sl9WBbbzUXMzpPOH1AijQMbYkemdXfsrgSgjSB/zfBzqniw3P+gjCbYJQwlUEoRpPBzCq2OWmCVjWq3qmi0UCwP8BwDGS9xh1pAh/ipj9FzGKmp1sWpbwwsEVaE8X/3BwrszFgXxvADeM8lEfGDldsTpSBWb+Es7WHS94tLx1MJ6NBjel2POmCsTi2dd2p4sGdw2Ud6bJKoOPjv3Ceat9ipm/40EoaTEhVP2JpgYILx4OAfsCwZ7p0rdPLvhoMPTRrIyQpF+40QeOE/6sfDhYrAh18e/DkVC0whUB+yLB7lRJH5jjvgFuDPhsg8LC7gMjp89bx6dY9mfmv/9z/lVDkcyv3amdvdWV4GAj4RM4PlX4o76Z8k8IKUKKPtC8PjCyULHaJgn/anDx05kiQNGMb4QvlWiR6wInppff3TdbvkAINC8EsJXT1p75E/7OBB6Fw/WOymj2I66HBRsMr0DXRPG/UQjIGVQUKM4fd/vC22MTy5zzdvCcN0XA1SJAaPkrkVNnbgxvGtEyzwQ608v/o3+OmwkRis6HoiymdvjfTfhT/DSp+FFUPe9ZQLBhOQS6pgt/2j+38qIsgzbtJPCd6ANXZ/6c82e2fv2SvZMekXjuvXKkEK30XKBjovSR/vkyhQAfW+SGQnv0gfWZ/zjL/k6GHa+1pZDQzJdaLOuA58HADsgl0JUqfHxgrnzJiVkSr8FsO2x9YHihYh1l2Z9l/yYt+1cLIZHQvy5X8tBaXwl0Ti7fN8i3DjIb3mM2HLaA3609w5mKdXR8ifBrcvhVQ1DmnxHNeJuvAoGdkVDAsn6uc3r5waH5yuXdBkZ+x0w/7H1gKFOxjhD+FD9uFD+a+TMJ04Ym+1bglHWga2p5eihT4UuHmBFLtyoyNL9K+LsRfGxjvcCKqLl/9m0WsGMSC2wUAqtrYZ/x0T5WNew+MJipWIeZ+TPzd7E4uSuZHZE4ZWi63wVav3D+P3RPFj47nKEQoFAIb6EwlFm1Do9xzl/mc/Fut11oxgW/j//sHwLrAnd+4ruv6Z4ufenkQoUVAU4NhOrUwOC8Hf5bPprl4izQ7eBhe/441ko8N0e8IBAogTviT9xkFwL2VdLMiMM7I5bl2BL+/ghD2YoSkcxbrWN6W6AGf3YWgapAbGb19T0zpa8PZ1YpBFgRCGQf6J9ftVqZ+XPO34PVHqHqT1bHUn4iEFiBe8b0N/Skiw/bd0yTZdZIO4O/8jFA+BP8HgR/daVDqNkHAzvos+MIbBUY+Ow3b+9OF3UKgeCHY9gLnP65stWa5IK/ahjx0/3TIIq6fPvWMZS/IxB4gR5NP3QivZKnEKAQ8GMh0bce/u4P+IQs5tU+IFT924Ef6GkAArsJ9KbKR2MzpdURTg1wasQn10j0zq6w7O3hsnc1AGX/qai5v9ht7OR3CIRGoGe60BZLr3xj5DTXCPhxRizLPvXOlq0oF/xRAHleAJlrrfefuyU0AzwNQaAWgVhmqeNqIcDSuCyh65d2xpj5E/yeB//VUyCKqpdqGS95DAKhFOgYW/rF2MzK90YWKAT8EpBh3o8TMyz7y77k7qf2i/jiB0M5sNMoBOoRaE+t/MdYuvjDeygEuEagSdcIxNKEv5/CT/Z9EUnzcksmc0M94ySPRSDUAh2TS79qFwJcI8CKiJMrET2EP8v+Pln2rxY+imoshnowp3EINCrQNVH8z30zpaedDAFeS86igvDnI3fV0PXTT2U09+5Gx0eeh4AUArHplXf1zZYvEN5yhvd+j3v3dImZr89mvn4KYc/2RTMuSTGA00gEnBDonC78VwoBioB6CoKu6SLhT/j7sg8oqn7GiXGR10BAKoGO1NJ/759b+Wk9QcBj5SscOpn5+zL4PJtx+6wQOhg33yzVwE1jEXBSoHu69Mf9cysvEu7yhftux9y+eLQjxcyfoPXvdQ9CM593cizktRCQVqBzauXD/fNlCoEmfXRut7D12+/s8G+fIvwJf/+Gv31sFNX4v9IO2DQcgWYIdKVLfz4wX77ot1Bif9xboTg+VWDZ22dL3RQj2xQjai7WjDGQ10RAeoGuVOETg/Orlwhe94LXD9bHmflT/ASg+BGa+WPpB2kAEGiqgGX9XGdq+dND86uX/RBO7EPzihH7FtLM/LeZZQYgDGVcHVDi+kRTxz5eHAEEXhY4ZR3oShW0ofnKFUK4eSHsla391dJtk8vMfAn7YPQBLW8djGejjM8IIOCmgF0ITC1PD2UoBLwKa6e3O3L6vNU2yTl/GWfRQW2zohqPuznssS0EENgkEItnf75rujQ3lKmsOR1IvJ57KwwnFyrWsQlm/kENQln3W8SNT2wajvgjAgh4IRA5860bu1PFzw8vUAgErXAh/DnfH8QCQiTza3dqZ2/1YrxjmwggsI3AHfEnbuqeLn1peOE8KwIBuI+AHf53M/MPxvlurku47jgJVX90myGIf0IAAa8FWqd/fEtsunRmOLNqBW1GLMv+DmcI/yDOfNnnqys2ipr7M6/HObaPAAK7CNwzpr+hJ1182J5pyhKsQWinHf5HxznnT5gG8/SH0PJXIqfO3LjL0MOvEEDALwLDn3n0tu50UacQcO/Cvp0KEXtV5sj40nXLqQRhMINQ1uOmaIbpl7GN/UAAgRoF+maXD55Ir+Tte8zvFFD8e/OKBHvmT/gT9kEvHJSE8Qc1Djk8DAEE/CbQNblyJDZTWrVvPEPgNy/wN9sOZSrW4TFm/kEPP+n3XzNfarGsA34b09gfBBCoU+DEVOVYLL3yDVYEmlsEDM0z85c+OEPyKQKh6l+rc5jh4Qgg4GeBvnSlO5Zeecy+G93mWSt/3r/H4PwqM/+QhB9FTN6KaMbb/DyWsW8IINCgQP9subd3pvSdexb2H3wUD+etq+HPOW+CMxx9QKjGCw0OLTwNAQSCItCdWv6PvenSExQCjRdCA3NlqzXJOX/CPxzhbx/HSML4QlDGMPYTAQT2KdA5VfzlWLr4Q64RqK8QGJhbtVrHwjPwE+IcS7sP3JXMjuxzSOHpCCAQNIETM4Xf7J1ZeYpl/b0LgX5m/tzjIITXPAjNuBC0cYv9RQABBwW6p5be1TdXfoZCYPtCoG89/JktsmIQvj6gxHNzDg4lvBQCCARVoCdV+N2+2fIFCoFrhUD/bJll/xDOfClm8pZI5q3WMb0tqOMV+40AAk0Q6Jpefl//XPk52QuB3tkVK8o5f5b+Q1oACVV/sgnDBy+JAAJhEOhOlf7nwFz5BRkLgdhMmfAPafAx+796KkOo2QfDME7RBgQQaKJA12ThT/vnyy/KUgjEZlaY9RL+oe8Dirp8exOHDV4aAQTCJNCZWj41OF++GOZC4AThH/rgYwUgbwlV/3aYxibaggACLgl0TS3/3eD86qWwFQI96RLhx8xfij6gqLm/cGm4YDMIIBA6Acv6ua508ZND85XLYSgEetIs+zMzDt/H/LY/puZa6/3nbgndmESDEEDAZYFT1oGuVEEbzgS3EOhm5i/FrHf7MJQl9K+1U1H1ksujBJtDAIFQC7xcCAxlKleCtCLQNc2yP8F4LRxlsBDxxQ+GeiyicQgg4I1ALJ79+a7p0txQZnXN74VA13SRmS/n/KXqAyJpXm7JZG7wZnRgqwggIIVAW6ZwQ0+69A/DCxVfFgKdKcJfhtkubbx+dUNRjUekGIBoJAIIeC8QOfOtG7tTxc8PL5z3RSFgfwNiR6og1ayPELw+BGX2EPHsu7wfFdgDBBCQSiAW/8ZrY9OlM16uCNjh3z7FzF/mAJS67Zp5UapBh8YigIC/BLrHv/W6E6niV08uVCy3rxFon2LmL3UASn69g0jkvuKv0YC9QQABKQWGP/PobT3p4sNuFQLHJwl/wl/uUwEH4+abpRxsaDQCCPhToG92+eCJ9Ep+pEkrAvbrthH+XPMg++xfM5735wjAXiGAgPQCw+nSod6ZlYKThcDI6fOEv+TBx6rH1VWPSCL3j9IPMgAggIC/BTpT5aOxmdLqfgsB+9TCsYllZr4UAPQBuw+ouZi/3/nsHQIIIPCyQF+60h1Lrzw2snC+7osF7fC/m/An+Ch+1vuAUI0fM7AggAACgRPony339s6UvnNPjYXA1Zk/F/yx9C33BX+bj39EzY0F7o3PDiOAAAJVgY4p/Rd706UndisEhjMV6+5xlv03D/78WfJCQMtbB+PZaPV9xE8EEEAgsAInUsVf751Zecq+qc/m+wgML1Ssoyz7s+zPsv91fUBRjccD+2ZnxxFAAIHtBLpTpXv7Z8s/sosAe+Z/dHzpuoGPma/kM18Kgavn/+PGJ7Z7//BvCCCAQOAFemcL7zicNPVo0qQAIPToA5v6gEjm1+7Uzt4a+Dc5DUAAAQR2E2hV84NKQjcpBJj5s/pztQ8IVX90t/cMv0MAAQRCJXAomf0le+AjBCgEZO8Dymj2I6F6c9MYBBBAoBYBkdArsgcA7Ze3CBJa/krk1Jkba3mv8BgEEEAgVALrKwGbzocShvKGoYzHXtEMM1RvaBqDAAII1COgqMY3ZRz8aTPFjpIw/qCe9wqPRQABBEIlcEhd/A3CkDCUrg9o5kstlnUgVG9mGoMAAgjUKyBU49vSBQCnPqT+OKBQ9a/V+z7h8QgggEDoBBQt95sUAKwCyNQHIprxttC9kWkQAggg0IiAfTtUmQKAtspb8AjVeKGR9wjPQQABBEIpEFVz7yQU5Q1FmY59JGF8IZRvYhqFAAIINCogVPMHMgUBbZWz4LkrmR1p9D3C8xBAAIFQCiijuXcTinKGoizHXajGs6F889IoBBBAYL8CQjWekiUMaKd8xU4kkZvd73uE5yOAAAKhFLBvjkIwyheMMhxzkcxbrWN6WyjfuDQKAQQQcEJAaObTMgQCbZSr0BGq8UMn3h+8BgIIIBBaARHP/RHhKFc4ynC8I6r+6dC+aWkYAggg4JSAfbGUDKFAG+UpdBR1+Xan3h+8DgIIIBBaAZHIfphwlCccw36shao/Fto3Kw1DAAEEnBYQSfNC2IOB9slR5Cij2Y85/f7g9RBAAIHQCkTiuVMEpBwBGe7jbK61ZQo3h/aNSsMQQACBZggIzXw+3OFAwIf9+CqqXmrGe4PXRAABBEItEInrfxX2gKB94S6CRHzxg6F+k9I4BBBAoCkClnUgqpk/IyTDHZJhPb4iaV5uyWRuaMp7gxdFAAEEwi4g1MW/D2tA0K5wFzaKajwS9vcn7UMAAQSaJ3DKerVgFcCiWAhesSDi2Xc1743BKyOAAAISCNh3USMAgxeAUh8zzbwowVuTJiKAAAJNFshkbohq5kWpAyVJARCk4y8Sua80+V3ByyOAAAJyCCgJXQtSALCvchcsB+Pmm+V4Z9JKBBBAoNkC66sAxiWCVe5gDcLxF5rxfLPfDrw+AgggIJWAohqpIAQA+yh3kRJJ5P5RqjcmjUUAAQSaLRCLZ2+KauZLBKzcAev746/mYs1+L/D6CCCAgHQCUdWY930AcMGetB9bFKrxY+nelDQYAQQQcEOg9f5ztwjNvEwRwCqAH/tARM2NufE+YBsIIICAlAL2OVY/Dv7sk+xFiWkpn9IPSfmmpNEIIICAGwKRceN1US1/hcCVPXD91X5FMx53o/+zDQQQQEBqAZEwPkcB4K8AlP54qPrfSf2mpPEIIICAGwLRB/O3CVYBpL3YzofFxtqd2tlb3ej7bAMBBBCQXkBJ6F/yYRAQyhJ+CkKo+nnp35AAIIAAAm4JHJk8+wvRpLlGEcCpAK/7gEhkP+xWv2c7CCCAAAItLS1KQn/I68Gf7ctdgNinoiKnztzIGxIBBBBAwEWB6AOPHIwm86wCSLjs7pfCS0nopotdnk0hgAACCFQFREL/ul/CgP2QbzVAiWffU+2L/EQAAQQQcFFAjBqHBasAXHzowSqI0MxLLZZ1wMXuzqYQQAABBDYLKKrxMLNv+WbfXh9zoepf29wP+TMCCCCAgMsCUW2x3eswYPvyFSARzXiby12dzSGAAAIIbBVQVN0ghOULYa+OuVCNF7b2Qf6OAAIIIOCBQCTxSHdUIwC9CkTZthtJGF/woJuzSQQQQACB7QQUzViWLYhorzdF313J7Mh2fZB/QwABBBDwQCASzw6wCuBNIMpUiAjVeNaD7s0mEUAAAQR2E1BUfUWmMKKt7hc8kURudrc+yO8QQAABBDwQiCYeGSYU3Q9FWcxFMm+1jultHnRtNokAAgggsJeA/e1ssgQS7XS32BGq8cO9+h+/RwABBBDwSOBQMvtL9kyNcMTA6T4QUfVPe9St2SwCCCCAQC0CQjO+5fTgz+tRUCjq8u219D8egwACCCDgkYCIG/cS2AS2k31AqPpjHnVnNosAAgggUI+AUPXvOhkAvJbcBYUymv1YPf2PxyKAAAIIeCQQGV18K6Etd2g7d/zNtbZM4WaPujKbRQABBBCoV0Co+hPOhQBhKqul0IxivX2PxyOAAAIIeCggRhd/W9bQot3OFWwRVf9DD7sxm0YAAQQQaERAqPqThKFzYSibpUial1tOWa9upO/xHAQQQAABDwVEQv992UKL9jpX8Ciq8bCH3ZdNI4AAAgjsRyCqGT8iFJ0LRZks7dNI++l7PBcBBBBAwEOBSDz3XplCi7Y6VOxo5kUPuy2bRgABBBBwQkBo5jMEo0PBKMmtloWa+7ITfY/XQAABBBDwUEBR9Q9RAFAA1NMH7lIXf83DLsumEUAAAQScEhCq8Ww9AcBj5S0YhGY871S/43UQQAABBDwWUNTcnxHq8oZ6Pcc+ksj9o8fdlc0jgAACCDgpYM/s6gkCHitpwaDmYk72O14LAQQQQMBjAftLXQh1SUO9xosXhWr82ONuyuYRQAABBJohwCoABcBuRWBEzY01o9/xmggggAACHgso8cW/2S0A+J3MBYJpKZ/SD3ncRdk8AggggEBTBCzrQFQzf0bQyxz027dd0YzHm9LneFEEEEAAAX8ICC13HwXA9iEotYuq/50/eih7gQACCCDQHIFT1quFZr4oddjVeFGcREZrd2pnb21Oh+NVEUAAAQR8IyASuVGJws2irbuveAhVP++bzsmOIIAAAgg0USCTuSGaNC8SjLsHoyw+IpH9cBN7Gy+NAAIIIOAnAfsjX7IEHO3cudARWv5K5NSZG/3UN9kXBBBAAIEmCsTi2ZuEZr5EOO4cjjLYKAndbGI346URQAABBPwooCRy0zKEHG3cuchR4tn3+LFvsk8IIIAAAk0UsFcBoqwCSHuRoNDMSy2WdaCJXYyXRgABBBDwq4CiGhlmyDvPkMNsoyRyX/Vrv2S/EEAAAQSaLBAZN14nkublMAcdbdu+wImMLr61yd2Ll0cAAQQQ8LOAksh9lpDcPiTD6iJU4wU/90n2DQEEEEDABYE74tnX2x8HC2vY0a5XFjdCNT7vQtdiEwgggAACfheIJIwvEJSvDMqwmtyVzI74vU+yfwgggAACLghEH8zfxiqAHAWA0IxnXehSbAIBBBBAICgCIq7/a1hnvLTrWnETSegzQemT7CcCCCCAgAsCRybP/kI0aa4RltfCMowWImEecaE7sQkEEEAAgSAJKKr+/8IYerTpalEjVOOHQeqP7CsCCCCAgEsCyqf0Q9FknlWAZDhXASKq/mmXuhKbQQABBBAImkA0of87M+ZwFgCKunx70Poj+4sAAggg4JKAGDUOizFWAcJWBAlVf8ylLsRmEEAAAQSCKqCoxmLYAlD29iij2Y8FtT+y3wgggAACLglEtcV22QMzXO0319oyhZtd6j5sBgEEEEAgyAJKQjfDFYLhPK9fyzESmlEMcl9k3xFAAAEEXBSIJB7pjiZNq5aA4TH+Li4iqv6HLnYdNoUAAgggEHQBkTAKhLu/w32v42N/3XPLKevVQe+L7D8CCCCAgIsCkXh2IKoFOwD3Csiw/15RjYdd7DJsCgEEEEAgLAKKqq+GPSTD3D4xuvjbYemLtAMBBBBAwEWBSEL/RRHSO+OFOfjX26aZF13sKmwKAQQQQCBsAkLVHw19WIawyBFq7sth64u0BwEEEEDARYG7RvVfoQAI3rUQd6mLv+ZiN2FTCCCAAAJhFLBvJUsREJwiQKjmc2Hsh7QJAQQQQMBlARE37qUACE4BEEnkPuNyF2FzCCCAAAJhFYiqxvcoAoJRBLQ+uNgT1n5IuxBAAAEEXBZQNOM/UQAEoADQjB+53DXYHAIIIIBA2AUUzfw+RYC/i4BIIpcMez+kfQgggAACLguIePZdFAB+LgBMS/mUfsjlbsHmEEAAAQRkEBCa8SRFgE+LANX4ngx9kDYigAACCHggoMSz76EA8GcBoCRyf+tBl2CTCCCAAAKyCAjV+DFFgO+KgLU7tbO3ytIHaScCCCCAgAcCkXjuvRQA/ioAREKveNAV2CQCCCCAgGwCQjOepQjwTxEQSeh/IlsfpL0IIIAAAh4IROK5P6YA8EcBILT8lcipMzd60A3YJAIIIICAjAJCMy5QBHhfBCgJ3ZSx/9FmBBBAAAGPBBRV/ygFgA8KgHj2PR51ATaLAAIIICCrgNDM5ykCvCsChGZearGsA7L2P9qNAAIIIOCRgKLm/oICwLsCQEnkvurRoWezCCCAAAJSC1jWAaEZP6UI8KYIiIwuvlXq/kfjEUAAAQS8E4iq+t9RALhfAAjVeMG7o86WEUAAAQQQWF8FMH9GEeBuESBU4/N0PgQQQAABBDwVUBL6JykA3C0A7kpmRzw96GwcAQQQQACBlkzmhqhmXqQIcKcIsO/ESK9DAAEEEEDAFwKKasQpANwpACIJfcYXB52dQAABBBBA4OVVgEsUAc0vAkTCPEKPQwABBBBAwDcCSlyfoABobgEgVPMHvjng7AgCCCCAAAK2QCyevSmqmi9RBDSvCFDixqfobQgggAACCPhOIJLIzVIANLEAUJdv991BZ4cQQAABBBBovf/cLSJpXqYIcL4IEJrxLXoYAggggAACvhWIqLl/oABwvgCIaPr/9u1BZ8cQQAABBBCIjBuvYxXA6QLAXGvLFG6mdyGAAAIIIOBrAaHm/olVAOeKAJHQi74+4OwcAggggAACtkD0wfxtQstfoQhwpghQRvUP0LMQQAABBBAIhIASz32RAmD/BYDQjMstp6xXB+Kgs5MIIIAAAggo6vLtIskqwH6LICVhnKM3IYAAAgggECgBkch9Zb8BKP3z1dw7A3XQ2VkEEEAAAQSiDzxyMJrMr0kf4skGTwVo5kV6EQIIIIAAAoEUUBK5r1IANFYACDX35UAedHYaAQQQQACBg/FsVLAKYDVSBN2lLv4aPQgBBBBAAIHACiiq/u+NBKDMzxGq+VxgDzg7jgACCCCAgC1gf4e9GONagHoKmkgi9xl6DwIIIIAAAoEXEKqRrScAZX9s64OLPYE/6DQAAQQQQAABRc11RrXGLoaTrhjQjB/RYxBAAAEEEAiNgKLqeenCvIGPAEYSuWRoDjoNQQABBBBAQDxg9EWTZkNXxMtTOJiW8in9EL0FAQQQQACBUAkIzSjKE+YNnPJQje+F6oDTGAQQQAABBGyBVjU/yLUAOxcGSiL3t/QUBBBAAAEEQikgVGOVVYBti4C1O7Wzt4byoNMoBBBAAAEEDiWzvyQauDgu7EWDSOgVegcCCCCAAAKhFlBU45thD/R62xdJ6H8S6oNO4xBAAAEEELDvc19vQIb58ULLX4mcOnMjPQMBBBBAAIHQCwjV+HaYQ72etimqboT+gNNABBBAAAEEbAFFy/1mPSEZ5seKhP779AoEEEAAAQSkEVA04/EwB3tNbdPMSy2WdUCag05DEUAAAQQQiKq5d9YUkiH+1ICS0P+NnoAAAggggIB0Aopm/EDmIiAyuvhW6Q46DUYAAQQQQEDEs++StQAQqvECPQABBBBAAAFpBYRqPCVjESASxuekPeg0HAEEEEAAgUg8914ZCwD7uxE4+ggggAACCEgtIFTjaamKAM34kdQHnMYjgAACCCBgC4j44gdlKgBE3PgERx4BBBBAAAEE7CJAM56VoQgQmnG5LVO4mYOOAAIIIIAAAhKtAijx3BwHHAEEEEAAAQQ2CQjNeDLMqwBCM1+KjBuv29Rk/ogAAggggAACIm7cG9XyVliLACW++DccZQQQQAABBBDYRsC+PW4YCwCh6k9u01z+CQEEEEAAAQRsgVg8e5PQjAshKwLWxANGH0cYAQQQQAABBHYRiKq5mNDyV8JSBAhN/+tdmsuvEEAAAQQQQKAqYN8bQITgmwCVhP5QtU38RAABBBBAAIEaBBRVXwjyKoBQ9cdaLOtADU3lIQgggAACCCCwWSCS0GeCWATYX3VsX8+wuS38GQEEEEAAAQTqEIgkcrOBKgJU43ut95+7pY4m8lAEEEAAAQQQ2E4goubGglAEKJqx3JLJ3LBdG/g3BBBAAAEEEGhA4FAi+/6oZvr00wGmpajZyQaaxVMQQAABBBBAYC+B1jG9Taj69321GqCZPxOji7+9177zewQQQAABBBDYp4ASNz4lkuZlrwsBkch9hYv99nkweToCCCCAAAL1CBxLZd/48q2D19wsBOz7EwhVP8/d/eo5WjwWAQQQQAABhwUOxrNRoea+3OwVAZHMrymaYSqj+pscbgIvhwACCCCAAAKNCkROnblRGc1+TCT0b2xANagAAAEpSURBVEWTeYdWBUxLqMZTIpEbjT6Yv63RfeN5CCCAAAIIIOCCgH1ePpLIvk/E9X9VVONxoZmXajlNYK8i2IGvJHJfjai5/3VHPPt6F3aXTSCAAAIIIIBAswTWi4J4dkAZzb3b/q6BSDz3x4qqf8j++12j+q9w855myfO6CCCAAAIIIIAAAggggAACCCCAAAIIIIAAAggggAACCCCAAAIIIIAAAggggAACCCCAAAIIIIAAAggggAACCCCAAAIIIIAAAggggAACCCCAAAIIIIAAAggggAACCCCAAAIIIIAAAggggAACCCCAAAIIIIAAAggggAACCCCAAAIIIIAAAggggAACCCCAAAIIIIAAAggggAACCCCAAAIIIIAAAggggAACCCCAAAJ7Cvx/0T5YGVgsWD4AAAAASUVORK5CYII=;" vertex="1" parent="1">
          <mxGeometry x="489" y="878.88" width="15" height="15" as="geometry" />
        </mxCell>
        <mxCell id="fqA9Xs131egoBfww3Tdx-75" value="Экран 3" style="text;html=1;align=center;verticalAlign=middle;whiteSpace=wrap;rounded=0;" vertex="1" parent="1">
          <mxGeometry x="384" y="658" width="60" height="30" as="geometry" />
        </mxCell>
        <mxCell id="fqA9Xs131egoBfww3Tdx-76" value="" style="rounded=1;whiteSpace=wrap;html=1;fillColor=#d5e8d4;strokeColor=#82b366;" vertex="1" parent="1">
          <mxGeometry x="328" y="691" width="120" height="144" as="geometry" />
        </mxCell>
        <mxCell id="fqA9Xs131egoBfww3Tdx-77" value="Запрос недостающих данных" style="text;html=1;align=center;verticalAlign=middle;whiteSpace=wrap;rounded=0;" vertex="1" parent="1">
          <mxGeometry x="336" y="707" width="104" height="112" as="geometry" />
        </mxCell>
        <mxCell id="fqA9Xs131egoBfww3Tdx-118" value="" style="edgeStyle=orthogonalEdgeStyle;rounded=0;orthogonalLoop=1;jettySize=auto;html=1;entryX=0.417;entryY=-0.005;entryDx=0;entryDy=0;entryPerimeter=0;" edge="1" parent="1" source="fqA9Xs131egoBfww3Tdx-78" target="fqA9Xs131egoBfww3Tdx-94">
          <mxGeometry relative="1" as="geometry">
            <Array as="points">
              <mxPoint x="540" y="857" />
            </Array>
          </mxGeometry>
        </mxCell>
        <mxCell id="fqA9Xs131egoBfww3Tdx-78" value="" style="rounded=1;whiteSpace=wrap;html=1;fillColor=#d5e8d4;gradientColor=#97d077;strokeColor=#82b366;" vertex="1" parent="1">
          <mxGeometry x="378" y="843" width="120" height="28" as="geometry" />
        </mxCell>
        <mxCell id="fqA9Xs131egoBfww3Tdx-79" value="Дополнения&lt;div&gt;пользователя&lt;/div&gt;" style="text;html=1;align=center;verticalAlign=middle;whiteSpace=wrap;rounded=0;" vertex="1" parent="1">
          <mxGeometry x="410" y="842" width="60" height="30" as="geometry" />
        </mxCell>
        <mxCell id="fqA9Xs131egoBfww3Tdx-81" value="" style="shape=image;verticalLabelPosition=bottom;labelBackgroundColor=default;verticalAlign=top;aspect=fixed;imageAspect=0;image=data:image/png,iVBORw0KGgoAAAANSUhEUgAAAgAAAAIACAYAAAD0eNT6AAAAAXNSR0IArs4c6QAAFrRJREFUeAHt10FqZWUYRdEM0wHUfS0HIYgdc23Zl8JGbkEGUTgBsS+OQJxCUkg4bxBvr8Dj9te3Ced/evJHgAABAgQIECBAgAABAgQIECBAgAABAgQIECBAgAABAgQIECBAgAABAgQIECBAgAABAgQIECBAgAABAgQIECBAgAABAgQIECBAgAABAgQIECBAgAABAgQIECBAgAABAgQIECBAgAABAgQIECBAgAABAgQIECBAgAABAgQIECBAgAABAgQIECBAgAABAgQIECBAgAABAgQIECBAgAABAgQIECBAgAABAgQIECBAgAABAgQIECBAgAABAgQIECBAgAABAgQIECBAgAABAgQIECBAgAABAgQIECBAgAABAgQIECBAgAABAgQIECBAgAABAgQIECBAgAABAgQIECBAgAABAgQIECBAgAABAgQIECBAgAABAgQIECBAgAABAgQIECBAgAABAgQIECBAgAABAgQIECBAgAABAgQIECBAgAABAgQIECBAgAABAgQIECBAgAABAgQIECBAgAABAgQIECBAgAABAgQIECBAgAABAgQIECBAgAABAgQIECBAgAABAgQIECBAgAABAgQIECBAgAABAgQIECBAgAABAgQIECBAgAABAgQIECBAgAABAgQIECBAgAABAgQIECBAgAABAgQIECBAgAABAgQIECBAgAABAgQIECBAgAABAgQIECBAgAABAgQIECBAgAABAgQIECBAgAABAgQIECBAgAABAgQIECBAgAABAgQIECBAgAABAgQIECBAgAABAgQIECBAgAABAgQIECBAgAABAgQIECBAgAABAgQIECBAgAABAgQIECBAgAABAgQIECBAgAABAgQIECBAgAABAgQIECBAgAABAgQIECBAgAABAgQIECBAgAABAgQIECBAgAABAgQIECBAgAABAgQIECBAgAABAgQIECBAgAABAgQIECBAgAABAgQIECBAgAABAgQIECBAgAABAgQIECBAgAABAgQIECBAgAABAgQIECBAgAABAgQIECBAgAABAgQIECBAgAABAgQIECBAgAABAgQIECBAgAABAgQIECBAgAABAgQIECBAgAABAgQIECBAgAABAgQIECBAgAABAgQIECBAgAABAgQIECBAgAABAgQIECBAgAABAgQIECBAgAABAgQIECBAgAABAgQIECBAICNwe/7y/XFev/sx0IAGNKABDXw08Om8Pj/8EDjO6/U4r3c/BhrQgAY0oIF7A28GgHFgHGlAAxrQQK8BA8AavK9B/wB6/wDc3M010G3AADAADAANaEADGgg2YAAEj27xdxe/27u9BjSwBgwAA8Dy14AGNKCBYAMGQPDoW3++XgIa0IAGug0YAAaA5a8BDWhAA8EGDIDg0S3+7uJ3e7fXgAbWgAFgAFj+GtCABjQQbMAACB5968/XS0ADGtBAtwEDwACw/DWgAQ1oINiAARA8usXfXfxu7/Ya0MAaMAAMAMtfAxrQgAaCDRgAwaNv/fl6CWhAAxroNmAAGACWvwY0oAENBBswAIJHt/i7i9/t3V4DGlgDBoABYPlrQAMa0ECwAQMgePStP18vAQ1oQAPdBgwAA8Dy14AGNKCBYAMGQPDoFn938bu922tAA2vAADAALH8NaEADGgg2YAAEj7715+sloAENaKDbgAFgAFj+GtCABjQQbMAACB7d4u8ufrd3ew1oYA0YAAaA5a8BDWhAA8EGDIDg0bf+fL0ENKABDXQbMAAMAMtfAxrQgAaCDRgAwaNb/N3F7/ZurwENrAEDwACw/DWgAQ1oINiAARA8+tafr5eABjSggW4DBoABYPlrQAMa0ECwAQMgeHSLv7v43d7tNaCBNWAAGACWvwY0oAENBBswAIJH3/rz9RLQgAY00G3AADAALH8NaEADGgg2YAAEj27xdxe/27u9BjSwBgwAA8Dy14AGNKCBYAMGQPDoW3++XgIa0IAGug0YAAaA5a8BDWhAA8EGDIDg0S3+7uJ3e7fXgAbWgAFgAFj+GtCABjQQbMAACB5968/XS0ADGtBAtwEDwACw/DWgAQ1oINiAARA8usXfXfxu7/Ya0MAaMAAMAMtfAxrQgAaCDRgAwaNv/fl6CWhAAxroNmAAGACWvwY0oAENBBswAIJHt/i7i9/t3V4DGlgDBoABYPlrQAMa0ECwAQMgePStP18vAQ1oQAPdBgwAA8Dy14AGNKCBYAMGQPDoFn938bu922tAA2vAADAALH8NaEADGgg2YAAEj7715+sloAENaKDbgAFgAFj+GtCABjQQbMAACB7d4u8ufrd3ew1oYA0YAAaA5a8BDWhAA8EGDIDg0bf+fL0ENKABDXQbMAAMAMtfAxrQgAaCDRgAwaNb/N3F7/ZurwENrAEDwACw/DWgAQ1oINiAARA8+tafr5eABjSggW4DBoABYPlrQAMa0ECwAQMgeHSLv7v43d7tNaCBNWAAGACWvwY0oAENBBswAIJH3/rz9RLQgAY00G3g8QfA7fn64dP58ocfAw1oQAMa0MBHA8d5fX3yR4AAAQIECBAgQIAAAQIECBAgQIAAAQIECBAgQIAAAQIECBAgQIAAAQIECBAgQIAAAQIECBAgQIAAAQIECBAgQIAAAQIECBAgQIAAAQIECBAgQIAAAQIECBAgQIAAAQIECBAgQIAAAQIECBAgQIAAAQIECBAgQIAAAQIECBAgQIAAAQIECBAgQIAAAQIECBAgQIAAAQIECBAgQIAAAQIECBAgQIAAAQIECBAgQIAAAQIECBAgQIAAAQIECBAgQIAAAQIECBAgQIAAAQIECBAgQIAAAQIECBAgQIAAAQIECBAgQIAAAQIECBAgQIAAAQIECBAgQIAAAQIECBAgQIAAAQIECBAgQIAAAQIECBAgQIAAAQIECBAgQIAAAQIECBAgQIAAAQIECBAgQIAAAQIECBAgQIAAAQIECBAgQIAAAQIECBAgQIAAAQIECBAgQIAAAQIECBAgQIAAAQIECBAgQIAAAQIECBAgQIAAAQIECBAgQIAAAQIECBAgQIAAAQIECBAgQIAAAQIECBAgQIAAAQIECBAgQIAAAQIECBAgQIAAAQIECBAgQIAAAQIECBAgQIAAAQIECBAgQIAAAQIECBAgQIAAAQIECBAgQIAAAQIECBAgQIAAAQIECBAgQIAAAQIECBAgQIAAAQIECBAgQIAAAQIECBAgQIAAAQIECBAgQIAAAQIECBAgQIAAAQIECBAgQIAAAQIECBAgQIAAAQIECBAgQIAAAQIECBAgQIAAAQIECBAgQIAAAQIECBAgQIAAAQIECBAgQIAAAQIECBAgQIAAgbDA7Xz57Tiv//wYaEADGtCABu4N/Pvw0+A4r9fjvN79GGhAAxrQgAbuDbwZAMaBcaQBDWhAA70GDABr8L4G/QPo/QNwczfXQLcBA8AAMAA0oAENaCDYgAEQPLrF3138bu/2GtDAGjAADADLXwMa0IAGgg0YAMGjb/35egloQAMa6DZgABgAlr8GNKABDQQbMACCR7f4u4vf7d1eAxpYAwaAAWD5a0ADGtBAsAEDIHj0rT9fLwENaEAD3QYMAAPA8teABjSggWADBkDw6BZ/d/G7vdtrQANrwAAwACx/DWhAAxoINmAABI++9efrJaABDWig24ABYABY/hrQgAY0EGzAAAge3eLvLn63d3sNaGANGAAGgOWvAQ1oQAPBBgyA4NG3/ny9BDSgAQ10GzAADADLXwMa0IAGgg0YAMGjW/zdxe/2bq8BDawBA8AAsPw1oAENaCDYgAEQPPrWn6+XgAY0oIFuAwaAAWD5a0ADGtBAsAEDIHh0i7+7+N3e7TWggTVgABgAlr8GNKABDQQbMACCR9/68/US0IAGNNBtwAAwACx/DWhAAxoINmAABI9u8XcXv9u7vQY0sAYMAAPA8teABjSggWADBkDw6Ft/vl4CGtCABroNGAAGgOWvAQ1oQAPBBgyA4NEt/u7id3u314AG1oABYABY/hrQgAY0EGzAAAgefevP10tAAxrQQLcBA8AAsPw1oAENaCDYgAEQPLrF3138bu/2GtDAGjAADADLXwMa0IAGgg0YAMGjb/35egloQAMa6DZgABgAlr8GNKABDQQbMACCR7f4u4vf7d1eAxpYAwaAAWD5a0ADGtBAsAEDIHj0rT9fLwENaEAD3QYMAAPA8teABjSggWADBkDw6BZ/d/G7vdtrQANrwAAwACx/DWhAAxoINmAABI++9efrJaABDWig24ABYABY/hrQgAY0EGzAAAge3eLvLn63d3sNaGANGAAGgOWvAQ1oQAPBBgyA4NG3/ny9BDSgAQ10GzAADADLXwMa0IAGgg0YAMGjW/zdxe/2bq8BDawBA8AAsPw1oAENaCDYgAEQPPrWn6+XgAY0oIFuAwaAAWD5a0ADGtBAsAEDIHh0i7+7+N3e7TWggTVgABgAlr8GNKABDQQbMACCR9/68/US0IAGNNBtwAAwACx/DWhAAxoINmAABI9u8XcXv9u7vQY0sAYMAAPA8teABjSggWADBkDw6Ft/vl4CGtCABroNGAAGgOWvAQ1oQAPBBgyA4NEt/u7id3u314AG1oABYABY/hrQgAY0EGzAAAgefevP10tAAxrQQLeBxx8At/Pl5+O8/vJjoAENaEADGvho4HZefz75I0CAAAECBAgQIECAAAECBAgQIECAAAECBAgQIECAAAECBAgQIECAAAECBAgQIECAAAECBAgQIECAAAECBAgQIECAAAECBAgQIECAAAECBAgQIECAAAECBAgQIECAAAECBAgQIECAAAECBAgQIECAAAECBAgQIECAAAECBAgQIECAAAECBAgQIECAAAECBAgQIECAAAECBAgQIECAAAECBAgQIECAAAECBAgQIECAAAECBAgQIECAAAECBAgQIECAAAECBAgQIECAAAECBAgQIECAAAECBAgQIECAAAECBAgQIECAAAECBAgQIECAAAECBAgQIECAAAECBAgQIECAAAECBAgQIECAAAECBAgQIECAAAECBAgQIECAAAECBAgQIECAAAECBAgQIECAAAECBAgQIECAAAECBAgQIECAAAECBAgQIECAAAECBAgQIECAAAECBAgQIECAAAECBAgQIECAAAECBAgQIECAAAECBAgQIECAAAECBAgQIECAAAECBAgQIECAAAECBAgQIECAAAECBAgQIECAAAECBAgQIECAAAECBAgQIECAAAECBAgQIECAAAECBAgQIECAAAECBAgQIECAAAECBAgQIECAAAECBAgQIECAAAECBAgQIECAAAECBAgQIECAAAECBAgQIECAAAECBAgQIECAAAECBAgQIECAAAECBAgQIECAAAECBAgQIECAAAECBAgQIECAAAECBAgQIECAAAECBAgQIECAAAECBAgQIECAAAECBAgQIECAAAECBAgQIECAAAECBAgQIECAQFjg+OX69XZe//gx0IAGNKABDXw0cJzX3w8/DY7zej3O692PgQY0oAENaODewJsBYBwYRxrQgAY00GvAALAG72vQP4DePwA3d3MNdBswAAwAA0ADGtCABoINGADBo1v83cXv9m6vAQ2sAQPAALD8NaABDWgg2IABEDz61p+vl4AGNKCBbgMGgAFg+WtAAxrQQLABAyB4dIu/u/jd3u01oIE1YAAYAJa/BjSgAQ0EGzAAgkff+vP1EtCABjTQbcAAMAAsfw1oQAMaCDZgAASPbvF3F7/bu70GNLAGDAADwPLXgAY0oIFgAwZA8Ohbf75eAhrQgAa6DRgABoDlrwENaEADwQYMgODRLf7u4nd7t9eABtaAAWAAWP4a0IAGNBBswAAIHn3rz9dLQAMa0EC3AQPAALD8NaABDWgg2IABEDy6xd9d/G7v9hrQwBowAAwAy18DGtCABoINGADBo2/9+XoJaEADGug2YAAYAJa/BjSgAQ0EGzAAgke3+LuL3+3dXgMaWAMGgAFg+WtAAxrQQLABAyB49K0/Xy8BDWhAA90GDAADwPLXgAY0oIFgAwZA8OgWf3fxu73ba0ADa8AAMAAsfw1oQAMaCDZgAASPvvXn6yWgAQ1ooNuAAWAAWP4a0IAGNBBswAAIHt3i7y5+t3d7DWhgDRgABoDlrwENaEADwQYMgODRt/58vQQ0oAENdBswAAwAy18DGtCABoINGADBo1v83cXv9m6vAQ2sAQPAALD8NaABDWgg2IABEDz61p+vl4AGNKCBbgMGgAFg+WtAAxrQQLABAyB4dIu/u/jd3u01oIE1YAAYAJa/BjSgAQ0EGzAAgkff+vP1EtCABjTQbcAAMAAsfw1oQAMaCDZgAASPbvF3F7/bu70GNLAGDAADwPLXgAY0oIFgAwZA8Ohbf75eAhrQgAa6DRgABoDlrwENaEADwQYMgODRLf7u4nd7t9eABtaAAWAAWP4a0IAGNBBswAAIHn3rz9dLQAMa0EC3AQPAALD8NaABDWgg2IABEDy6xd9d/G7v9hrQwBowAAwAy18DGtCABoINGADBo2/9+XoJaEADGug2YAAYAJa/BjSgAQ0EGzAAgke3+LuL3+3dXgMaWAMGgAFg+WtAAxrQQLABAyB49K0/Xy8BDWhAA90GDAADwPLXgAY0oIFgAwZA8OgWf3fxu73ba0ADa8AAMAAsfw1oQAMaCDZgAASPvvXn6yWgAQ1ooNuAAWAAWP4a0IAGNBBswAAIHt3i7y5+t3d7DWhgDRgABoDlrwENaEADwQYMgODRt/58vQQ0oAENdBsIDIDnL9/dzusnPwYa0IAGNKCBjwaO8/rxyR8BAgQIECBAgAABAgQIECBAgAABAgQIECBAgAABAgQIECBAgAABAgQIECBAgAABAgQIECBAgAABAgQIECBAgAABAgQIECBAgAABAgQIECBAgAABAgQIECBAgAABAgQIECBAgAABAgQIECBAgAABAgQIECBAgAABAgQIECBAgAABAgQIECBAgAABAgQIECBAgAABAgQIECBAgAABAgQIECBAgAABAgQIECBAgAABAgQIECBAgAABAgQIECBAgAABAgQIECBAgAABAgQIECBAgAABAgQIECBAgAABAgQIECBAgAABAgQIECBAgAABAgQIECBAgAABAgQIECBAgAABAgQIECBAgAABAgQIECBAgAABAgQIECBAgAABAgQIECBAgAABAgQIECBAgAABAgQIECBAgAABAgQIECBAgAABAgQIECBAgAABAgQIECBAgAABAgQIECBAgAABAgQIECBAgAABAgQIECBAgAABAgQIECBAgAABAgQIECBAgAABAgQIECBAgAABAgQIECBAgAABAgQIECBAgAABAgQIECBAgAABAgQIECBAgAABAgQIECBAgAABAgQIECBAgAABAgQIECBAgAABAgQIECBAgAABAgQIECBAgAABAgQIECBAgAABAgQIECBAgAABAgQIECBAgAABAgQIECBAgAABAgQIECBAgAABAgQIECBAgAABAgQIECBAgAABAgQIECBAgAABAgQIECBAgAABAgQIECBAgAABAgQIECBAgAABAgQIECBAgAABAgQIECBAgAABAgQIECBAgAABAgQIECBAgAABAgQIECBAgAABAgQIECBAgAABAgQIECBAgAABAgQIECBAgAABAgQIECBAgAABAgQIECBAgAABAgQIECBAgAABAgQIECBAgAABAgQIECBAgAABAgT+F/gGIaJCR23V/8sAAAAASUVORK5CYII=;" vertex="1" parent="1">
          <mxGeometry x="614" y="302" width="15" height="15" as="geometry" />
        </mxCell>
        <mxCell id="fqA9Xs131egoBfww3Tdx-82" value="&lt;font style=&quot;color: rgb(204, 0, 0);&quot;&gt;Пользователь&lt;/font&gt;&lt;div&gt;&lt;font color=&quot;#cc0000&quot;&gt;превысил максимальное количество целей&lt;/font&gt;&lt;/div&gt;" style="text;html=1;align=center;verticalAlign=middle;whiteSpace=wrap;rounded=0;" vertex="1" parent="1">
          <mxGeometry x="657" y="555" width="81.5" height="88" as="geometry" />
        </mxCell>
        <mxCell id="fqA9Xs131egoBfww3Tdx-83" value="" style="rounded=0;whiteSpace=wrap;html=1;fillColor=#D4E1F5;" vertex="1" parent="1">
          <mxGeometry x="606" y="672" width="192" height="232" as="geometry" />
        </mxCell>
        <mxCell id="fqA9Xs131egoBfww3Tdx-84" value="" style="verticalLabelPosition=bottom;verticalAlign=top;html=1;shadow=0;dashed=0;strokeWidth=1;shape=mxgraph.android.phone2;strokeColor=#c0c0c0;" vertex="1" parent="1">
          <mxGeometry x="602" y="648" width="200" height="390" as="geometry" />
        </mxCell>
        <mxCell id="fqA9Xs131egoBfww3Tdx-85" value="" style="verticalLabelPosition=bottom;verticalAlign=top;html=1;shadow=0;dashed=0;strokeWidth=1;shape=mxgraph.android.keyboard;sketch=0;" vertex="1" parent="1">
          <mxGeometry x="610" y="898" width="185" height="100" as="geometry" />
        </mxCell>
        <mxCell id="fqA9Xs131egoBfww3Tdx-86" value="&lt;font style=&quot;color: rgb(204, 204, 204); font-size: 12px;&quot;&gt;Сообщение&lt;/font&gt;" style="rounded=1;html=1;shadow=0;dashed=0;whiteSpace=wrap;fontSize=10;align=left;strokeWidth=2;" vertex="1" parent="1">
          <mxGeometry x="612" y="878" width="183" height="16.88" as="geometry" />
        </mxCell>
        <mxCell id="fqA9Xs131egoBfww3Tdx-87" value="" style="shape=image;verticalLabelPosition=bottom;labelBackgroundColor=default;verticalAlign=top;aspect=fixed;imageAspect=0;image=data:image/png,iVBORw0KGgoAAAANSUhEUgAAAgAAAAIACAYAAAD0eNT6AAAAAXNSR0IArs4c6QAAIABJREFUeAHt3Q2QI2d95/HJQnzG5TKUC+zC8XrVj2Z3vbPzupr3HZPLGxXiSqAo7rhQJJdLkYKiihQ57pKQgrq9kEpySSAug/FI3Zo3jeZFsyFHCqgQAusLsFl7pO7WjKTRaA2YFxuwwfZiY7zr3emrnrVmZ8fzImla/fZ8XeWa3R1J3c+nHz2///N0q9XSwn8IIIAAAggggAACCCCAAAIIIIAAAggggAACCCCAAAIIIIAAAggggAACCCCAAAIIIIAAAggggAACCCCAAAIIIIAAAggggAACCCCAAAIIIIAAAggggAACCCCAAAIIIIAAAggggAACCCCAAAIIIIAAAggggAACCCCAAAIIIIAAAggggAACCCCAAAIIIIAAAggggAACCCCAAAIIIIAAAggggAACCCCAAAIIIIAAAggggAACCCCAAAIIIIAAAggggAACCCCAAAIIIIAAAggggAACCCCAAAIIIIAAAggggAACCCCAAAIIIIAAAggggAACCCCAAAIIIIAAAggggAACCCCAAAIIIIAAAggggAACCCCAAAIIIIAAAggggAACCCCAAAIIIIAAAggggAACCCCAAAIIIIAAAggggAACCCCAAAIIIIAAAggggAACCCCAAAIIIIAAAggggAACCCCAAAIIIIAAAggggAACCCCAAAIIIIAAAggggAACCCCAAAIIIIAAAggggAACCCCAAAIIIIBA7QJtU0u/15kqfPXETOn7fXPlFwczlbXhTMUaWahY95w+b42crlgnFyrWUOb82uB85XLvTOknPdPFSsdUId2dNg7XviUeiQACCCCAAAKeCbQ9cObmjtTydO9M+cJwZnU95O2gb+j/hfPWwPzq5Z508Vttk8vv9qxRbBgBBBBAAAEEthdoGzc/cGJm5cmTmasz+4YCf49CYWBu9XLXVOHMwPS5W7bfC/4VAQQQQAABBJoucCSefX1HqvDFgbnyS80I/J1e0z5d0DNdzPWM6W9oeiPZAAIIIIAAAghcFTiezP/uiXTpcfvc/U4h7ca/Dy1U1rqmlsY5LggggAACCCDQJIFYPPvarlThnwZmy5fcCPd6thGbKT1/bCx/oklN52URQAABBBCQT6B9wnxz13SpvO8L+vY4v19P4G/3WHv/jk8t/R/5jhAtRgABBBBAwCGBOzNnX9M5uTzXN1u+uF3Y+vXfRhbOW11ThUccYuBlEEAAAQQQkEOgbaz4y/Zs377Izq8hX8t+2dcntFjWATmOGq1EAAEEEECgEYFT1g2dqWWtb7b8s3sWGvy8fpOX92sJ/a2P6U6v/JAioJEOwXMQQAABBEIt0DG+1NGVKp4bzKwGera/Nfjtv9ufTjg2UbCEqn8t1AeRxiGAAAIIIFCrQOdk8b7emZXn7fPl24Vn0P/Nvs3w3RPLVjSZv/q/aszXasPjEEAAAQQQCJXAtdl+OXSz/c0Fy/BCxTq6OfyTeUsk89ahRPb9oTqgNAYBBBBAAIEdBSzrVccnCx+PpYvP2F+4szkow/hne+Z/dHzp2sy/ugKwXgSYl0XCPLKjFb9AAAEEEEAg6AJtE/lf6U4VKsOZSqhn+5uLGPseAEd2CP9NpwK+F/Rjy/4jgAACCCBwvcAp64b2yWW1b3blhc3BKMOfh+ZrCP+XVwMi8dyp6+H4GwIIIIAAAgEUOJZavrdruvCNoSZ+A5+fi4jBTMU6vNfMf9OpgKhmXoqMG68L4KFmlxFAAAEEZBew79K3MdsP6ZX8tRQdQ/ay/9j25/w3lv03h391FUDN/YPsfYj2I4AAAggESKB9wp7t+/+e/LWE934fMzi/ah0ee/ljftuE/G4FgEial1vvP3dLgA49u4oAAgggIJtAW6Z4a1dq+XP9syuXZLiSv5bCYD/hXy0MlIQ+JVtfor0IIIAAAgEQaJss/r59P/uTkp7b36kQGJgvW60Nzvyr4W//FJr5fAC6AbuIAAIIICCDQPeDRqR7qvDQwPzqSzsFoMz/3j+3arU2cM5/c/Bv/rOIG/fK0K9oIwIIIICATwWOTyx97MRM6emTEl/Qt1dh0z9btlqT9V/wtznwt/5ZJPSv+7RLsFsIIIAAAmEVaEsY3etfxDNfubJX+Mn++7718G/sgr+tob/570IzfxrW/kW7EEAAAQT8JCDxzXoaLWLs8N8c2k7/mdsD++kNwr4ggAACIRM4Nl74L92p4mND8+G/H3+jQb/d83pnV6yoAxf87VY0KPHFvwlZd6M5CCCAAAJeCrTPfPP2rqni5wZmy5e2Czf+bfevIo7NrDR15l8tCpSE/m9e9hO2jQACCCAQEoGO8aWPxtKlp04uMNtvtMg54VL420WAUM3vhKTr0QwEEEAAAbcFOsaXOuwL+gbmV7mg7/TuM/u9ioJY2p2Zf3UFQKjGC273F7aHAAIIIBBkgZcv6OudKT3HHfr2F/rVoqDH5fBfXwFI5q8EuRuy7wgggAACLgkcT+Z/t2e6+B37++erwcXP/RcA3emSK+f8qzP/jZ9a3nKp67AZBBBAAIGgCRydLd/BBX37D/mdCqXuaY/C/+UvEWrLFG4OWp9kfxFAAAEEmiVgWQeOj5sf750pXRjhDn1NW+3oTBW9mflv/gbBBx452KxuxOsigAACCARE4NpX7lbWdpqx8u/OrAZ0ejzzr54GiMWzNwWke7KbCCCAAAJOCvCZfWcCvZ7CqMMPM3/7Y4BJrgFw8r3EayGAAAL+F7CsA8fGl/66d6b0LEv87hUA9icm/BL+658C0Ew+BeD/dyt7iAACCOxfoG1y6S1d06XyUIYl/npm7I48duG81TFV8P6c/6bz/0Iznt9/r+IVEEAAAQR8KXAslX1j52Thn/vnyhfv4YK+pl3Qt1eRcHzKBxf8bQr/9RUAVf+uLzstO4UAAggg0LgAt+V1b2l/t/C3T7Ec99nMv3oBoJLQv9R4D+OZCCCAAAK+EbCv4u+ZLlYGWeL3bKa/uRgYOX3eapv017J/Nfztn4qa+zPfdF52BAEEEECgPoH2seWDHVPL/9I/u3KJJX5/zPrtIsDv4W8XAIc++bBSX2/j0QgggAAC3gqcsm44Pln4eCxdfIar+P0T+tXZv/1tiMcmln11wd/mmb/9Z6EZF7ztxGwdAQQQQKBmgeNj+ff0TBcf4yp+/4V+kMLfLgAiau6fa+54PBABBBBAwH2Btkmzp3OqcG5gbvVyNWT46c8CwJ753z2x5OuZf3Ul4JC6+Bvu92a2iAACCCCwq8CdmbOvaZ9cVte/bneh4osL2ig6di86hjN2+Pt72b8a/kIzfrprB+SXCCCAAALuCrSNmx84kS49bocJgbt74PrJxz5eR8eDEf7r5//V3D+527PZGgIIIIDAKwTaJ8w3d6cK+YH51St+CjX2pbYCxA7/I+PBWPbfWAF4wOh7RUfkHxBAAAEEmi9Q/QKevrnyi3x0r7ag9WNBMhTE8NfMp5vfw9kCAggggMA1gc0f3TvNEr8fA72efbLD//BYsGb+9gqAktCnrnVK/oQAAggg0DSB9qnl961/dG/h/Fo9AcNj/bsyMDQfvGX/9eV/LW+JUeNw0zo7L4wAAgjILtA9XujrShX56N5p/4Z4owXW4PxqIGf+Vy/+078v+3uT9iOAAAKOC1x3Xj+EwddoYIbpeVfDPx+Iz/lXL/jb/FNoufsc7/i8IAIIICClwObz+nzVbqg/ujgwV7Zak8E7518tAIRmWtEH87dJ+T6l0QgggIBTAscnC++/ektezuuHaYa/U1sG5lat1rHgzvztIkDRjG841f95HQQQQEAqgY3P63NL3lDP9LcWAf0Bn/lXVwAUVf+oVG9YGosAAgjsR+DobPmOrqni5/i8fvgu5tsa9Nv9vW89/IM987cLAKHlr8Ti2Zv2817guQgggEDoBez78HdNFcZjsyvPneRiPqlm+5uLgN7ZcmAv9qvO+qs/Fc1YDv0blwYigAACjQps3Id/YVXa0NscgDL/uXd2JTThbxcBkUT2fY2+L3geAgggEEqB9inz7V3TpfJQZpWb9LDasV74xWbKVjTgF/xVZ/5Xf5ovtVjWgVC+gWkUAgggUI8AN+mR83x+LSsasZlwzfztAkCJ62freX/wWAQQQCBUAtddzMdMl1Mc2/SBEyEMf7sAODSae3uo3sw0BgEEENhLwL6Yr31yWe2dKT03wk16CP1tQr+6KtCTLoXqnH/1FIDQzBf3ep/wewQQQCA0Ah3jSx+NpUtPnczwjXvVgOPnzqc9etLhW/avFgCKqv9LaN7YNAQBBBDYTqB6Z77hTIWL+XaZ6VIIXF8IdId05r9RAIzqb9ru/cK/IYAAAoEWaJ9Yvrc7VcgPcGc+lvcbKHq6psO57F8Nf6EaPwn0G5ydRwABBDYLdIwvdXSlCmfsO/ONnGaJnxn99TP6Wj26pouhPOdfDX/7p6Iamc3vHf6MAAIIBE7A/prdzsnlub7ZlRdqHeB5XGPBKINbZyr84S+SeSuqLbYH7s3ODiOAAAItm79ml5k+S/wNLPFvLWbsFaOOVCH0M3979i9U4ylGEQQQQCBQAhu34+UKfkLfgdCvFgF2+LdLMPOvngJQVCMeqDc+O4sAAnIKdEyW33r1drxcwV8NLH46ewqjfUqOmf/VAsC0og88clDO0YRWI4CA7wXunsjFulLFc1zB72zQUTi80vP4pEzhby//m9/x/QDADiKAgFwC3I73leFEYDfPZGShYrVJFv72CkAkrv+VXCMLrUUAAV8KcDve5gUcxcPOtiOnz0sZ/tFkfq31/nO3+HIwYKcQQEACAct61fHJwsd7Z1Z+fHKBz+oT1DsHdTNs7Av+jkk487dn/4qqr0owwtBEBBDwm4B9BX/PdPExbsfrbuA1I0SD+pp2wXn35LIUH/WrXvG/+aei6h/y27jA/iCAQEgF2qbz77Cv4B/kHvx8bM/Bj+01UoDY4X9sQq4L/jaHf1TLX2nJZG4I6VBDsxBAwA8C3IOfGX4jAd3M56zP/MflnfnbhYBQjawfxgf2AQEEQiZw9WN7hTMDs+VLzRzIeW2Ki3r7wPBCxTo6IXf42wWAopm/E7Jhh+YggIBXAtHZ5YNdU8XP2V+8U++gzOMJcjf6wHCmYh0dX5L2nP/GKQDNuOTVOMF2EUAgJALVL97pnSk9d9Ljc7puBAjbCG6hMpxZtY4Q/uvFj5LQHwrJEEQzEEDATQH7s/r2x/Zi6eIzfMVucANRpmJmaJ7w35j92zf/Gc39uptjBttCAIEgC2x8217pKXsZVabwoK3BLnIGMxXrMDP/jdMeQjOeD/JQxL4jgIBLAtXP6g/xsT2KngCe4hnKrFqHxzjnv3n2ryRyn3Vp+GAzCCAQNIH2seV38m17wZ71smpx3hqct8M/vzHz3RyCUv9ZzcWCNiaxvwgg0ESBton8b3WnCnm+bY/gD0PxQPhvX/gIzXy6icMIL40AAkER4LP6hH0Ywn5rG/rnV61WZv7brnwoCX0qKOMT+4kAAg4L9IwV2rpShTN8Vp/w3xqcYfj7AOG/bfCvn/LQ8pYYNQ47PKTwcggg4GeBzZ/Vt7/zPAwDPW2ggNnaB/pny1Zrkgv+drq+Qaj69/08TrFvCCDgkID9Wf32yWXVvkHPyAJhsTUs+Hu4+kTfevhvf957p0CU7d+FlrvPoeGFl0EAAd8JbPqs/kk+q89KRwA/ttdIYWaHv2xhXm97hWZa0Qfzt/luzGKHEEBgfwLHJ5f+/ES6+ENCP1yz2kbCULbn9M6usOyf3HvlQ1GNb+5vlOHZCCDgGwFu0EPYyxb2W9sbm1lh5l9D+NurBYqqf9Q3gxc7ggAC9Qu0Teff8fJn9a9sHQz5OwWBTH3gBOFfc/EjtPyVWDx7U/0jDs9AAAFPBdonlu/lBj2Eu0zhvldbY2lm/vVcA6Co+pKngxgbRwCB2gW6xwt99mf1B2bLl/YaDPk9xYFMfaCH8K955l8tEiKJ7PtqH314JAIIuC7QMb7UsXGDHj62xxX8klzBX0/xQvjvfbFfNfSv/TRfarGsA64PaGwQAQR2Fzg6W76jc3J5rm925YV6BkIey6xftj7QPV2qe+Z7LQQbCc5wPEeJ62d3H4X4LQIIuCZw/V35CDLZgoz21t/nO1NFwr/Gq/23Fj2HRnNvd21wY0MIIPBKAfuufMcnCx+PpYvPjJzmVryEYP0hKKtZJzP/hosfoeVffOVoxL8ggEDzBbgrH+fxOY+/rz7Qwcy/4fC3VwKUeO6LzR/o2AICCGwIdIwvfTSWLj01zK149zX4yzrjpd3nLXuVjPDf/zUIyqj+po2BiT8ggEBzBDbuyrdQWWMAZ3mbPrCPPrBw3uqYKuxr5rv1PLiMfxdJ80JzRjteFQEEWtqnlt/XM118bDBD6BN4+wg8ThNct1J0fIoL/hwpWFRjnmEaAQQcFOiYLL+Vu/IRdhQ8zvcB+yurjzPzd2TlQ9ifGNAW2x0c+ngpBOQUaJtceguh7/yAT4hiWu0DIwsVq21y2ZHwc2T23OBH7vyybaEZT8o5WtNqBBwQuHsiF+OufARUNaD42by+MHL6vNU2yTl/J4sHkciNOjAM8hIIyCPQM1Zo654qPNQ/W754D7five68LAHYvACU2fbkQsW6m5m/sysfWt46lsq+UZ6Rm5Yi0KDA9Xfl4wY9MocRbXe3yLHD/9gEy/5Ozvzt1xKq+Z0Gh0OehkD4BXrG9DfY99/vnSk9Z194xMCPAX3A3T6wPvOfWHJ25hvw8/ZOFQKRuP5X4R/FaSECdQhcuxVv6Sl78GHAd3fAxxvvah+wb5B1NzP/ZhU/a633n7uljqGRhyIQUoFNt+IdXlgl9Pm8OX3A4z5gh//RcZb9nZrtb30dRTXKIR3NaRYCtQls3JWPG/QQeB4HXnXWy8/z1nBm1ToyzrL/1tB28u+Kqn+otlGSRyEQIoFrob/KrXgJPQofn/UBe+ZP+O//3v67Fgta/kpLJnNDiIZ1moLAzgLtU+bbX75BzxVmWJxjpg/4sw8MZSrW4TFm/ruGtwMXMArVyO48WvIbBEIg0D6xfC935fPnQE8Ac1y29oGheWb+zQ7+6usrmvk7IRjiaQIC1wtU78o3MFu+tHWA4e+EDn3An31gcH6Vmb8DM/tqwO/6UzMuXT9q8jcEAizQMb7UsXErXp+dzyRw/Bk4HBf/HJer4d/kc95uhWsAtqMk9IcCPNyz6wi0tBydLd9h36Cnb3blBQZz/wzmHAuORT19YGCubLUmOee/64zd4aIiMpr7dTIEgcAJcFc+wqWecOGx/u4vA3OrVusYM383w19oxvOBG/jZYXkFrt2Vr/gMd+Xz94BO4HJ8au0D/cz8m3V3v11fV0nkPitvmtDyYAhsvitfhlvx1jqo8jgCOAh9oG89/Jn5uznz39iWmosFIwTYS+kE7Bv0nEiXHrdvBBKEgYx9JHDpA/X1gf7ZMsv+Dp/T3wj3PV5XqMbT0oUKDfa3wLW78lW4Kx+fYKDwC3Ef6J1d2XV5utYg43GNrZ4oanbS32nA3kkh0Da19Hs904VvDs5zK15mkPXNIPEKpldshqv9PS1ctLx16JMPK1IEDI30n0Db5NJbuCtfMAdvQpfjtp8+EJth5u9p+CfzllD1J/yXCuxRqAXaEkb3xg16FhhE9zOI8lz6TxD7wAnC3xenPYS6+PehDhsa5w8BbtBDUAUxqNhn5/ttT7rki/Dzevbt9fZFMr92Rzz7en8kBHsROgFu0OP84EkgYRrkPtCTZtnf6+Cvbl+o+qOhCx0a5LHAps/qc4MewirIYcW+O9t/u5n5+2rlQxnNfsTjtGDzYRHgs/rODpaED55h6gNd0yz7V2fefvgptPyVyKkzN4Ylf2iHBwLHJwvv75kuPjaU4bP6YRqsaQvFh5N9oGu66KuZrx8C2Ot9UFR9yYPIYJNBF2ibyP8WH9sjIJwMCF4rvP2pM0X4ex32220/ksi+L+hZxP67JNA9XujrShXPDcytXmawDu9gzbHl2DrVB0ZOV6yOVIGZ/x634d0unJv/b+ZLLZZ1wKX4YDNBFOgZK7RtfFY/xLchdWrA43UIT/rA1T5gh387M3/fFj9KXD8bxExin5ss0D7zzds7J5fnemdKz40s8MU7DOiEOn2g/j7QPsXMv/mz+Mbu+2/v16HR3NubHCW8fFAE7sycfc3xycLHY+niM3blzoBX/4CHGWb0gat94Pgk4e/n8Bda/sWgZBP72SyBTZ/V5yt2CS/Ciz6w3z5grxi2Ef6+XfavFiVKPPfFZsUKr+tzAb5il4F+vwM9z6cPbe0DI6fPE/6+vNjvlacJlFH9TT6PKXbPSYG26fw7uqZL5UE+q8/pDS7mpA843AdGFs5bx5j5+37mb68AiKR5wcls4bV8KsBX7DJL2zpL4+/0Caf7gH2r77snlwMRftUlcKl/qsa8TyOL3dqvgH0Ff0dq+YsDs+VLTr/ReT3Cgz5AH9jcB9bDf4LwD0pBIZJ5q3VMb9tvzvB8nwl0P2hE7DvzcTEfA/TmAZo/0x+a1QfWw3+c8A9K+Nv7KTTjSZ9FF7uzL4FT1g32jXoIfgb6Zg30vC59a2sfGF6oWEeZ+QfutIdI5Eb3lTc82T8C9pfwDM6Vr2x9c/J3Bmz6AH2gWX3AnmwcGV8KXPgFaabelH3V8taxVPaN/kkw9qRhge500bA/dtOsNzmviy19gD6wtQ9cDX+W/ZsS0E3+CKFQze80HDg80R8C9kV+vTOln2x9Y/J3Bmv6AH2gmX1gaH6VmX+TQ7qZhUUkof+lP1KMvWhIwP42voH5VZb8Wflg5Yc+4GofWA//MZb9mxnQzX1tc631/nO3NBQ8PMl7gbax4i8Pzq+uNbPC57WZQdIH6ANb+8DgfMU6TPgH+poHRTXK3qcYe9CQgP2VvIPzFWb+zPpcnfVtDQL+Ll9xMDi/ah0ee+WtZJs7W2V7TvuKeO6PGgofnuStQM+Y/oaB+dWXGHzlG3w55hxzL/vAwHr4s+zvdBi7/XoiaV5uOWW92tskY+sNCcRmSs94OQiwbUKIPiBfH+ifX7VamfkHetm/WmgoqrHYUPjwJG8F7Bv8MPjKN/hyzDnmXvaB/jk7/Jn5VwM06D8Vzfwdb5OMrdctYH+Rj32rTS8HArZNENEH5OoD/XNlqzVJ+Ac99Df2XzMu1R0+PMF7gf7Z8kUGX7kGX443x9vLPtA3Ww7FkvdG+AX4M/tOtUFJ6A95n2bsQV0CnanigpcDAdsmiOgDcvWB3tkVwj+EBcPBuPnmusKHB3sr0PbAmZsHMxU+789H/jj9Qx9wpQ/Y4c+yf/g+eig046fephlbr1uga6rwFWZfcs2+ON4cb6/6QGyGmb9Ty+1+ex0lkfts3QHEE7wV4IY/hIFXYcB25ep7Jwj/cJ/2UHMxb9OMrdcl0DlZvI9BWK5BmOPN8faiDxD+4Vvy37wCITTz6brChwd7L9A7W37Wi8GAbRJC9AF5+kBPmmX/zWEZxj8ranbS+0RjD2oWsG/5O3Kaz/0TRPIEEcfa/WPdnS6Fe9k7hFfy112gaHnr0CcfVmoOHx7ovUD75LLKgOj+gIg55rL0ge5pwr/uMA1gQSFU/QnvE409qEugZ7r4A1kGItpJ6NIH3O0DXdNFZv4BDPNGChah5e6rK3x4sPcCg/OVywyK7g6KeOMtQx/oZOYvTfEjkvm1O+LZ13ufaOxBzQL2zX84/08YyRBGtNHdft6RYubfyCw6qM8Rqv5ozcHDA/0hcHyy8H4GRncHRrzxDnUfWDhvdUwVpJn5BjWwnd5vRdU/6o9UYy9qFuiYKqRDPRhxS1dXbulKH6KoWe8DhL+UhY/Q8lcip87cWHPw8EB/CHSmCosM3gze9AH6wH77wMjCees4M38pCwBF1Zf8kWjsRV0CJ6YL39jvG5/nEx70Abn7AOEf7rv77XW6IBLPvbeu4OHB/hDoSRe/y+At9+DN8ef476cPjCxUrLbJZSlnvnsFoxS/18yXWizrgD8Sjb2oS4B7ADD472fw57ly9x975t82QfhLEfQ73MtAietn6wodHuwfAVYA5B7ACXCOf6N94ORCxTpG+Eu/8hHRjLf5J9HYk7oEulPFRxsdAHge4UEfkLMPEP5yn/PfWPHQzJ/VFTg82F8CfApAzgGc4Oa4N9oH7PC/m5m/9DN/uwhQ4rkv+ivR2Ju6BLgPAEHQaBDwPPn6znCG8N+Y/e5wTlym39+VzI7UFTg82F8CbePmBxjI5RvIOeYc83r7gB3+R8e54E+mgN+trSJpXvBXmrE3dQvE4tnX8l0AhEG9YcDj5eozw5lV68j4EsvezPo3+oASz83VHTg8wX8Cg/OrfBsgtwzmlsH0gW37gD3zJ/y56G/zaoBI5q3WMb3Nf2nGHtUtEEuXfsCMTq4ZHceb411LHxiar1iHmflvzHo3h6DMfxaq8VTdQcMT/CnQPrms1jIY8BhCgz4gTx+ww5+ZPzP/7QodkciN+jPN2Ku6BdoyxVu5DkCegZ0Q51jv1QcG51etw2OE33bhJ/2/aXnrWCr7xrqDhif4V6B3ZuXCXoMCvyc46APh7wOEP4XPbkWOUI1v+zfJ2LOGBDoni/cxuId/cOcYc4x36wMDc2WrNcnV/rsFoOy/iyT0v2woZHiSjwUs61WDmfLaboMDvyM86APh7QP96+HP7Ff2gN+9/eZa6/3nbvFxkrFrjQp0The/xAAf3gGeY8ux3akPXA1/Zv67hx/FkaLqK43mC8/zuUDbA2duHsqssgrA58G3/Tz4TuHBvwe7sOifLVutXPDHR/1quMmRouof8nmMsXv7EeicXJ5jQA/2gM7x4/jV2gcIf2b1ta56iKR5uSWTuWE/+cJzAyDQP1u+WOsAwuMIG/pAMPtA72zZijLzZ+Zfw8zfLhKEamQDEF/s4n4F2iaX3mJ/5ScDezAHdo4bx22vPhCbIfxrnfnyuKsbQQreAAAgAElEQVSrJMpo7t37zRaeHxCB7qnCQ3sNIvyeoKEPBK8PnJhZYdZb46yX8K+eIjEvBiS62E2nBGLp4jMM8MEb4DlmHLOd+gDhXw00ftZT3CiqfsapXOF1AiLQM6a/YWCObwrcaTDl3wnaIPWBnjQz/3pCj8deK5IOxs03ByS22E0nBXrGCm0D86tXgjTQsa8EM33g+j5A+F8LM4K9Pguhmc87mSm8VsAEjk3qvzo4z/0BCJXrQwWPYHh0TZc45885/4b7gJLIfTZgkcXuOi3QljC6B+Y5HUDoBSP0OE5XjxPhX99sl9WBbbzUXMzpPOH1AijQMbYkemdXfsrgSgjSB/zfBzqniw3P+gjCbYJQwlUEoRpPBzCq2OWmCVjWq3qmi0UCwP8BwDGS9xh1pAh/ipj9FzGKmp1sWpbwwsEVaE8X/3BwrszFgXxvADeM8lEfGDldsTpSBWb+Es7WHS94tLx1MJ6NBjel2POmCsTi2dd2p4sGdw2Ud6bJKoOPjv3Ceat9ipm/40EoaTEhVP2JpgYILx4OAfsCwZ7p0rdPLvhoMPTRrIyQpF+40QeOE/6sfDhYrAh18e/DkVC0whUB+yLB7lRJH5jjvgFuDPhsg8LC7gMjp89bx6dY9mfmv/9z/lVDkcyv3amdvdWV4GAj4RM4PlX4o76Z8k8IKUKKPtC8PjCyULHaJgn/anDx05kiQNGMb4QvlWiR6wInppff3TdbvkAINC8EsJXT1p75E/7OBB6Fw/WOymj2I66HBRsMr0DXRPG/UQjIGVQUKM4fd/vC22MTy5zzdvCcN0XA1SJAaPkrkVNnbgxvGtEyzwQ608v/o3+OmwkRis6HoiymdvjfTfhT/DSp+FFUPe9ZQLBhOQS6pgt/2j+38qIsgzbtJPCd6ANXZ/6c82e2fv2SvZMekXjuvXKkEK30XKBjovSR/vkyhQAfW+SGQnv0gfWZ/zjL/k6GHa+1pZDQzJdaLOuA58HADsgl0JUqfHxgrnzJiVkSr8FsO2x9YHihYh1l2Z9l/yYt+1cLIZHQvy5X8tBaXwl0Ti7fN8i3DjIb3mM2HLaA3609w5mKdXR8ifBrcvhVQ1DmnxHNeJuvAoGdkVDAsn6uc3r5waH5yuXdBkZ+x0w/7H1gKFOxjhD+FD9uFD+a+TMJ04Ym+1bglHWga2p5eihT4UuHmBFLtyoyNL9K+LsRfGxjvcCKqLl/9m0WsGMSC2wUAqtrYZ/x0T5WNew+MJipWIeZ+TPzd7E4uSuZHZE4ZWi63wVav3D+P3RPFj47nKEQoFAIb6EwlFm1Do9xzl/mc/Fut11oxgW/j//sHwLrAnd+4ruv6Z4ufenkQoUVAU4NhOrUwOC8Hf5bPprl4izQ7eBhe/441ko8N0e8IBAogTviT9xkFwL2VdLMiMM7I5bl2BL+/ghD2YoSkcxbrWN6W6AGf3YWgapAbGb19T0zpa8PZ1YpBFgRCGQf6J9ftVqZ+XPO34PVHqHqT1bHUn4iEFiBe8b0N/Skiw/bd0yTZdZIO4O/8jFA+BP8HgR/daVDqNkHAzvos+MIbBUY+Ow3b+9OF3UKgeCHY9gLnP65stWa5IK/ahjx0/3TIIq6fPvWMZS/IxB4gR5NP3QivZKnEKAQ8GMh0bce/u4P+IQs5tU+IFT924Ef6GkAArsJ9KbKR2MzpdURTg1wasQn10j0zq6w7O3hsnc1AGX/qai5v9ht7OR3CIRGoGe60BZLr3xj5DTXCPhxRizLPvXOlq0oF/xRAHleAJlrrfefuyU0AzwNQaAWgVhmqeNqIcDSuCyh65d2xpj5E/yeB//VUyCKqpdqGS95DAKhFOgYW/rF2MzK90YWKAT8EpBh3o8TMyz7y77k7qf2i/jiB0M5sNMoBOoRaE+t/MdYuvjDeygEuEagSdcIxNKEv5/CT/Z9EUnzcksmc0M94ySPRSDUAh2TS79qFwJcI8CKiJMrET2EP8v+Pln2rxY+imoshnowp3EINCrQNVH8z30zpaedDAFeS86igvDnI3fV0PXTT2U09+5Gx0eeh4AUArHplXf1zZYvEN5yhvd+j3v3dImZr89mvn4KYc/2RTMuSTGA00gEnBDonC78VwoBioB6CoKu6SLhT/j7sg8oqn7GiXGR10BAKoGO1NJ/759b+Wk9QcBj5SscOpn5+zL4PJtx+6wQOhg33yzVwE1jEXBSoHu69Mf9cysvEu7yhftux9y+eLQjxcyfoPXvdQ9CM593cizktRCQVqBzauXD/fNlCoEmfXRut7D12+/s8G+fIvwJf/+Gv31sFNX4v9IO2DQcgWYIdKVLfz4wX77ot1Bif9xboTg+VWDZ22dL3RQj2xQjai7WjDGQ10RAeoGuVOETg/Orlwhe94LXD9bHmflT/ASg+BGa+WPpB2kAEGiqgGX9XGdq+dND86uX/RBO7EPzihH7FtLM/LeZZQYgDGVcHVDi+kRTxz5eHAEEXhY4ZR3oShW0ofnKFUK4eSHsla391dJtk8vMfAn7YPQBLW8djGejjM8IIOCmgF0ITC1PD2UoBLwKa6e3O3L6vNU2yTl/GWfRQW2zohqPuznssS0EENgkEItnf75rujQ3lKmsOR1IvJ57KwwnFyrWsQlm/kENQln3W8SNT2wajvgjAgh4IRA5860bu1PFzw8vUAgErXAh/DnfH8QCQiTza3dqZ2/1YrxjmwggsI3AHfEnbuqeLn1peOE8KwIBuI+AHf53M/MPxvlurku47jgJVX90myGIf0IAAa8FWqd/fEtsunRmOLNqBW1GLMv+DmcI/yDOfNnnqys2ipr7M6/HObaPAAK7CNwzpr+hJ1182J5pyhKsQWinHf5HxznnT5gG8/SH0PJXIqfO3LjL0MOvEEDALwLDn3n0tu50UacQcO/Cvp0KEXtV5sj40nXLqQRhMINQ1uOmaIbpl7GN/UAAgRoF+maXD55Ir+Tte8zvFFD8e/OKBHvmT/gT9kEvHJSE8Qc1Djk8DAEE/CbQNblyJDZTWrVvPEPgNy/wN9sOZSrW4TFm/kEPP+n3XzNfarGsA34b09gfBBCoU+DEVOVYLL3yDVYEmlsEDM0z85c+OEPyKQKh6l+rc5jh4Qgg4GeBvnSlO5Zeecy+G93mWSt/3r/H4PwqM/+QhB9FTN6KaMbb/DyWsW8IINCgQP9subd3pvSdexb2H3wUD+etq+HPOW+CMxx9QKjGCw0OLTwNAQSCItCdWv6PvenSExQCjRdCA3NlqzXJOX/CPxzhbx/HSML4QlDGMPYTAQT2KdA5VfzlWLr4Q64RqK8QGJhbtVrHwjPwE+IcS7sP3JXMjuxzSOHpCCAQNIETM4Xf7J1ZeYpl/b0LgX5m/tzjIITXPAjNuBC0cYv9RQABBwW6p5be1TdXfoZCYPtCoG89/JktsmIQvj6gxHNzDg4lvBQCCARVoCdV+N2+2fIFCoFrhUD/bJll/xDOfClm8pZI5q3WMb0tqOMV+40AAk0Q6Jpefl//XPk52QuB3tkVK8o5f5b+Q1oACVV/sgnDBy+JAAJhEOhOlf7nwFz5BRkLgdhMmfAPafAx+796KkOo2QfDME7RBgQQaKJA12ThT/vnyy/KUgjEZlaY9RL+oe8Dirp8exOHDV4aAQTCJNCZWj41OF++GOZC4AThH/rgYwUgbwlV/3aYxibaggACLgl0TS3/3eD86qWwFQI96RLhx8xfij6gqLm/cGm4YDMIIBA6Acv6ua508ZND85XLYSgEetIs+zMzDt/H/LY/puZa6/3nbgndmESDEEDAZYFT1oGuVEEbzgS3EOhm5i/FrHf7MJQl9K+1U1H1ksujBJtDAIFQC7xcCAxlKleCtCLQNc2yP8F4LRxlsBDxxQ+GeiyicQgg4I1ALJ79+a7p0txQZnXN74VA13SRmS/n/KXqAyJpXm7JZG7wZnRgqwggIIVAW6ZwQ0+69A/DCxVfFgKdKcJfhtkubbx+dUNRjUekGIBoJAIIeC8QOfOtG7tTxc8PL5z3RSFgfwNiR6og1ayPELw+BGX2EPHsu7wfFdgDBBCQSiAW/8ZrY9OlM16uCNjh3z7FzF/mAJS67Zp5UapBh8YigIC/BLrHv/W6E6niV08uVCy3rxFon2LmL3UASn69g0jkvuKv0YC9QQABKQWGP/PobT3p4sNuFQLHJwl/wl/uUwEH4+abpRxsaDQCCPhToG92+eCJ9Ep+pEkrAvbrthH+XPMg++xfM5735wjAXiGAgPQCw+nSod6ZlYKThcDI6fOEv+TBx6rH1VWPSCL3j9IPMgAggIC/BTpT5aOxmdLqfgsB+9TCsYllZr4UAPQBuw+ouZi/3/nsHQIIIPCyQF+60h1Lrzw2snC+7osF7fC/m/An+Ch+1vuAUI0fM7AggAACgRPony339s6UvnNPjYXA1Zk/F/yx9C33BX+bj39EzY0F7o3PDiOAAAJVgY4p/Rd706UndisEhjMV6+5xlv03D/78WfJCQMtbB+PZaPV9xE8EEEAgsAInUsVf751Zecq+qc/m+wgML1Ssoyz7s+zPsv91fUBRjccD+2ZnxxFAAIHtBLpTpXv7Z8s/sosAe+Z/dHzpuoGPma/kM18Kgavn/+PGJ7Z7//BvCCCAQOAFemcL7zicNPVo0qQAIPToA5v6gEjm1+7Uzt4a+Dc5DUAAAQR2E2hV84NKQjcpBJj5s/pztQ8IVX90t/cMv0MAAQRCJXAomf0le+AjBCgEZO8Dymj2I6F6c9MYBBBAoBYBkdArsgcA7Ze3CBJa/krk1Jkba3mv8BgEEEAgVALrKwGbzocShvKGoYzHXtEMM1RvaBqDAAII1COgqMY3ZRz8aTPFjpIw/qCe9wqPRQABBEIlcEhd/A3CkDCUrg9o5kstlnUgVG9mGoMAAgjUKyBU49vSBQCnPqT+OKBQ9a/V+z7h8QgggEDoBBQt95sUAKwCyNQHIprxttC9kWkQAggg0IiAfTtUmQKAtspb8AjVeKGR9wjPQQABBEIpEFVz7yQU5Q1FmY59JGF8IZRvYhqFAAIINCogVPMHMgUBbZWz4LkrmR1p9D3C8xBAAIFQCiijuXcTinKGoizHXajGs6F889IoBBBAYL8CQjWekiUMaKd8xU4kkZvd73uE5yOAAAKhFLBvjkIwyheMMhxzkcxbrWN6WyjfuDQKAQQQcEJAaObTMgQCbZSr0BGq8UMn3h+8BgIIIBBaARHP/RHhKFc4ynC8I6r+6dC+aWkYAggg4JSAfbGUDKFAG+UpdBR1+Xan3h+8DgIIIBBaAZHIfphwlCccw36shao/Fto3Kw1DAAEEnBYQSfNC2IOB9slR5Cij2Y85/f7g9RBAAIHQCkTiuVMEpBwBGe7jbK61ZQo3h/aNSsMQQACBZggIzXw+3OFAwIf9+CqqXmrGe4PXRAABBEItEInrfxX2gKB94S6CRHzxg6F+k9I4BBBAoCkClnUgqpk/IyTDHZJhPb4iaV5uyWRuaMp7gxdFAAEEwi4g1MW/D2tA0K5wFzaKajwS9vcn7UMAAQSaJ3DKerVgFcCiWAhesSDi2Xc1743BKyOAAAISCNh3USMAgxeAUh8zzbwowVuTJiKAAAJNFshkbohq5kWpAyVJARCk4y8Sua80+V3ByyOAAAJyCCgJXQtSALCvchcsB+Pmm+V4Z9JKBBBAoNkC66sAxiWCVe5gDcLxF5rxfLPfDrw+AgggIJWAohqpIAQA+yh3kRJJ5P5RqjcmjUUAAQSaLRCLZ2+KauZLBKzcAev746/mYs1+L/D6CCCAgHQCUdWY930AcMGetB9bFKrxY+nelDQYAQQQcEOg9f5ztwjNvEwRwCqAH/tARM2NufE+YBsIIICAlAL2OVY/Dv7sk+xFiWkpn9IPSfmmpNEIIICAGwKRceN1US1/hcCVPXD91X5FMx53o/+zDQQQQEBqAZEwPkcB4K8AlP54qPrfSf2mpPEIIICAGwLRB/O3CVYBpL3YzofFxtqd2tlb3ej7bAMBBBCQXkBJ6F/yYRAQyhJ+CkKo+nnp35AAIIAAAm4JHJk8+wvRpLlGEcCpAK/7gEhkP+xWv2c7CCCAAAItLS1KQn/I68Gf7ctdgNinoiKnztzIGxIBBBBAwEWB6AOPHIwm86wCSLjs7pfCS0nopotdnk0hgAACCFQFREL/ul/CgP2QbzVAiWffU+2L/EQAAQQQcFFAjBqHBasAXHzowSqI0MxLLZZ1wMXuzqYQQAABBDYLKKrxMLNv+WbfXh9zoepf29wP+TMCCCCAgMsCUW2x3eswYPvyFSARzXiby12dzSGAAAIIbBVQVN0ghOULYa+OuVCNF7b2Qf6OAAIIIOCBQCTxSHdUIwC9CkTZthtJGF/woJuzSQQQQACB7QQUzViWLYhorzdF313J7Mh2fZB/QwABBBDwQCASzw6wCuBNIMpUiAjVeNaD7s0mEUAAAQR2E1BUfUWmMKKt7hc8kURudrc+yO8QQAABBDwQiCYeGSYU3Q9FWcxFMm+1jultHnRtNokAAgggsJeA/e1ssgQS7XS32BGq8cO9+h+/RwABBBDwSOBQMvtL9kyNcMTA6T4QUfVPe9St2SwCCCCAQC0CQjO+5fTgz+tRUCjq8u219D8egwACCCDgkYCIG/cS2AS2k31AqPpjHnVnNosAAgggUI+AUPXvOhkAvJbcBYUymv1YPf2PxyKAAAIIeCQQGV18K6Etd2g7d/zNtbZM4WaPujKbRQABBBCoV0Co+hPOhQBhKqul0IxivX2PxyOAAAIIeCggRhd/W9bQot3OFWwRVf9DD7sxm0YAAQQQaERAqPqThKFzYSibpUial1tOWa9upO/xHAQQQAABDwVEQv992UKL9jpX8Ciq8bCH3ZdNI4AAAgjsRyCqGT8iFJ0LRZks7dNI++l7PBcBBBBAwEOBSDz3XplCi7Y6VOxo5kUPuy2bRgABBBBwQkBo5jMEo0PBKMmtloWa+7ITfY/XQAABBBDwUEBR9Q9RAFAA1NMH7lIXf83DLsumEUAAAQScEhCq8Ww9AcBj5S0YhGY871S/43UQQAABBDwWUNTcnxHq8oZ6Pcc+ksj9o8fdlc0jgAACCDgpYM/s6gkCHitpwaDmYk72O14LAQQQQMBjAftLXQh1SUO9xosXhWr82ONuyuYRQAABBJohwCoABcBuRWBEzY01o9/xmggggAACHgso8cW/2S0A+J3MBYJpKZ/SD3ncRdk8AggggEBTBCzrQFQzf0bQyxz027dd0YzHm9LneFEEEEAAAX8ICC13HwXA9iEotYuq/50/eih7gQACCCDQHIFT1quFZr4oddjVeFGcREZrd2pnb21Oh+NVEUAAAQR8IyASuVGJws2irbuveAhVP++bzsmOIIAAAgg0USCTuSGaNC8SjLsHoyw+IpH9cBN7Gy+NAAIIIOAnAfsjX7IEHO3cudARWv5K5NSZG/3UN9kXBBBAAIEmCsTi2ZuEZr5EOO4cjjLYKAndbGI346URQAABBPwooCRy0zKEHG3cuchR4tn3+LFvsk8IIIAAAk0UsFcBoqwCSHuRoNDMSy2WdaCJXYyXRgABBBDwq4CiGhlmyDvPkMNsoyRyX/Vrv2S/EEAAAQSaLBAZN14nkublMAcdbdu+wImMLr61yd2Ll0cAAQQQ8LOAksh9lpDcPiTD6iJU4wU/90n2DQEEEEDABYE74tnX2x8HC2vY0a5XFjdCNT7vQtdiEwgggAACfheIJIwvEJSvDMqwmtyVzI74vU+yfwgggAACLghEH8zfxiqAHAWA0IxnXehSbAIBBBBAICgCIq7/a1hnvLTrWnETSegzQemT7CcCCCCAgAsCRybP/kI0aa4RltfCMowWImEecaE7sQkEEEAAgSAJKKr+/8IYerTpalEjVOOHQeqP7CsCCCCAgEsCyqf0Q9FknlWAZDhXASKq/mmXuhKbQQABBBAImkA0of87M+ZwFgCKunx70Poj+4sAAggg4JKAGDUOizFWAcJWBAlVf8ylLsRmEEAAAQSCKqCoxmLYAlD29iij2Y8FtT+y3wgggAACLglEtcV22QMzXO0319oyhZtd6j5sBgEEEEAgyAJKQjfDFYLhPK9fyzESmlEMcl9k3xFAAAEEXBSIJB7pjiZNq5aA4TH+Li4iqv6HLnYdNoUAAgggEHQBkTAKhLu/w32v42N/3XPLKevVQe+L7D8CCCCAgIsCkXh2IKoFOwD3Csiw/15RjYdd7DJsCgEEEEAgLAKKqq+GPSTD3D4xuvjbYemLtAMBBBBAwEWBSEL/RRHSO+OFOfjX26aZF13sKmwKAQQQQCBsAkLVHw19WIawyBFq7sth64u0BwEEEEDARYG7RvVfoQAI3rUQd6mLv+ZiN2FTCCCAAAJhFLBvJUsREJwiQKjmc2Hsh7QJAQQQQMBlARE37qUACE4BEEnkPuNyF2FzCCCAAAJhFYiqxvcoAoJRBLQ+uNgT1n5IuxBAAAEEXBZQNOM/UQAEoADQjB+53DXYHAIIIIBA2AUUzfw+RYC/i4BIIpcMez+kfQgggAACLguIePZdFAB+LgBMS/mUfsjlbsHmEEAAAQRkEBCa8SRFgE+LANX4ngx9kDYigAACCHggoMSz76EA8GcBoCRyf+tBl2CTCCCAAAKyCAjV+DFFgO+KgLU7tbO3ytIHaScCCCCAgAcCkXjuvRQA/ioAREKveNAV2CQCCCCAgGwCQjOepQjwTxEQSeh/IlsfpL0IIIAAAh4IROK5P6YA8EcBILT8lcipMzd60A3YJAIIIICAjAJCMy5QBHhfBCgJ3ZSx/9FmBBBAAAGPBBRV/ygFgA8KgHj2PR51ATaLAAIIICCrgNDM5ykCvCsChGZearGsA7L2P9qNAAIIIOCRgKLm/oICwLsCQEnkvurRoWezCCCAAAJSC1jWAaEZP6UI8KYIiIwuvlXq/kfjEUAAAQS8E4iq+t9RALhfAAjVeMG7o86WEUAAAQQQWF8FMH9GEeBuESBU4/N0PgQQQAABBDwVUBL6JykA3C0A7kpmRzw96GwcAQQQQACBlkzmhqhmXqQIcKcIsO/ESK9DAAEEEEDAFwKKasQpANwpACIJfcYXB52dQAABBBBA4OVVgEsUAc0vAkTCPEKPQwABBBBAwDcCSlyfoABobgEgVPMHvjng7AgCCCCAAAK2QCyevSmqmi9RBDSvCFDixqfobQgggAACCPhOIJLIzVIANLEAUJdv991BZ4cQQAABBBBovf/cLSJpXqYIcL4IEJrxLXoYAggggAACvhWIqLl/oABwvgCIaPr/9u1BZ8cQQAABBBCIjBuvYxXA6QLAXGvLFG6mdyGAAAIIIOBrAaHm/olVAOeKAJHQi74+4OwcAggggAACtkD0wfxtQstfoQhwpghQRvUP0LMQQAABBBAIhIASz32RAmD/BYDQjMstp6xXB+Kgs5MIIIAAAggo6vLtIskqwH6LICVhnKM3IYAAAgggECgBkch9Zb8BKP3z1dw7A3XQ2VkEEEAAAQSiDzxyMJrMr0kf4skGTwVo5kV6EQIIIIAAAoEUUBK5r1IANFYACDX35UAedHYaAQQQQACBg/FsVLAKYDVSBN2lLv4aPQgBBBBAAIHACiiq/u+NBKDMzxGq+VxgDzg7jgACCCCAgC1gf4e9GONagHoKmkgi9xl6DwIIIIAAAoEXEKqRrScAZX9s64OLPYE/6DQAAQQQQAABRc11RrXGLoaTrhjQjB/RYxBAAAEEEAiNgKLqeenCvIGPAEYSuWRoDjoNQQABBBBAQDxg9EWTZkNXxMtTOJiW8in9EL0FAQQQQACBUAkIzSjKE+YNnPJQje+F6oDTGAQQQAABBGyBVjU/yLUAOxcGSiL3t/QUBBBAAAEEQikgVGOVVYBti4C1O7Wzt4byoNMoBBBAAAEEDiWzvyQauDgu7EWDSOgVegcCCCCAAAKhFlBU45thD/R62xdJ6H8S6oNO4xBAAAEEELDvc19vQIb58ULLX4mcOnMjPQMBBBBAAIHQCwjV+HaYQ72etimqboT+gNNABBBAAAEEbAFFy/1mPSEZ5seKhP779AoEEEAAAQSkEVA04/EwB3tNbdPMSy2WdUCag05DEUAAAQQQiKq5d9YUkiH+1ICS0P+NnoAAAggggIB0Aopm/EDmIiAyuvhW6Q46DUYAAQQQQEDEs++StQAQqvECPQABBBBAAAFpBYRqPCVjESASxuekPeg0HAEEEEAAgUg8914ZCwD7uxE4+ggggAACCEgtIFTjaamKAM34kdQHnMYjgAACCCBgC4j44gdlKgBE3PgERx4BBBBAAAEE7CJAM56VoQgQmnG5LVO4mYOOAAIIIIAAAhKtAijx3BwHHAEEEEAAAQQ2CQjNeDLMqwBCM1+KjBuv29Rk/ogAAggggAACIm7cG9XyVliLACW++DccZQQQQAABBBDYRsC+PW4YCwCh6k9u01z+CQEEEEAAAQRsgVg8e5PQjAshKwLWxANGH0cYAQQQQAABBHYRiKq5mNDyV8JSBAhN/+tdmsuvEEAAAQQQQKAqYN8bQITgmwCVhP5QtU38RAABBBBAAIEaBBRVXwjyKoBQ9cdaLOtADU3lIQgggAACCCCwWSCS0GeCWATYX3VsX8+wuS38GQEEEEAAAQTqEIgkcrOBKgJU43ut95+7pY4m8lAEEEAAAQQQ2E4goubGglAEKJqx3JLJ3LBdG/g3BBBAAAEEEGhA4FAi+/6oZvr00wGmpajZyQaaxVMQQAABBBBAYC+B1jG9Taj69321GqCZPxOji7+9177zewQQQAABBBDYp4ASNz4lkuZlrwsBkch9hYv99nkweToCCCCAAAL1CBxLZd/48q2D19wsBOz7EwhVP8/d/eo5WjwWAQQQQAABhwUOxrNRoea+3OwVAZHMrymaYSqj+pscbgIvhwACCCCAAAKNCkROnblRGc1+TCT0b2xANagAAAEpSURBVEWTeYdWBUxLqMZTIpEbjT6Yv63RfeN5CCCAAAIIIOCCgH1ePpLIvk/E9X9VVONxoZmXajlNYK8i2IGvJHJfjai5/3VHPPt6F3aXTSCAAAIIIIBAswTWi4J4dkAZzb3b/q6BSDz3x4qqf8j++12j+q9w855myfO6CCCAAAIIIIAAAggggAACCCCAAAIIIIAAAggggAACCCCAAAIIIIAAAggggAACCCCAAAIIIIAAAggggAACCCCAAAIIIIAAAggggAACCCCAAAIIIIAAAggggAACCCCAAAIIIIAAAggggAACCCCAAAIIIIAAAggggAACCCCAAAIIIIAAAggggAACCCCAAAIIIIAAAggggAACCCCAAAIIIIAAAggggAACCCCAAAJ7Cvx/0T5YGVgsWD4AAAAASUVORK5CYII=;" vertex="1" parent="1">
          <mxGeometry x="779" y="878.8800000000001" width="15" height="15" as="geometry" />
        </mxCell>
        <mxCell id="fqA9Xs131egoBfww3Tdx-88" value="Экран 3" style="text;html=1;align=center;verticalAlign=middle;whiteSpace=wrap;rounded=0;" vertex="1" parent="1">
          <mxGeometry x="674" y="658" width="60" height="30" as="geometry" />
        </mxCell>
        <mxCell id="fqA9Xs131egoBfww3Tdx-89" value="" style="rounded=1;whiteSpace=wrap;html=1;fillColor=#d5e8d4;strokeColor=#82b366;" vertex="1" parent="1">
          <mxGeometry x="618" y="691" width="120" height="144" as="geometry" />
        </mxCell>
        <mxCell id="fqA9Xs131egoBfww3Tdx-90" value="Запрос на изменение/редактирование целей" style="text;html=1;align=center;verticalAlign=middle;whiteSpace=wrap;rounded=0;" vertex="1" parent="1">
          <mxGeometry x="626" y="707" width="104" height="112" as="geometry" />
        </mxCell>
        <mxCell id="fqA9Xs131egoBfww3Tdx-119" value="" style="edgeStyle=orthogonalEdgeStyle;rounded=0;orthogonalLoop=1;jettySize=auto;html=1;entryX=0.595;entryY=-0.007;entryDx=0;entryDy=0;entryPerimeter=0;" edge="1" parent="1" source="fqA9Xs131egoBfww3Tdx-91" target="fqA9Xs131egoBfww3Tdx-94">
          <mxGeometry relative="1" as="geometry">
            <mxPoint x="584" y="1064" as="targetPoint" />
          </mxGeometry>
        </mxCell>
        <mxCell id="fqA9Xs131egoBfww3Tdx-91" value="" style="rounded=1;whiteSpace=wrap;html=1;fillColor=#d5e8d4;gradientColor=#97d077;strokeColor=#82b366;" vertex="1" parent="1">
          <mxGeometry x="668" y="844" width="120" height="28" as="geometry" />
        </mxCell>
        <mxCell id="fqA9Xs131egoBfww3Tdx-92" value="Дополнения пользователя" style="text;html=1;align=center;verticalAlign=middle;whiteSpace=wrap;rounded=0;" vertex="1" parent="1">
          <mxGeometry x="700" y="843" width="60" height="30" as="geometry" />
        </mxCell>
        <mxCell id="fqA9Xs131egoBfww3Tdx-93" value="" style="rounded=0;whiteSpace=wrap;html=1;fillColor=#D4E1F5;" vertex="1" parent="1">
          <mxGeometry x="461" y="1248" width="192" height="232" as="geometry" />
        </mxCell>
        <mxCell id="fqA9Xs131egoBfww3Tdx-94" value="" style="verticalLabelPosition=bottom;verticalAlign=top;html=1;shadow=0;dashed=0;strokeWidth=1;shape=mxgraph.android.phone2;strokeColor=#c0c0c0;" vertex="1" parent="1">
          <mxGeometry x="457" y="1224" width="200" height="390" as="geometry" />
        </mxCell>
        <mxCell id="fqA9Xs131egoBfww3Tdx-95" value="" style="verticalLabelPosition=bottom;verticalAlign=top;html=1;shadow=0;dashed=0;strokeWidth=1;shape=mxgraph.android.keyboard;sketch=0;" vertex="1" parent="1">
          <mxGeometry x="465" y="1474" width="185" height="100" as="geometry" />
        </mxCell>
        <mxCell id="fqA9Xs131egoBfww3Tdx-96" value="&lt;font style=&quot;color: rgb(204, 204, 204); font-size: 12px;&quot;&gt;&amp;nbsp; &amp;nbsp; &amp;nbsp; Сообщение&lt;/font&gt;" style="rounded=1;html=1;shadow=0;dashed=0;whiteSpace=wrap;fontSize=10;align=left;strokeWidth=2;" vertex="1" parent="1">
          <mxGeometry x="467" y="1454" width="183" height="16.88" as="geometry" />
        </mxCell>
        <mxCell id="fqA9Xs131egoBfww3Tdx-97" value="" style="shape=image;verticalLabelPosition=bottom;labelBackgroundColor=default;verticalAlign=top;aspect=fixed;imageAspect=0;image=data:image/png,iVBORw0KGgoAAAANSUhEUgAAAgAAAAIACAYAAAD0eNT6AAAAAXNSR0IArs4c6QAAIABJREFUeAHt3Q2QI2d95/HJQnzG5TKUC+zC8XrVj2Z3vbPzupr3HZPLGxXiSqAo7rhQJJdLkYKiihQ57pKQgrq9kEpySSAug/FI3Zo3jeZFsyFHCqgQAusLsFl7pO7WjKTRaA2YFxuwwfZiY7zr3emrnrVmZ8fzImla/fZ8XeWa3R1J3c+nHz2///N0q9XSwn8IIIAAAggggAACCCCAAAIIIIAAAggggAACCCCAAAIIIIAAAggggAACCCCAAAIIIIAAAggggAACCCCAAAIIIIAAAggggAACCCCAAAIIIIAAAggggAACCCCAAAIIIIAAAggggAACCCCAAAIIIIAAAggggAACCCCAAAIIIIAAAggggAACCCCAAAIIIIAAAggggAACCCCAAAIIIIAAAggggAACCCCAAAIIIIAAAggggAACCCCAAAIIIIAAAggggAACCCCAAAIIIIAAAggggAACCCCAAAIIIIAAAggggAACCCCAAAIIIIAAAggggAACCCCAAAIIIIAAAggggAACCCCAAAIIIIAAAggggAACCCCAAAIIIIAAAggggAACCCCAAAIIIIAAAggggAACCCCAAAIIIIAAAggggAACCCCAAAIIIIAAAggggAACCCCAAAIIIIAAAggggAACCCCAAAIIIIAAAggggAACCCCAAAIIIIAAAggggAACCCCAAAIIIIAAAggggAACCCCAAAIIIIBA7QJtU0u/15kqfPXETOn7fXPlFwczlbXhTMUaWahY95w+b42crlgnFyrWUOb82uB85XLvTOknPdPFSsdUId2dNg7XviUeiQACCCCAAAKeCbQ9cObmjtTydO9M+cJwZnU95O2gb+j/hfPWwPzq5Z508Vttk8vv9qxRbBgBBBBAAAEEthdoGzc/cGJm5cmTmasz+4YCf49CYWBu9XLXVOHMwPS5W7bfC/4VAQQQQAABBJoucCSefX1HqvDFgbnyS80I/J1e0z5d0DNdzPWM6W9oeiPZAAIIIIAAAghcFTiezP/uiXTpcfvc/U4h7ca/Dy1U1rqmlsY5LggggAACCCDQJIFYPPvarlThnwZmy5fcCPd6thGbKT1/bCx/oklN52URQAABBBCQT6B9wnxz13SpvO8L+vY4v19P4G/3WHv/jk8t/R/5jhAtRgABBBBAwCGBOzNnX9M5uTzXN1u+uF3Y+vXfRhbOW11ThUccYuBlEEAAAQQQkEOgbaz4y/Zs377Izq8hX8t+2dcntFjWATmOGq1EAAEEEECgEYFT1g2dqWWtb7b8s3sWGvy8fpOX92sJ/a2P6U6v/JAioJEOwXMQQAABBEIt0DG+1NGVKp4bzKwGera/Nfjtv9ufTjg2UbCEqn8t1AeRxiGAAAIIIFCrQOdk8b7emZXn7fPl24Vn0P/Nvs3w3RPLVjSZv/q/aszXasPjEEAAAQQQCJXAtdl+OXSz/c0Fy/BCxTq6OfyTeUsk89ahRPb9oTqgNAYBBBBAAIEdBSzrVccnCx+PpYvP2F+4szkow/hne+Z/dHzp2sy/ugKwXgSYl0XCPLKjFb9AAAEEEEAg6AJtE/lf6U4VKsOZSqhn+5uLGPseAEd2CP9NpwK+F/Rjy/4jgAACCCBwvcAp64b2yWW1b3blhc3BKMOfh+ZrCP+XVwMi8dyp6+H4GwIIIIAAAgEUOJZavrdruvCNoSZ+A5+fi4jBTMU6vNfMf9OpgKhmXoqMG68L4KFmlxFAAAEEZBew79K3MdsP6ZX8tRQdQ/ay/9j25/w3lv03h391FUDN/YPsfYj2I4AAAggESKB9wp7t+/+e/LWE934fMzi/ah0ee/ljftuE/G4FgEial1vvP3dLgA49u4oAAgggIJtAW6Z4a1dq+XP9syuXZLiSv5bCYD/hXy0MlIQ+JVtfor0IIIAAAgEQaJss/r59P/uTkp7b36kQGJgvW60Nzvyr4W//FJr5fAC6AbuIAAIIICCDQPeDRqR7qvDQwPzqSzsFoMz/3j+3arU2cM5/c/Bv/rOIG/fK0K9oIwIIIICATwWOTyx97MRM6emTEl/Qt1dh0z9btlqT9V/wtznwt/5ZJPSv+7RLsFsIIIAAAmEVaEsY3etfxDNfubJX+Mn++7718G/sgr+tob/570IzfxrW/kW7EEAAAQT8JCDxzXoaLWLs8N8c2k7/mdsD++kNwr4ggAACIRM4Nl74L92p4mND8+G/H3+jQb/d83pnV6yoAxf87VY0KPHFvwlZd6M5CCCAAAJeCrTPfPP2rqni5wZmy5e2Czf+bfevIo7NrDR15l8tCpSE/m9e9hO2jQACCCAQEoGO8aWPxtKlp04uMNtvtMg54VL420WAUM3vhKTr0QwEEEAAAbcFOsaXOuwL+gbmV7mg7/TuM/u9ioJY2p2Zf3UFQKjGC273F7aHAAIIIBBkgZcv6OudKT3HHfr2F/rVoqDH5fBfXwFI5q8EuRuy7wgggAACLgkcT+Z/t2e6+B37++erwcXP/RcA3emSK+f8qzP/jZ9a3nKp67AZBBBAAIGgCRydLd/BBX37D/mdCqXuaY/C/+UvEWrLFG4OWp9kfxFAAAEEmiVgWQeOj5sf750pXRjhDn1NW+3oTBW9mflv/gbBBx452KxuxOsigAACCARE4NpX7lbWdpqx8u/OrAZ0ejzzr54GiMWzNwWke7KbCCCAAAJOCvCZfWcCvZ7CqMMPM3/7Y4BJrgFw8r3EayGAAAL+F7CsA8fGl/66d6b0LEv87hUA9icm/BL+658C0Ew+BeD/dyt7iAACCOxfoG1y6S1d06XyUIYl/npm7I48duG81TFV8P6c/6bz/0Iznt9/r+IVEEAAAQR8KXAslX1j52Thn/vnyhfv4YK+pl3Qt1eRcHzKBxf8bQr/9RUAVf+uLzstO4UAAggg0LgAt+V1b2l/t/C3T7Ec99nMv3oBoJLQv9R4D+OZCCCAAAK+EbCv4u+ZLlYGWeL3bKa/uRgYOX3eapv017J/Nfztn4qa+zPfdF52BAEEEECgPoH2seWDHVPL/9I/u3KJJX5/zPrtIsDv4W8XAIc++bBSX2/j0QgggAAC3gqcsm44Pln4eCxdfIar+P0T+tXZv/1tiMcmln11wd/mmb/9Z6EZF7ztxGwdAQQQQKBmgeNj+ff0TBcf4yp+/4V+kMLfLgAiau6fa+54PBABBBBAwH2Btkmzp3OqcG5gbvVyNWT46c8CwJ753z2x5OuZf3Ul4JC6+Bvu92a2iAACCCCwq8CdmbOvaZ9cVte/bneh4osL2ig6di86hjN2+Pt72b8a/kIzfrprB+SXCCCAAALuCrSNmx84kS49bocJgbt74PrJxz5eR8eDEf7r5//V3D+527PZGgIIIIDAKwTaJ8w3d6cK+YH51St+CjX2pbYCxA7/I+PBWPbfWAF4wOh7RUfkHxBAAAEEmi9Q/QKevrnyi3x0r7ag9WNBMhTE8NfMp5vfw9kCAggggMA1gc0f3TvNEr8fA72efbLD//BYsGb+9gqAktCnrnVK/oQAAggg0DSB9qnl961/dG/h/Fo9AcNj/bsyMDQfvGX/9eV/LW+JUeNw0zo7L4wAAgjILtA9XujrShX56N5p/4Z4owXW4PxqIGf+Vy/+078v+3uT9iOAAAKOC1x3Xj+EwddoYIbpeVfDPx+Iz/lXL/jb/FNoufsc7/i8IAIIICClwObz+nzVbqg/ujgwV7Zak8E7518tAIRmWtEH87dJ+T6l0QgggIBTAscnC++/ektezuuHaYa/U1sG5lat1rHgzvztIkDRjG841f95HQQQQEAqgY3P63NL3lDP9LcWAf0Bn/lXVwAUVf+oVG9YGosAAgjsR+DobPmOrqni5/i8fvgu5tsa9Nv9vW89/IM987cLAKHlr8Ti2Zv2817guQgggEDoBez78HdNFcZjsyvPneRiPqlm+5uLgN7ZcmAv9qvO+qs/Fc1YDv0blwYigAACjQps3Id/YVXa0NscgDL/uXd2JTThbxcBkUT2fY2+L3geAgggEEqB9inz7V3TpfJQZpWb9LDasV74xWbKVjTgF/xVZ/5Xf5ovtVjWgVC+gWkUAgggUI8AN+mR83x+LSsasZlwzfztAkCJ62freX/wWAQQQCBUAtddzMdMl1Mc2/SBEyEMf7sAODSae3uo3sw0BgEEENhLwL6Yr31yWe2dKT03wk16CP1tQr+6KtCTLoXqnH/1FIDQzBf3ep/wewQQQCA0Ah3jSx+NpUtPnczwjXvVgOPnzqc9etLhW/avFgCKqv9LaN7YNAQBBBDYTqB6Z77hTIWL+XaZ6VIIXF8IdId05r9RAIzqb9ru/cK/IYAAAoEWaJ9Yvrc7VcgPcGc+lvcbKHq6psO57F8Nf6EaPwn0G5ydRwABBDYLdIwvdXSlCmfsO/ONnGaJnxn99TP6Wj26pouhPOdfDX/7p6Iamc3vHf6MAAIIBE7A/prdzsnlub7ZlRdqHeB5XGPBKINbZyr84S+SeSuqLbYH7s3ODiOAAAItm79ml5k+S/wNLPFvLWbsFaOOVCH0M3979i9U4ylGEQQQQCBQAhu34+UKfkLfgdCvFgF2+LdLMPOvngJQVCMeqDc+O4sAAnIKdEyW33r1drxcwV8NLH46ewqjfUqOmf/VAsC0og88clDO0YRWI4CA7wXunsjFulLFc1zB72zQUTi80vP4pEzhby//m9/x/QDADiKAgFwC3I73leFEYDfPZGShYrVJFv72CkAkrv+VXCMLrUUAAV8KcDve5gUcxcPOtiOnz0sZ/tFkfq31/nO3+HIwYKcQQEACAct61fHJwsd7Z1Z+fHKBz+oT1DsHdTNs7Av+jkk487dn/4qqr0owwtBEBBDwm4B9BX/PdPExbsfrbuA1I0SD+pp2wXn35LIUH/WrXvG/+aei6h/y27jA/iCAQEgF2qbz77Cv4B/kHvx8bM/Bj+01UoDY4X9sQq4L/jaHf1TLX2nJZG4I6VBDsxBAwA8C3IOfGX4jAd3M56zP/MflnfnbhYBQjawfxgf2AQEEQiZw9WN7hTMDs+VLzRzIeW2Ki3r7wPBCxTo6IXf42wWAopm/E7Jhh+YggIBXAtHZ5YNdU8XP2V+8U++gzOMJcjf6wHCmYh0dX5L2nP/GKQDNuOTVOMF2EUAgJALVL97pnSk9d9Ljc7puBAjbCG6hMpxZtY4Q/uvFj5LQHwrJEEQzEEDATQH7s/r2x/Zi6eIzfMVucANRpmJmaJ7w35j92zf/Gc39uptjBttCAIEgC2x8217pKXsZVabwoK3BLnIGMxXrMDP/jdMeQjOeD/JQxL4jgIBLAtXP6g/xsT2KngCe4hnKrFqHxzjnv3n2ryRyn3Vp+GAzCCAQNIH2seV38m17wZ71smpx3hqct8M/vzHz3RyCUv9ZzcWCNiaxvwgg0ESBton8b3WnCnm+bY/gD0PxQPhvX/gIzXy6icMIL40AAkER4LP6hH0Ywn5rG/rnV61WZv7brnwoCX0qKOMT+4kAAg4L9IwV2rpShTN8Vp/w3xqcYfj7AOG/bfCvn/LQ8pYYNQ47PKTwcggg4GeBzZ/Vt7/zPAwDPW2ggNnaB/pny1Zrkgv+drq+Qaj69/08TrFvCCDgkID9Wf32yWXVvkHPyAJhsTUs+Hu4+kTfevhvf957p0CU7d+FlrvPoeGFl0EAAd8JbPqs/kk+q89KRwA/ttdIYWaHv2xhXm97hWZa0Qfzt/luzGKHEEBgfwLHJ5f+/ES6+ENCP1yz2kbCULbn9M6usOyf3HvlQ1GNb+5vlOHZCCDgGwFu0EPYyxb2W9sbm1lh5l9D+NurBYqqf9Q3gxc7ggAC9Qu0Teff8fJn9a9sHQz5OwWBTH3gBOFfc/EjtPyVWDx7U/0jDs9AAAFPBdonlu/lBj2Eu0zhvldbY2lm/vVcA6Co+pKngxgbRwCB2gW6xwt99mf1B2bLl/YaDPk9xYFMfaCH8K955l8tEiKJ7PtqH314JAIIuC7QMb7UsXGDHj62xxX8klzBX0/xQvjvfbFfNfSv/TRfarGsA64PaGwQAQR2Fzg6W76jc3J5rm925YV6BkIey6xftj7QPV2qe+Z7LQQbCc5wPEeJ62d3H4X4LQIIuCZw/V35CDLZgoz21t/nO1NFwr/Gq/23Fj2HRnNvd21wY0MIIPBKAfuufMcnCx+PpYvPjJzmVryEYP0hKKtZJzP/hosfoeVffOVoxL8ggEDzBbgrH+fxOY+/rz7Qwcy/4fC3VwKUeO6LzR/o2AICCGwIdIwvfTSWLj01zK149zX4yzrjpd3nLXuVjPDf/zUIyqj+po2BiT8ggEBzBDbuyrdQWWMAZ3mbPrCPPrBw3uqYKuxr5rv1PLiMfxdJ80JzRjteFQEEWtqnlt/XM118bDBD6BN4+wg8ThNct1J0fIoL/hwpWFRjnmEaAQQcFOiYLL+Vu/IRdhQ8zvcB+yurjzPzd2TlQ9ifGNAW2x0c+ngpBOQUaJtceguh7/yAT4hiWu0DIwsVq21y2ZHwc2T23OBH7vyybaEZT8o5WtNqBBwQuHsiF+OufARUNaD42by+MHL6vNU2yTl/J4sHkciNOjAM8hIIyCPQM1Zo654qPNQ/W754D7five68LAHYvACU2fbkQsW6m5m/sysfWt46lsq+UZ6Rm5Yi0KDA9Xfl4wY9MocRbXe3yLHD/9gEy/5Ozvzt1xKq+Z0Gh0OehkD4BXrG9DfY99/vnSk9Z194xMCPAX3A3T6wPvOfWHJ25hvw8/ZOFQKRuP5X4R/FaSECdQhcuxVv6Sl78GHAd3fAxxvvah+wb5B1NzP/ZhU/a633n7uljqGRhyIQUoFNt+IdXlgl9Pm8OX3A4z5gh//RcZb9nZrtb30dRTXKIR3NaRYCtQls3JWPG/QQeB4HXnXWy8/z1nBm1ToyzrL/1tB28u+Kqn+otlGSRyEQIoFrob/KrXgJPQofn/UBe+ZP+O//3v67Fgta/kpLJnNDiIZ1moLAzgLtU+bbX75BzxVmWJxjpg/4sw8MZSrW4TFm/ruGtwMXMArVyO48WvIbBEIg0D6xfC935fPnQE8Ac1y29oGheWb+zQ7+6usrmvk7IRjiaQIC1wtU78o3MFu+tHWA4e+EDn3An31gcH6Vmb8DM/tqwO/6UzMuXT9q8jcEAizQMb7UsXErXp+dzyRw/Bk4HBf/HJer4d/kc95uhWsAtqMk9IcCPNyz6wi0tBydLd9h36Cnb3blBQZz/wzmHAuORT19YGCubLUmOee/64zd4aIiMpr7dTIEgcAJcFc+wqWecOGx/u4vA3OrVusYM383w19oxvOBG/jZYXkFrt2Vr/gMd+Xz94BO4HJ8au0D/cz8m3V3v11fV0nkPitvmtDyYAhsvitfhlvx1jqo8jgCOAh9oG89/Jn5uznz39iWmosFIwTYS+kE7Bv0nEiXHrdvBBKEgYx9JHDpA/X1gf7ZMsv+Dp/T3wj3PV5XqMbT0oUKDfa3wLW78lW4Kx+fYKDwC3Ef6J1d2XV5utYg43GNrZ4oanbS32nA3kkh0Da19Hs904VvDs5zK15mkPXNIPEKpldshqv9PS1ctLx16JMPK1IEDI30n0Db5NJbuCtfMAdvQpfjtp8+EJth5u9p+CfzllD1J/yXCuxRqAXaEkb3xg16FhhE9zOI8lz6TxD7wAnC3xenPYS6+PehDhsa5w8BbtBDUAUxqNhn5/ttT7rki/Dzevbt9fZFMr92Rzz7en8kBHsROgFu0OP84EkgYRrkPtCTZtnf6+Cvbl+o+qOhCx0a5LHAps/qc4MewirIYcW+O9t/u5n5+2rlQxnNfsTjtGDzYRHgs/rODpaED55h6gNd0yz7V2fefvgptPyVyKkzN4Ylf2iHBwLHJwvv75kuPjaU4bP6YRqsaQvFh5N9oGu66KuZrx8C2Ot9UFR9yYPIYJNBF2ibyP8WH9sjIJwMCF4rvP2pM0X4ex32220/ksi+L+hZxP67JNA9XujrShXPDcytXmawDu9gzbHl2DrVB0ZOV6yOVIGZ/x634d0unJv/b+ZLLZZ1wKX4YDNBFOgZK7RtfFY/xLchdWrA43UIT/rA1T5gh387M3/fFj9KXD8bxExin5ss0D7zzds7J5fnemdKz40s8MU7DOiEOn2g/j7QPsXMv/mz+Mbu+2/v16HR3NubHCW8fFAE7sycfc3xycLHY+niM3blzoBX/4CHGWb0gat94Pgk4e/n8Bda/sWgZBP72SyBTZ/V5yt2CS/Ciz6w3z5grxi2Ef6+XfavFiVKPPfFZsUKr+tzAb5il4F+vwM9z6cPbe0DI6fPE/6+vNjvlacJlFH9TT6PKXbPSYG26fw7uqZL5UE+q8/pDS7mpA843AdGFs5bx5j5+37mb68AiKR5wcls4bV8KsBX7DJL2zpL4+/0Caf7gH2r77snlwMRftUlcKl/qsa8TyOL3dqvgH0Ff0dq+YsDs+VLTr/ReT3Cgz5AH9jcB9bDf4LwD0pBIZJ5q3VMb9tvzvB8nwl0P2hE7DvzcTEfA/TmAZo/0x+a1QfWw3+c8A9K+Nv7KTTjSZ9FF7uzL4FT1g32jXoIfgb6Zg30vC59a2sfGF6oWEeZ+QfutIdI5Eb3lTc82T8C9pfwDM6Vr2x9c/J3Bmz6AH2gWX3AnmwcGV8KXPgFaabelH3V8taxVPaN/kkw9qRhge500bA/dtOsNzmviy19gD6wtQ9cDX+W/ZsS0E3+CKFQze80HDg80R8C9kV+vTOln2x9Y/J3Bmv6AH2gmX1gaH6VmX+TQ7qZhUUkof+lP1KMvWhIwP42voH5VZb8Wflg5Yc+4GofWA//MZb9mxnQzX1tc631/nO3NBQ8PMl7gbax4i8Pzq+uNbPC57WZQdIH6ANb+8DgfMU6TPgH+poHRTXK3qcYe9CQgP2VvIPzFWb+zPpcnfVtDQL+Ll9xMDi/ah0ee+WtZJs7W2V7TvuKeO6PGgofnuStQM+Y/oaB+dWXGHzlG3w55hxzL/vAwHr4s+zvdBi7/XoiaV5uOWW92tskY+sNCcRmSs94OQiwbUKIPiBfH+ifX7VamfkHetm/WmgoqrHYUPjwJG8F7Bv8MPjKN/hyzDnmXvaB/jk7/Jn5VwM06D8Vzfwdb5OMrdctYH+Rj32rTS8HArZNENEH5OoD/XNlqzVJ+Ac99Df2XzMu1R0+PMF7gf7Z8kUGX7kGX443x9vLPtA3Ww7FkvdG+AX4M/tOtUFJ6A95n2bsQV0CnanigpcDAdsmiOgDcvWB3tkVwj+EBcPBuPnmusKHB3sr0PbAmZsHMxU+789H/jj9Qx9wpQ/Y4c+yf/g+eig046fephlbr1uga6rwFWZfcs2+ON4cb6/6QGyGmb9Ty+1+ex0lkfts3QHEE7wV4IY/hIFXYcB25ep7Jwj/cJ/2UHMxb9OMrdcl0DlZvI9BWK5BmOPN8faiDxD+4Vvy37wCITTz6brChwd7L9A7W37Wi8GAbRJC9AF5+kBPmmX/zWEZxj8ranbS+0RjD2oWsG/5O3Kaz/0TRPIEEcfa/WPdnS6Fe9k7hFfy112gaHnr0CcfVmoOHx7ovUD75LLKgOj+gIg55rL0ge5pwr/uMA1gQSFU/QnvE409qEugZ7r4A1kGItpJ6NIH3O0DXdNFZv4BDPNGChah5e6rK3x4sPcCg/OVywyK7g6KeOMtQx/oZOYvTfEjkvm1O+LZ13ufaOxBzQL2zX84/08YyRBGtNHdft6RYubfyCw6qM8Rqv5ozcHDA/0hcHyy8H4GRncHRrzxDnUfWDhvdUwVpJn5BjWwnd5vRdU/6o9UYy9qFuiYKqRDPRhxS1dXbulKH6KoWe8DhL+UhY/Q8lcip87cWHPw8EB/CHSmCosM3gze9AH6wH77wMjCees4M38pCwBF1Zf8kWjsRV0CJ6YL39jvG5/nEx70Abn7AOEf7rv77XW6IBLPvbeu4OHB/hDoSRe/y+At9+DN8ef476cPjCxUrLbJZSlnvnsFoxS/18yXWizrgD8Sjb2oS4B7ADD472fw57ly9x975t82QfhLEfQ73MtAietn6wodHuwfAVYA5B7ACXCOf6N94ORCxTpG+Eu/8hHRjLf5J9HYk7oEulPFRxsdAHge4UEfkLMPEP5yn/PfWPHQzJ/VFTg82F8CfApAzgGc4Oa4N9oH7PC/m5m/9DN/uwhQ4rkv+ivR2Ju6BLgPAEHQaBDwPPn6znCG8N+Y/e5wTlym39+VzI7UFTg82F8CbePmBxjI5RvIOeYc83r7gB3+R8e54E+mgN+trSJpXvBXmrE3dQvE4tnX8l0AhEG9YcDj5eozw5lV68j4EsvezPo3+oASz83VHTg8wX8Cg/OrfBsgtwzmlsH0gW37gD3zJ/y56G/zaoBI5q3WMb3Nf2nGHtUtEEuXfsCMTq4ZHceb411LHxiar1iHmflvzHo3h6DMfxaq8VTdQcMT/CnQPrms1jIY8BhCgz4gTx+ww5+ZPzP/7QodkciN+jPN2Ku6BdoyxVu5DkCegZ0Q51jv1QcG51etw2OE33bhJ/2/aXnrWCr7xrqDhif4V6B3ZuXCXoMCvyc46APh7wOEP4XPbkWOUI1v+zfJ2LOGBDoni/cxuId/cOcYc4x36wMDc2WrNcnV/rsFoOy/iyT0v2woZHiSjwUs61WDmfLaboMDvyM86APh7QP96+HP7Ff2gN+9/eZa6/3nbvFxkrFrjQp0The/xAAf3gGeY8ux3akPXA1/Zv67hx/FkaLqK43mC8/zuUDbA2duHsqssgrA58G3/Tz4TuHBvwe7sOifLVutXPDHR/1quMmRouof8nmMsXv7EeicXJ5jQA/2gM7x4/jV2gcIf2b1ta56iKR5uSWTuWE/+cJzAyDQP1u+WOsAwuMIG/pAMPtA72zZijLzZ+Zfw8zfLhKEamQDEF/s4n4F2iaX3mJ/5ScDezAHdo4bx22vPhCbIfxrnfnyuKsbQQreAAAgAElEQVSrJMpo7t37zRaeHxCB7qnCQ3sNIvyeoKEPBK8PnJhZYdZb46yX8K+eIjEvBiS62E2nBGLp4jMM8MEb4DlmHLOd+gDhXw00ftZT3CiqfsapXOF1AiLQM6a/YWCObwrcaTDl3wnaIPWBnjQz/3pCj8deK5IOxs03ByS22E0nBXrGCm0D86tXgjTQsa8EM33g+j5A+F8LM4K9Pguhmc87mSm8VsAEjk3qvzo4z/0BCJXrQwWPYHh0TZc45885/4b7gJLIfTZgkcXuOi3QljC6B+Y5HUDoBSP0OE5XjxPhX99sl9WBbbzUXMzpPOH1AijQMbYkemdXfsrgSgjSB/zfBzqniw3P+gjCbYJQwlUEoRpPBzCq2OWmCVjWq3qmi0UCwP8BwDGS9xh1pAh/ipj9FzGKmp1sWpbwwsEVaE8X/3BwrszFgXxvADeM8lEfGDldsTpSBWb+Es7WHS94tLx1MJ6NBjel2POmCsTi2dd2p4sGdw2Ud6bJKoOPjv3Ceat9ipm/40EoaTEhVP2JpgYILx4OAfsCwZ7p0rdPLvhoMPTRrIyQpF+40QeOE/6sfDhYrAh18e/DkVC0whUB+yLB7lRJH5jjvgFuDPhsg8LC7gMjp89bx6dY9mfmv/9z/lVDkcyv3amdvdWV4GAj4RM4PlX4o76Z8k8IKUKKPtC8PjCyULHaJgn/anDx05kiQNGMb4QvlWiR6wInppff3TdbvkAINC8EsJXT1p75E/7OBB6Fw/WOymj2I66HBRsMr0DXRPG/UQjIGVQUKM4fd/vC22MTy5zzdvCcN0XA1SJAaPkrkVNnbgxvGtEyzwQ608v/o3+OmwkRis6HoiymdvjfTfhT/DSp+FFUPe9ZQLBhOQS6pgt/2j+38qIsgzbtJPCd6ANXZ/6c82e2fv2SvZMekXjuvXKkEK30XKBjovSR/vkyhQAfW+SGQnv0gfWZ/zjL/k6GHa+1pZDQzJdaLOuA58HADsgl0JUqfHxgrnzJiVkSr8FsO2x9YHihYh1l2Z9l/yYt+1cLIZHQvy5X8tBaXwl0Ti7fN8i3DjIb3mM2HLaA3609w5mKdXR8ifBrcvhVQ1DmnxHNeJuvAoGdkVDAsn6uc3r5waH5yuXdBkZ+x0w/7H1gKFOxjhD+FD9uFD+a+TMJ04Ym+1bglHWga2p5eihT4UuHmBFLtyoyNL9K+LsRfGxjvcCKqLl/9m0WsGMSC2wUAqtrYZ/x0T5WNew+MJipWIeZ+TPzd7E4uSuZHZE4ZWi63wVav3D+P3RPFj47nKEQoFAIb6EwlFm1Do9xzl/mc/Fut11oxgW/j//sHwLrAnd+4ruv6Z4ufenkQoUVAU4NhOrUwOC8Hf5bPprl4izQ7eBhe/441ko8N0e8IBAogTviT9xkFwL2VdLMiMM7I5bl2BL+/ghD2YoSkcxbrWN6W6AGf3YWgapAbGb19T0zpa8PZ1YpBFgRCGQf6J9ftVqZ+XPO34PVHqHqT1bHUn4iEFiBe8b0N/Skiw/bd0yTZdZIO4O/8jFA+BP8HgR/daVDqNkHAzvos+MIbBUY+Ow3b+9OF3UKgeCHY9gLnP65stWa5IK/ahjx0/3TIIq6fPvWMZS/IxB4gR5NP3QivZKnEKAQ8GMh0bce/u4P+IQs5tU+IFT924Ef6GkAArsJ9KbKR2MzpdURTg1wasQn10j0zq6w7O3hsnc1AGX/qai5v9ht7OR3CIRGoGe60BZLr3xj5DTXCPhxRizLPvXOlq0oF/xRAHleAJlrrfefuyU0AzwNQaAWgVhmqeNqIcDSuCyh65d2xpj5E/yeB//VUyCKqpdqGS95DAKhFOgYW/rF2MzK90YWKAT8EpBh3o8TMyz7y77k7qf2i/jiB0M5sNMoBOoRaE+t/MdYuvjDeygEuEagSdcIxNKEv5/CT/Z9EUnzcksmc0M94ySPRSDUAh2TS79qFwJcI8CKiJMrET2EP8v+Pln2rxY+imoshnowp3EINCrQNVH8z30zpaedDAFeS86igvDnI3fV0PXTT2U09+5Gx0eeh4AUArHplXf1zZYvEN5yhvd+j3v3dImZr89mvn4KYc/2RTMuSTGA00gEnBDonC78VwoBioB6CoKu6SLhT/j7sg8oqn7GiXGR10BAKoGO1NJ/759b+Wk9QcBj5SscOpn5+zL4PJtx+6wQOhg33yzVwE1jEXBSoHu69Mf9cysvEu7yhftux9y+eLQjxcyfoPXvdQ9CM593cizktRCQVqBzauXD/fNlCoEmfXRut7D12+/s8G+fIvwJf/+Gv31sFNX4v9IO2DQcgWYIdKVLfz4wX77ot1Bif9xboTg+VWDZ22dL3RQj2xQjai7WjDGQ10RAeoGuVOETg/Orlwhe94LXD9bHmflT/ASg+BGa+WPpB2kAEGiqgGX9XGdq+dND86uX/RBO7EPzihH7FtLM/LeZZQYgDGVcHVDi+kRTxz5eHAEEXhY4ZR3oShW0ofnKFUK4eSHsla391dJtk8vMfAn7YPQBLW8djGejjM8IIOCmgF0ITC1PD2UoBLwKa6e3O3L6vNU2yTl/GWfRQW2zohqPuznssS0EENgkEItnf75rujQ3lKmsOR1IvJ57KwwnFyrWsQlm/kENQln3W8SNT2wajvgjAgh4IRA5860bu1PFzw8vUAgErXAh/DnfH8QCQiTza3dqZ2/1YrxjmwggsI3AHfEnbuqeLn1peOE8KwIBuI+AHf53M/MPxvlurku47jgJVX90myGIf0IAAa8FWqd/fEtsunRmOLNqBW1GLMv+DmcI/yDOfNnnqys2ipr7M6/HObaPAAK7CNwzpr+hJ1182J5pyhKsQWinHf5HxznnT5gG8/SH0PJXIqfO3LjL0MOvEEDALwLDn3n0tu50UacQcO/Cvp0KEXtV5sj40nXLqQRhMINQ1uOmaIbpl7GN/UAAgRoF+maXD55Ir+Tte8zvFFD8e/OKBHvmT/gT9kEvHJSE8Qc1Djk8DAEE/CbQNblyJDZTWrVvPEPgNy/wN9sOZSrW4TFm/kEPP+n3XzNfarGsA34b09gfBBCoU+DEVOVYLL3yDVYEmlsEDM0z85c+OEPyKQKh6l+rc5jh4Qgg4GeBvnSlO5Zeecy+G93mWSt/3r/H4PwqM/+QhB9FTN6KaMbb/DyWsW8IINCgQP9subd3pvSdexb2H3wUD+etq+HPOW+CMxx9QKjGCw0OLTwNAQSCItCdWv6PvenSExQCjRdCA3NlqzXJOX/CPxzhbx/HSML4QlDGMPYTAQT2KdA5VfzlWLr4Q64RqK8QGJhbtVrHwjPwE+IcS7sP3JXMjuxzSOHpCCAQNIETM4Xf7J1ZeYpl/b0LgX5m/tzjIITXPAjNuBC0cYv9RQABBwW6p5be1TdXfoZCYPtCoG89/JktsmIQvj6gxHNzDg4lvBQCCARVoCdV+N2+2fIFCoFrhUD/bJll/xDOfClm8pZI5q3WMb0tqOMV+40AAk0Q6Jpefl//XPk52QuB3tkVK8o5f5b+Q1oACVV/sgnDBy+JAAJhEOhOlf7nwFz5BRkLgdhMmfAPafAx+796KkOo2QfDME7RBgQQaKJA12ThT/vnyy/KUgjEZlaY9RL+oe8Dirp8exOHDV4aAQTCJNCZWj41OF++GOZC4AThH/rgYwUgbwlV/3aYxibaggACLgl0TS3/3eD86qWwFQI96RLhx8xfij6gqLm/cGm4YDMIIBA6Acv6ua508ZND85XLYSgEetIs+zMzDt/H/LY/puZa6/3nbgndmESDEEDAZYFT1oGuVEEbzgS3EOhm5i/FrHf7MJQl9K+1U1H1ksujBJtDAIFQC7xcCAxlKleCtCLQNc2yP8F4LRxlsBDxxQ+GeiyicQgg4I1ALJ79+a7p0txQZnXN74VA13SRmS/n/KXqAyJpXm7JZG7wZnRgqwggIIVAW6ZwQ0+69A/DCxVfFgKdKcJfhtkubbx+dUNRjUekGIBoJAIIeC8QOfOtG7tTxc8PL5z3RSFgfwNiR6og1ayPELw+BGX2EPHsu7wfFdgDBBCQSiAW/8ZrY9OlM16uCNjh3z7FzF/mAJS67Zp5UapBh8YigIC/BLrHv/W6E6niV08uVCy3rxFon2LmL3UASn69g0jkvuKv0YC9QQABKQWGP/PobT3p4sNuFQLHJwl/wl/uUwEH4+abpRxsaDQCCPhToG92+eCJ9Ep+pEkrAvbrthH+XPMg++xfM5735wjAXiGAgPQCw+nSod6ZlYKThcDI6fOEv+TBx6rH1VWPSCL3j9IPMgAggIC/BTpT5aOxmdLqfgsB+9TCsYllZr4UAPQBuw+ouZi/3/nsHQIIIPCyQF+60h1Lrzw2snC+7osF7fC/m/An+Ch+1vuAUI0fM7AggAACgRPony339s6UvnNPjYXA1Zk/F/yx9C33BX+bj39EzY0F7o3PDiOAAAJVgY4p/Rd706UndisEhjMV6+5xlv03D/78WfJCQMtbB+PZaPV9xE8EEEAgsAInUsVf751Zecq+qc/m+wgML1Ssoyz7s+zPsv91fUBRjccD+2ZnxxFAAIHtBLpTpXv7Z8s/sosAe+Z/dHzpuoGPma/kM18Kgavn/+PGJ7Z7//BvCCCAQOAFemcL7zicNPVo0qQAIPToA5v6gEjm1+7Uzt4a+Dc5DUAAAQR2E2hV84NKQjcpBJj5s/pztQ8IVX90t/cMv0MAAQRCJXAomf0le+AjBCgEZO8Dymj2I6F6c9MYBBBAoBYBkdArsgcA7Ze3CBJa/krk1Jkba3mv8BgEEEAgVALrKwGbzocShvKGoYzHXtEMM1RvaBqDAAII1COgqMY3ZRz8aTPFjpIw/qCe9wqPRQABBEIlcEhd/A3CkDCUrg9o5kstlnUgVG9mGoMAAgjUKyBU49vSBQCnPqT+OKBQ9a/V+z7h8QgggEDoBBQt95sUAKwCyNQHIprxttC9kWkQAggg0IiAfTtUmQKAtspb8AjVeKGR9wjPQQABBEIpEFVz7yQU5Q1FmY59JGF8IZRvYhqFAAIINCogVPMHMgUBbZWz4LkrmR1p9D3C8xBAAIFQCiijuXcTinKGoizHXajGs6F889IoBBBAYL8CQjWekiUMaKd8xU4kkZvd73uE5yOAAAKhFLBvjkIwyheMMhxzkcxbrWN6WyjfuDQKAQQQcEJAaObTMgQCbZSr0BGq8UMn3h+8BgIIIBBaARHP/RHhKFc4ynC8I6r+6dC+aWkYAggg4JSAfbGUDKFAG+UpdBR1+Xan3h+8DgIIIBBaAZHIfphwlCccw36shao/Fto3Kw1DAAEEnBYQSfNC2IOB9slR5Cij2Y85/f7g9RBAAIHQCkTiuVMEpBwBGe7jbK61ZQo3h/aNSsMQQACBZggIzXw+3OFAwIf9+CqqXmrGe4PXRAABBEItEInrfxX2gKB94S6CRHzxg6F+k9I4BBBAoCkClnUgqpk/IyTDHZJhPb4iaV5uyWRuaMp7gxdFAAEEwi4g1MW/D2tA0K5wFzaKajwS9vcn7UMAAQSaJ3DKerVgFcCiWAhesSDi2Xc1743BKyOAAAISCNh3USMAgxeAUh8zzbwowVuTJiKAAAJNFshkbohq5kWpAyVJARCk4y8Sua80+V3ByyOAAAJyCCgJXQtSALCvchcsB+Pmm+V4Z9JKBBBAoNkC66sAxiWCVe5gDcLxF5rxfLPfDrw+AgggIJWAohqpIAQA+yh3kRJJ5P5RqjcmjUUAAQSaLRCLZ2+KauZLBKzcAev746/mYs1+L/D6CCCAgHQCUdWY930AcMGetB9bFKrxY+nelDQYAQQQcEOg9f5ztwjNvEwRwCqAH/tARM2NufE+YBsIIICAlAL2OVY/Dv7sk+xFiWkpn9IPSfmmpNEIIICAGwKRceN1US1/hcCVPXD91X5FMx53o/+zDQQQQEBqAZEwPkcB4K8AlP54qPrfSf2mpPEIIICAGwLRB/O3CVYBpL3YzofFxtqd2tlb3ej7bAMBBBCQXkBJ6F/yYRAQyhJ+CkKo+nnp35AAIIAAAm4JHJk8+wvRpLlGEcCpAK/7gEhkP+xWv2c7CCCAAAItLS1KQn/I68Gf7ctdgNinoiKnztzIGxIBBBBAwEWB6AOPHIwm86wCSLjs7pfCS0nopotdnk0hgAACCFQFREL/ul/CgP2QbzVAiWffU+2L/EQAAQQQcFFAjBqHBasAXHzowSqI0MxLLZZ1wMXuzqYQQAABBDYLKKrxMLNv+WbfXh9zoepf29wP+TMCCCCAgMsCUW2x3eswYPvyFSARzXiby12dzSGAAAIIbBVQVN0ghOULYa+OuVCNF7b2Qf6OAAIIIOCBQCTxSHdUIwC9CkTZthtJGF/woJuzSQQQQACB7QQUzViWLYhorzdF313J7Mh2fZB/QwABBBDwQCASzw6wCuBNIMpUiAjVeNaD7s0mEUAAAQR2E1BUfUWmMKKt7hc8kURudrc+yO8QQAABBDwQiCYeGSYU3Q9FWcxFMm+1jultHnRtNokAAgggsJeA/e1ssgQS7XS32BGq8cO9+h+/RwABBBDwSOBQMvtL9kyNcMTA6T4QUfVPe9St2SwCCCCAQC0CQjO+5fTgz+tRUCjq8u219D8egwACCCDgkYCIG/cS2AS2k31AqPpjHnVnNosAAgggUI+AUPXvOhkAvJbcBYUymv1YPf2PxyKAAAIIeCQQGV18K6Etd2g7d/zNtbZM4WaPujKbRQABBBCoV0Co+hPOhQBhKqul0IxivX2PxyOAAAIIeCggRhd/W9bQot3OFWwRVf9DD7sxm0YAAQQQaERAqPqThKFzYSibpUial1tOWa9upO/xHAQQQAABDwVEQv992UKL9jpX8Ciq8bCH3ZdNI4AAAgjsRyCqGT8iFJ0LRZks7dNI++l7PBcBBBBAwEOBSDz3XplCi7Y6VOxo5kUPuy2bRgABBBBwQkBo5jMEo0PBKMmtloWa+7ITfY/XQAABBBDwUEBR9Q9RAFAA1NMH7lIXf83DLsumEUAAAQScEhCq8Ww9AcBj5S0YhGY871S/43UQQAABBDwWUNTcnxHq8oZ6Pcc+ksj9o8fdlc0jgAACCDgpYM/s6gkCHitpwaDmYk72O14LAQQQQMBjAftLXQh1SUO9xosXhWr82ONuyuYRQAABBJohwCoABcBuRWBEzY01o9/xmggggAACHgso8cW/2S0A+J3MBYJpKZ/SD3ncRdk8AggggEBTBCzrQFQzf0bQyxz027dd0YzHm9LneFEEEEAAAX8ICC13HwXA9iEotYuq/50/eih7gQACCCDQHIFT1quFZr4oddjVeFGcREZrd2pnb21Oh+NVEUAAAQR8IyASuVGJws2irbuveAhVP++bzsmOIIAAAgg0USCTuSGaNC8SjLsHoyw+IpH9cBN7Gy+NAAIIIOAnAfsjX7IEHO3cudARWv5K5NSZG/3UN9kXBBBAAIEmCsTi2ZuEZr5EOO4cjjLYKAndbGI346URQAABBPwooCRy0zKEHG3cuchR4tn3+LFvsk8IIIAAAk0UsFcBoqwCSHuRoNDMSy2WdaCJXYyXRgABBBDwq4CiGhlmyDvPkMNsoyRyX/Vrv2S/EEAAAQSaLBAZN14nkublMAcdbdu+wImMLr61yd2Ll0cAAQQQ8LOAksh9lpDcPiTD6iJU4wU/90n2DQEEEEDABYE74tnX2x8HC2vY0a5XFjdCNT7vQtdiEwgggAACfheIJIwvEJSvDMqwmtyVzI74vU+yfwgggAACLghEH8zfxiqAHAWA0IxnXehSbAIBBBBAICgCIq7/a1hnvLTrWnETSegzQemT7CcCCCCAgAsCRybP/kI0aa4RltfCMowWImEecaE7sQkEEEAAgSAJKKr+/8IYerTpalEjVOOHQeqP7CsCCCCAgEsCyqf0Q9FknlWAZDhXASKq/mmXuhKbQQABBBAImkA0of87M+ZwFgCKunx70Poj+4sAAggg4JKAGDUOizFWAcJWBAlVf8ylLsRmEEAAAQSCKqCoxmLYAlD29iij2Y8FtT+y3wgggAACLglEtcV22QMzXO0319oyhZtd6j5sBgEEEEAgyAJKQjfDFYLhPK9fyzESmlEMcl9k3xFAAAEEXBSIJB7pjiZNq5aA4TH+Li4iqv6HLnYdNoUAAgggEHQBkTAKhLu/w32v42N/3XPLKevVQe+L7D8CCCCAgIsCkXh2IKoFOwD3Csiw/15RjYdd7DJsCgEEEEAgLAKKqq+GPSTD3D4xuvjbYemLtAMBBBBAwEWBSEL/RRHSO+OFOfjX26aZF13sKmwKAQQQQCBsAkLVHw19WIawyBFq7sth64u0BwEEEEDARYG7RvVfoQAI3rUQd6mLv+ZiN2FTCCCAAAJhFLBvJUsREJwiQKjmc2Hsh7QJAQQQQMBlARE37qUACE4BEEnkPuNyF2FzCCCAAAJhFYiqxvcoAoJRBLQ+uNgT1n5IuxBAAAEEXBZQNOM/UQAEoADQjB+53DXYHAIIIIBA2AUUzfw+RYC/i4BIIpcMez+kfQgggAACLguIePZdFAB+LgBMS/mUfsjlbsHmEEAAAQRkEBCa8SRFgE+LANX4ngx9kDYigAACCHggoMSz76EA8GcBoCRyf+tBl2CTCCCAAAKyCAjV+DFFgO+KgLU7tbO3ytIHaScCCCCAgAcCkXjuvRQA/ioAREKveNAV2CQCCCCAgGwCQjOepQjwTxEQSeh/IlsfpL0IIIAAAh4IROK5P6YA8EcBILT8lcipMzd60A3YJAIIIICAjAJCMy5QBHhfBCgJ3ZSx/9FmBBBAAAGPBBRV/ygFgA8KgHj2PR51ATaLAAIIICCrgNDM5ykCvCsChGZearGsA7L2P9qNAAIIIOCRgKLm/oICwLsCQEnkvurRoWezCCCAAAJSC1jWAaEZP6UI8KYIiIwuvlXq/kfjEUAAAQS8E4iq+t9RALhfAAjVeMG7o86WEUAAAQQQWF8FMH9GEeBuESBU4/N0PgQQQAABBDwVUBL6JykA3C0A7kpmRzw96GwcAQQQQACBlkzmhqhmXqQIcKcIsO/ESK9DAAEEEEDAFwKKasQpANwpACIJfcYXB52dQAABBBBA4OVVgEsUAc0vAkTCPEKPQwABBBBAwDcCSlyfoABobgEgVPMHvjng7AgCCCCAAAK2QCyevSmqmi9RBDSvCFDixqfobQgggAACCPhOIJLIzVIANLEAUJdv991BZ4cQQAABBBBovf/cLSJpXqYIcL4IEJrxLXoYAggggAACvhWIqLl/oABwvgCIaPr/9u1BZ8cQQAABBBCIjBuvYxXA6QLAXGvLFG6mdyGAAAIIIOBrAaHm/olVAOeKAJHQi74+4OwcAggggAACtkD0wfxtQstfoQhwpghQRvUP0LMQQAABBBAIhIASz32RAmD/BYDQjMstp6xXB+Kgs5MIIIAAAggo6vLtIskqwH6LICVhnKM3IYAAAgggECgBkch9Zb8BKP3z1dw7A3XQ2VkEEEAAAQSiDzxyMJrMr0kf4skGTwVo5kV6EQIIIIAAAoEUUBK5r1IANFYACDX35UAedHYaAQQQQACBg/FsVLAKYDVSBN2lLv4aPQgBBBBAAIHACiiq/u+NBKDMzxGq+VxgDzg7jgACCCCAgC1gf4e9GONagHoKmkgi9xl6DwIIIIAAAoEXEKqRrScAZX9s64OLPYE/6DQAAQQQQAABRc11RrXGLoaTrhjQjB/RYxBAAAEEEAiNgKLqeenCvIGPAEYSuWRoDjoNQQABBBBAQDxg9EWTZkNXxMtTOJiW8in9EL0FAQQQQACBUAkIzSjKE+YNnPJQje+F6oDTGAQQQAABBGyBVjU/yLUAOxcGSiL3t/QUBBBAAAEEQikgVGOVVYBti4C1O7Wzt4byoNMoBBBAAAEEDiWzvyQauDgu7EWDSOgVegcCCCCAAAKhFlBU45thD/R62xdJ6H8S6oNO4xBAAAEEELDvc19vQIb58ULLX4mcOnMjPQMBBBBAAIHQCwjV+HaYQ72etimqboT+gNNABBBAAAEEbAFFy/1mPSEZ5seKhP779AoEEEAAAQSkEVA04/EwB3tNbdPMSy2WdUCag05DEUAAAQQQiKq5d9YUkiH+1ICS0P+NnoAAAggggIB0Aopm/EDmIiAyuvhW6Q46DUYAAQQQQEDEs++StQAQqvECPQABBBBAAAFpBYRqPCVjESASxuekPeg0HAEEEEAAgUg8914ZCwD7uxE4+ggggAACCEgtIFTjaamKAM34kdQHnMYjgAACCCBgC4j44gdlKgBE3PgERx4BBBBAAAEE7CJAM56VoQgQmnG5LVO4mYOOAAIIIIAAAhKtAijx3BwHHAEEEEAAAQQ2CQjNeDLMqwBCM1+KjBuv29Rk/ogAAggggAACIm7cG9XyVliLACW++DccZQQQQAABBBDYRsC+PW4YCwCh6k9u01z+CQEEEEAAAQRsgVg8e5PQjAshKwLWxANGH0cYAQQQQAABBHYRiKq5mNDyV8JSBAhN/+tdmsuvEEAAAQQQQKAqYN8bQITgmwCVhP5QtU38RAABBBBAAIEaBBRVXwjyKoBQ9cdaLOtADU3lIQgggAACCCCwWSCS0GeCWATYX3VsX8+wuS38GQEEEEAAAQTqEIgkcrOBKgJU43ut95+7pY4m8lAEEEAAAQQQ2E4goubGglAEKJqx3JLJ3LBdG/g3BBBAAAEEEGhA4FAi+/6oZvr00wGmpajZyQaaxVMQQAABBBBAYC+B1jG9Taj69321GqCZPxOji7+9177zewQQQAABBBDYp4ASNz4lkuZlrwsBkch9hYv99nkweToCCCCAAAL1CBxLZd/48q2D19wsBOz7EwhVP8/d/eo5WjwWAQQQQAABhwUOxrNRoea+3OwVAZHMrymaYSqj+pscbgIvhwACCCCAAAKNCkROnblRGc1+TCT0b2xANagAAAEpSURBVEWTeYdWBUxLqMZTIpEbjT6Yv63RfeN5CCCAAAIIIOCCgH1ePpLIvk/E9X9VVONxoZmXajlNYK8i2IGvJHJfjai5/3VHPPt6F3aXTSCAAAIIIIBAswTWi4J4dkAZzb3b/q6BSDz3x4qqf8j++12j+q9w855myfO6CCCAAAIIIIAAAggggAACCCCAAAIIIIAAAggggAACCCCAAAIIIIAAAggggAACCCCAAAIIIIAAAggggAACCCCAAAIIIIAAAggggAACCCCAAAIIIIAAAggggAACCCCAAAIIIIAAAggggAACCCCAAAIIIIAAAggggAACCCCAAAIIIIAAAggggAACCCCAAAIIIIAAAggggAACCCCAAAIIIIAAAggggAACCCCAAAJ7Cvx/0T5YGVgsWD4AAAAASUVORK5CYII=;" vertex="1" parent="1">
          <mxGeometry x="634" y="1454.88" width="15" height="15" as="geometry" />
        </mxCell>
        <mxCell id="fqA9Xs131egoBfww3Tdx-98" value="Экран 4" style="text;html=1;align=center;verticalAlign=middle;whiteSpace=wrap;rounded=0;" vertex="1" parent="1">
          <mxGeometry x="529" y="1234" width="60" height="30" as="geometry" />
        </mxCell>
        <mxCell id="fqA9Xs131egoBfww3Tdx-99" value="" style="rounded=1;whiteSpace=wrap;html=1;fillColor=#d5e8d4;strokeColor=#82b366;" vertex="1" parent="1">
          <mxGeometry x="473" y="1301" width="120" height="144" as="geometry" />
        </mxCell>
        <mxCell id="fqA9Xs131egoBfww3Tdx-100" value="Сообщение с расписанием и рекомендациями." style="text;html=1;align=center;verticalAlign=middle;whiteSpace=wrap;rounded=0;" vertex="1" parent="1">
          <mxGeometry x="481" y="1317" width="104" height="112" as="geometry" />
        </mxCell>
        <mxCell id="fqA9Xs131egoBfww3Tdx-101" value="" style="rounded=1;whiteSpace=wrap;html=1;fillColor=#d5e8d4;gradientColor=#97d077;strokeColor=#82b366;" vertex="1" parent="1">
          <mxGeometry x="523" y="1265" width="120" height="28" as="geometry" />
        </mxCell>
        <mxCell id="fqA9Xs131egoBfww3Tdx-102" value="Дополнения пользователя" style="text;html=1;align=center;verticalAlign=middle;whiteSpace=wrap;rounded=0;" vertex="1" parent="1">
          <mxGeometry x="555" y="1264" width="60" height="30" as="geometry" />
        </mxCell>
        <mxCell id="fqA9Xs131egoBfww3Tdx-105" value="&lt;span style=&quot;color: rgb(0, 0, 0); font-family: Helvetica; font-size: 12px; font-style: normal; font-variant-ligatures: normal; font-variant-caps: normal; font-weight: 400; letter-spacing: normal; orphans: 2; text-align: center; text-indent: 0px; text-transform: none; widows: 2; word-spacing: 0px; -webkit-text-stroke-width: 0px; white-space: normal; text-decoration-thickness: initial; text-decoration-style: initial; text-decoration-color: initial; float: none; background-color: light-dark(#ffffff, var(--ge-dark-color, #121212)); display: inline !important;&quot;&gt;Пользователь&lt;/span&gt;&lt;div style=&quot;forced-color-adjust: none; color: rgb(0, 0, 0); font-family: Helvetica; font-size: 12px; font-style: normal; font-variant-ligatures: normal; font-variant-caps: normal; font-weight: 400; letter-spacing: normal; orphans: 2; text-align: center; text-indent: 0px; text-transform: none; widows: 2; word-spacing: 0px; -webkit-text-stroke-width: 0px; white-space: normal; text-decoration-thickness: initial; text-decoration-style: initial; text-decoration-color: initial;&quot;&gt;&lt;span style=&quot;background-color: light-dark(#ffffff, var(--ge-dark-color, #121212));&quot;&gt;ввел необходимые данные&lt;/span&gt;&lt;/div&gt;" style="text;whiteSpace=wrap;html=1;" vertex="1" parent="1">
          <mxGeometry x="455.5" y="1088" width="80" height="56" as="geometry" />
        </mxCell>
        <mxCell id="fqA9Xs131egoBfww3Tdx-106" value="&lt;span style=&quot;color: rgb(0, 0, 0); font-family: Helvetica; font-size: 12px; font-style: normal; font-variant-ligatures: normal; font-variant-caps: normal; font-weight: 400; letter-spacing: normal; orphans: 2; text-indent: 0px; text-transform: none; widows: 2; word-spacing: 0px; -webkit-text-stroke-width: 0px; white-space: normal; text-decoration-thickness: initial; text-decoration-style: initial; text-decoration-color: initial; float: none; background-color: light-dark(#ffffff, var(--ge-dark-color, #121212)); display: inline !important;&quot;&gt;Пользователь&lt;/span&gt;&lt;div style=&quot;forced-color-adjust: none; color: rgb(0, 0, 0); font-family: Helvetica; font-size: 12px; font-style: normal; font-variant-ligatures: normal; font-variant-caps: normal; font-weight: 400; letter-spacing: normal; orphans: 2; text-indent: 0px; text-transform: none; widows: 2; word-spacing: 0px; -webkit-text-stroke-width: 0px; white-space: normal; text-decoration-thickness: initial; text-decoration-style: initial; text-decoration-color: initial;&quot;&gt;&lt;span style=&quot;background-color: light-dark(#ffffff, var(--ge-dark-color, #121212));&quot;&gt;отредактировал цели&lt;/span&gt;&lt;/div&gt;" style="text;whiteSpace=wrap;html=1;align=center;" vertex="1" parent="1">
          <mxGeometry x="575" y="1088" width="99" height="56" as="geometry" />
        </mxCell>
        <mxCell id="fqA9Xs131egoBfww3Tdx-107" value="" style="shape=image;verticalLabelPosition=bottom;labelBackgroundColor=default;verticalAlign=top;aspect=fixed;imageAspect=0;image=data:image/png,iVBORw0KGgoAAAANSUhEUgAAAgAAAAIACAYAAAD0eNT6AAAAAXNSR0IArs4c6QAAFrRJREFUeAHt10FqZWUYRdEM0wHUfS0HIYgdc23Zl8JGbkEGUTgBsS+OQJxCUkg4bxBvr8Dj9te3Ced/evJHgAABAgQIECBAgAABAgQIECBAgAABAgQIECBAgAABAgQIECBAgAABAgQIECBAgAABAgQIECBAgAABAgQIECBAgAABAgQIECBAgAABAgQIECBAgAABAgQIECBAgAABAgQIECBAgAABAgQIECBAgAABAgQIECBAgAABAgQIECBAgAABAgQIECBAgAABAgQIECBAgAABAgQIECBAgAABAgQIECBAgAABAgQIECBAgAABAgQIECBAgAABAgQIECBAgAABAgQIECBAgAABAgQIECBAgAABAgQIECBAgAABAgQIECBAgAABAgQIECBAgAABAgQIECBAgAABAgQIECBAgAABAgQIECBAgAABAgQIECBAgAABAgQIECBAgAABAgQIECBAgAABAgQIECBAgAABAgQIECBAgAABAgQIECBAgAABAgQIECBAgAABAgQIECBAgAABAgQIECBAgAABAgQIECBAgAABAgQIECBAgAABAgQIECBAgAABAgQIECBAgAABAgQIECBAgAABAgQIECBAgAABAgQIECBAgAABAgQIECBAgAABAgQIECBAgAABAgQIECBAgAABAgQIECBAgAABAgQIECBAgAABAgQIECBAgAABAgQIECBAgAABAgQIECBAgAABAgQIECBAgAABAgQIECBAgAABAgQIECBAgAABAgQIECBAgAABAgQIECBAgAABAgQIECBAgAABAgQIECBAgAABAgQIECBAgAABAgQIECBAgAABAgQIECBAgAABAgQIECBAgAABAgQIECBAgAABAgQIECBAgAABAgQIECBAgAABAgQIECBAgAABAgQIECBAgAABAgQIECBAgAABAgQIECBAgAABAgQIECBAgAABAgQIECBAgAABAgQIECBAgAABAgQIECBAgAABAgQIECBAgAABAgQIECBAgAABAgQIECBAgAABAgQIECBAgAABAgQIECBAgAABAgQIECBAgAABAgQIECBAgAABAgQIECBAgAABAgQIECBAgAABAgQIECBAgAABAgQIECBAgAABAgQIECBAgAABAgQIECBAgAABAgQIECBAgAABAgQIECBAgAABAgQIECBAgAABAgQIECBAgAABAgQIECBAICNwe/7y/XFev/sx0IAGNKABDXw08Om8Pj/8EDjO6/U4r3c/BhrQgAY0oIF7A28GgHFgHGlAAxrQQK8BA8AavK9B/wB6/wDc3M010G3AADAADAANaEADGgg2YAAEj27xdxe/27u9BjSwBgwAA8Dy14AGNKCBYAMGQPDoW3++XgIa0IAGug0YAAaA5a8BDWhAA8EGDIDg0S3+7uJ3e7fXgAbWgAFgAFj+GtCABjQQbMAACB5968/XS0ADGtBAtwEDwACw/DWgAQ1oINiAARA8usXfXfxu7/Ya0MAaMAAMAMtfAxrQgAaCDRgAwaNv/fl6CWhAAxroNmAAGACWvwY0oAENBBswAIJHt/i7i9/t3V4DGlgDBoABYPlrQAMa0ECwAQMgePStP18vAQ1oQAPdBgwAA8Dy14AGNKCBYAMGQPDoFn938bu922tAA2vAADAALH8NaEADGgg2YAAEj7715+sloAENaKDbgAFgAFj+GtCABjQQbMAACB7d4u8ufrd3ew1oYA0YAAaA5a8BDWhAA8EGDIDg0bf+fL0ENKABDXQbMAAMAMtfAxrQgAaCDRgAwaNb/N3F7/ZurwENrAEDwACw/DWgAQ1oINiAARA8+tafr5eABjSggW4DBoABYPlrQAMa0ECwAQMgeHSLv7v43d7tNaCBNWAAGACWvwY0oAENBBswAIJH3/rz9RLQgAY00G3AADAALH8NaEADGgg2YAAEj27xdxe/27u9BjSwBgwAA8Dy14AGNKCBYAMGQPDoW3++XgIa0IAGug0YAAaA5a8BDWhAA8EGDIDg0S3+7uJ3e7fXgAbWgAFgAFj+GtCABjQQbMAACB5968/XS0ADGtBAtwEDwACw/DWgAQ1oINiAARA8usXfXfxu7/Ya0MAaMAAMAMtfAxrQgAaCDRgAwaNv/fl6CWhAAxroNmAAGACWvwY0oAENBBswAIJHt/i7i9/t3V4DGlgDBoABYPlrQAMa0ECwAQMgePStP18vAQ1oQAPdBgwAA8Dy14AGNKCBYAMGQPDoFn938bu922tAA2vAADAALH8NaEADGgg2YAAEj7715+sloAENaKDbgAFgAFj+GtCABjQQbMAACB7d4u8ufrd3ew1oYA0YAAaA5a8BDWhAA8EGDIDg0bf+fL0ENKABDXQbMAAMAMtfAxrQgAaCDRgAwaNb/N3F7/ZurwENrAEDwACw/DWgAQ1oINiAARA8+tafr5eABjSggW4DBoABYPlrQAMa0ECwAQMgeHSLv7v43d7tNaCBNWAAGACWvwY0oAENBBswAIJH3/rz9RLQgAY00G3g8QfA7fn64dP58ocfAw1oQAMa0MBHA8d5fX3yR4AAAQIECBAgQIAAAQIECBAgQIAAAQIECBAgQIAAAQIECBAgQIAAAQIECBAgQIAAAQIECBAgQIAAAQIECBAgQIAAAQIECBAgQIAAAQIECBAgQIAAAQIECBAgQIAAAQIECBAgQIAAAQIECBAgQIAAAQIECBAgQIAAAQIECBAgQIAAAQIECBAgQIAAAQIECBAgQIAAAQIECBAgQIAAAQIECBAgQIAAAQIECBAgQIAAAQIECBAgQIAAAQIECBAgQIAAAQIECBAgQIAAAQIECBAgQIAAAQIECBAgQIAAAQIECBAgQIAAAQIECBAgQIAAAQIECBAgQIAAAQIECBAgQIAAAQIECBAgQIAAAQIECBAgQIAAAQIECBAgQIAAAQIECBAgQIAAAQIECBAgQIAAAQIECBAgQIAAAQIECBAgQIAAAQIECBAgQIAAAQIECBAgQIAAAQIECBAgQIAAAQIECBAgQIAAAQIECBAgQIAAAQIECBAgQIAAAQIECBAgQIAAAQIECBAgQIAAAQIECBAgQIAAAQIECBAgQIAAAQIECBAgQIAAAQIECBAgQIAAAQIECBAgQIAAAQIECBAgQIAAAQIECBAgQIAAAQIECBAgQIAAAQIECBAgQIAAAQIECBAgQIAAAQIECBAgQIAAAQIECBAgQIAAAQIECBAgQIAAAQIECBAgQIAAAQIECBAgQIAAAQIECBAgQIAAAQIECBAgQIAAAQIECBAgQIAAAQIECBAgQIAAAQIECBAgQIAAAQIECBAgQIAAAQIECBAgQIAAAQIECBAgQIAAgbDA7Xz57Tiv//wYaEADGtCABu4N/Pvw0+A4r9fjvN79GGhAAxrQgAbuDbwZAMaBcaQBDWhAA70GDABr8L4G/QPo/QNwczfXQLcBA8AAMAA0oAENaCDYgAEQPLrF3138bu/2GtDAGjAADADLXwMa0IAGgg0YAMGjb/35egloQAMa6DZgABgAlr8GNKABDQQbMACCR7f4u4vf7d1eAxpYAwaAAWD5a0ADGtBAsAEDIHj0rT9fLwENaEAD3QYMAAPA8teABjSggWADBkDw6BZ/d/G7vdtrQANrwAAwACx/DWhAAxoINmAABI++9efrJaABDWig24ABYABY/hrQgAY0EGzAAAge3eLvLn63d3sNaGANGAAGgOWvAQ1oQAPBBgyA4NG3/ny9BDSgAQ10GzAADADLXwMa0IAGgg0YAMGjW/zdxe/2bq8BDawBA8AAsPw1oAENaCDYgAEQPPrWn6+XgAY0oIFuAwaAAWD5a0ADGtBAsAEDIHh0i7+7+N3e7TWggTVgABgAlr8GNKABDQQbMACCR9/68/US0IAGNNBtwAAwACx/DWhAAxoINmAABI9u8XcXv9u7vQY0sAYMAAPA8teABjSggWADBkDw6Ft/vl4CGtCABroNGAAGgOWvAQ1oQAPBBgyA4NEt/u7id3u314AG1oABYABY/hrQgAY0EGzAAAgefevP10tAAxrQQLcBA8AAsPw1oAENaCDYgAEQPLrF3138bu/2GtDAGjAADADLXwMa0IAGgg0YAMGjb/35egloQAMa6DZgABgAlr8GNKABDQQbMACCR7f4u4vf7d1eAxpYAwaAAWD5a0ADGtBAsAEDIHj0rT9fLwENaEAD3QYMAAPA8teABjSggWADBkDw6BZ/d/G7vdtrQANrwAAwACx/DWhAAxoINmAABI++9efrJaABDWig24ABYABY/hrQgAY0EGzAAAge3eLvLn63d3sNaGANGAAGgOWvAQ1oQAPBBgyA4NG3/ny9BDSgAQ10GzAADADLXwMa0IAGgg0YAMGjW/zdxe/2bq8BDawBA8AAsPw1oAENaCDYgAEQPPrWn6+XgAY0oIFuAwaAAWD5a0ADGtBAsAEDIHh0i7+7+N3e7TWggTVgABgAlr8GNKABDQQbMACCR9/68/US0IAGNNBtwAAwACx/DWhAAxoINmAABI9u8XcXv9u7vQY0sAYMAAPA8teABjSggWADBkDw6Ft/vl4CGtCABroNGAAGgOWvAQ1oQAPBBgyA4NEt/u7id3u314AG1oABYABY/hrQgAY0EGzAAAgefevP10tAAxrQQLeBxx8At/Pl5+O8/vJjoAENaEADGvho4HZefz75I0CAAAECBAgQIECAAAECBAgQIECAAAECBAgQIECAAAECBAgQIECAAAECBAgQIECAAAECBAgQIECAAAECBAgQIECAAAECBAgQIECAAAECBAgQIECAAAECBAgQIECAAAECBAgQIECAAAECBAgQIECAAAECBAgQIECAAAECBAgQIECAAAECBAgQIECAAAECBAgQIECAAAECBAgQIECAAAECBAgQIECAAAECBAgQIECAAAECBAgQIECAAAECBAgQIECAAAECBAgQIECAAAECBAgQIECAAAECBAgQIECAAAECBAgQIECAAAECBAgQIECAAAECBAgQIECAAAECBAgQIECAAAECBAgQIECAAAECBAgQIECAAAECBAgQIECAAAECBAgQIECAAAECBAgQIECAAAECBAgQIECAAAECBAgQIECAAAECBAgQIECAAAECBAgQIECAAAECBAgQIECAAAECBAgQIECAAAECBAgQIECAAAECBAgQIECAAAECBAgQIECAAAECBAgQIECAAAECBAgQIECAAAECBAgQIECAAAECBAgQIECAAAECBAgQIECAAAECBAgQIECAAAECBAgQIECAAAECBAgQIECAAAECBAgQIECAAAECBAgQIECAAAECBAgQIECAAAECBAgQIECAAAECBAgQIECAAAECBAgQIECAAAECBAgQIECAAAECBAgQIECAAAECBAgQIECAAAECBAgQIECAAAECBAgQIECAAAECBAgQIECAAAECBAgQIECAAAECBAgQIECAAAECBAgQIECAAAECBAgQIECAQFjg+OX69XZe//gx0IAGNKABDXw0cJzX3w8/DY7zej3O692PgQY0oAENaODewJsBYBwYRxrQgAY00GvAALAG72vQP4DePwA3d3MNdBswAAwAA0ADGtCABoINGADBo1v83cXv9m6vAQ2sAQPAALD8NaABDWgg2IABEDz61p+vl4AGNKCBbgMGgAFg+WtAAxrQQLABAyB4dIu/u/jd3u01oIE1YAAYAJa/BjSgAQ0EGzAAgkff+vP1EtCABjTQbcAAMAAsfw1oQAMaCDZgAASPbvF3F7/bu70GNLAGDAADwPLXgAY0oIFgAwZA8Ohbf75eAhrQgAa6DRgABoDlrwENaEADwQYMgODRLf7u4nd7t9eABtaAAWAAWP4a0IAGNBBswAAIHn3rz9dLQAMa0EC3AQPAALD8NaABDWgg2IABEDy6xd9d/G7v9hrQwBowAAwAy18DGtCABoINGADBo2/9+XoJaEADGug2YAAYAJa/BjSgAQ0EGzAAgke3+LuL3+3dXgMaWAMGgAFg+WtAAxrQQLABAyB49K0/Xy8BDWhAA90GDAADwPLXgAY0oIFgAwZA8OgWf3fxu73ba0ADa8AAMAAsfw1oQAMaCDZgAASPvvXn6yWgAQ1ooNuAAWAAWP4a0IAGNBBswAAIHt3i7y5+t3d7DWhgDRgABoDlrwENaEADwQYMgODRt/58vQQ0oAENdBswAAwAy18DGtCABoINGADBo1v83cXv9m6vAQ2sAQPAALD8NaABDWgg2IABEDz61p+vl4AGNKCBbgMGgAFg+WtAAxrQQLABAyB4dIu/u/jd3u01oIE1YAAYAJa/BjSgAQ0EGzAAgkff+vP1EtCABjTQbcAAMAAsfw1oQAMaCDZgAASPbvF3F7/bu70GNLAGDAADwPLXgAY0oIFgAwZA8Ohbf75eAhrQgAa6DRgABoDlrwENaEADwQYMgODRLf7u4nd7t9eABtaAAWAAWP4a0IAGNBBswAAIHn3rz9dLQAMa0EC3AQPAALD8NaABDWgg2IABEDy6xd9d/G7v9hrQwBowAAwAy18DGtCABoINGADBo2/9+XoJaEADGug2YAAYAJa/BjSgAQ0EGzAAgke3+LuL3+3dXgMaWAMGgAFg+WtAAxrQQLABAyB49K0/Xy8BDWhAA90GDAADwPLXgAY0oIFgAwZA8OgWf3fxu73ba0ADa8AAMAAsfw1oQAMaCDZgAASPvvXn6yWgAQ1ooNuAAWAAWP4a0IAGNBBswAAIHt3i7y5+t3d7DWhgDRgABoDlrwENaEADwQYMgODRt/58vQQ0oAENdBsIDIDnL9/dzusnPwYa0IAGNKCBjwaO8/rxyR8BAgQIECBAgAABAgQIECBAgAABAgQIECBAgAABAgQIECBAgAABAgQIECBAgAABAgQIECBAgAABAgQIECBAgAABAgQIECBAgAABAgQIECBAgAABAgQIECBAgAABAgQIECBAgAABAgQIECBAgAABAgQIECBAgAABAgQIECBAgAABAgQIECBAgAABAgQIECBAgAABAgQIECBAgAABAgQIECBAgAABAgQIECBAgAABAgQIECBAgAABAgQIECBAgAABAgQIECBAgAABAgQIECBAgAABAgQIECBAgAABAgQIECBAgAABAgQIECBAgAABAgQIECBAgAABAgQIECBAgAABAgQIECBAgAABAgQIECBAgAABAgQIECBAgAABAgQIECBAgAABAgQIECBAgAABAgQIECBAgAABAgQIECBAgAABAgQIECBAgAABAgQIECBAgAABAgQIECBAgAABAgQIECBAgAABAgQIECBAgAABAgQIECBAgAABAgQIECBAgAABAgQIECBAgAABAgQIECBAgAABAgQIECBAgAABAgQIECBAgAABAgQIECBAgAABAgQIECBAgAABAgQIECBAgAABAgQIECBAgAABAgQIECBAgAABAgQIECBAgAABAgQIECBAgAABAgQIECBAgAABAgQIECBAgAABAgQIECBAgAABAgQIECBAgAABAgQIECBAgAABAgQIECBAgAABAgQIECBAgAABAgQIECBAgAABAgQIECBAgAABAgQIECBAgAABAgQIECBAgAABAgQIECBAgAABAgQIECBAgAABAgQIECBAgAABAgQIECBAgAABAgQIECBAgAABAgQIECBAgAABAgQIECBAgAABAgQIECBAgAABAgQIECBAgAABAgQIECBAgAABAgQIECBAgAABAgQIECBAgAABAgT+F/gGIaJCR23V/8sAAAAASUVORK5CYII=;" vertex="1" parent="1">
          <mxGeometry x="470" y="1455" width="15" height="15" as="geometry" />
        </mxCell>
      </root>
    </mxGraphModel>
  </diagram>
</mxfile>
